<?xml version="1.0" encoding="UTF-8"?>
<svg id="Layer_1_copy" data-name="Layer 1 copy" xmlns="http://www.w3.org/2000/svg" viewBox="0 0 1000 1000">
  <defs>
    <style>
      .cls-1 {
        stroke-width: 6px;
      }

      .cls-1, .cls-2 {
        fill: none;
        stroke: #fff;
        stroke-miterlimit: 10;
      }

      .cls-2 {
        stroke-width: 17px;
      }

      .cls-3 {
        fill: #00a651;
      }

      .cls-4 {
        fill: #fff;
      }

      .cls-5 {
        fill: #356aa5;
      }

      .cls-6 {
        fill: #db1f26;
      }
    </style>
  </defs>
  <path class="cls-2" d="M497.67,470.94c123.47,0,246.94.22,370.4-.31,13.35-.06,16.34,3.86,16.28,16.68-.52,104.11-.28,288.22-.31,392.33-.01,33.42-11.97,45.51-45.06,45.49-216.59-.09-433.18-.21-649.78-.31-11.51,0-23.02,0-34.53.23-31.28.64-44.15-11.22-44.36-42.9-.51-76.9-.54-233.81-.68-310.71-.05-28.25.66-56.52-.1-84.74-.34-12.61,4.3-15.56,16.18-15.52,123.99.37,247.98.23,371.97.23v-.46Z"/>
  <path class="cls-4" d="M272.84,289.12c-41.75,10.75-83.01,21.36-124.26,31.99-9.08,2.34-18.27,4.34-27.19,7.2-9.38,3-13.86-1.14-15.91-9.56-6.41-26.34-12.76-52.69-19.07-79.06-2.45-10.27,2.2-15.72,12.1-17.93,24.92-5.56,49.83-11.19,74.67-17.09,5.44-1.29,9.75-1.45,14.27,2.77,27.52,25.66,55.28,51.05,82.89,76.6,1.03.95,1.35,2.66,2.5,5.08Z"/>
  <path class="cls-3" d="M441.65,249.48c-40.43,9.59-77.89,18.45-115.34,27.37-6.15,1.47-11.19-.21-15.76-4.44-28.36-26.2-56.77-52.33-87.27-80.42,29.62-7.38,57.86-12.31,84.57-21.64,28.38-9.92,48.89-3.86,68.8,18.16,19.17,21.21,41.7,39.37,65.01,60.96Z"/>
  <path class="cls-5" d="M571.22,444.08c27.83-34.7,52.89-65.92,77.93-97.17,3.5-4.37,7.79-6.3,13.54-6.27,35.51.15,71.02,0,106.52.08,2.85,0,6.75-1.54,8.28,2.24,1.35,3.34-1.47,5.79-3.35,8.2-21.8,28-43.6,56.01-65.5,83.93-3.84,4.9-7.74,9.21-15.26,9.14-39.12-.33-78.25-.15-122.15-.15Z"/>
  <path class="cls-5" d="M547.6,113.76c40.69-9.77,78.57-18.88,116.46-27.96,4.36-1.05,8.06.05,11.47,3.18,28.75,26.46,57.59,52.83,88.81,81.43-36.34,8.86-69.72,16.25-102.62,25.36-14.45,4-23.95.8-34.57-9.53-24.93-24.26-51.35-46.99-79.54-72.49Z"/>
  <path class="cls-3" d="M442.78,340.51c-27.04,34.32-51.62,65.48-76.13,96.69-3.4,4.34-7.14,7-13.1,6.97-38.13-.19-76.27-.1-114.65-.1-.69-7.4,4.79-10.7,8.04-14.94,20.38-26.53,40.99-52.89,61.6-79.23,3.45-4.4,6.21-9.51,13.3-9.48,39.06.18,78.12.09,120.92.09Z"/>
  <path class="cls-6" d="M609.86,340.76c-26.47,35.86-51.07,68.58-77.81,99.68-2.7,3.14-6.13,3.61-9.87,3.61-38.04,0-76.07,0-113.82,0-2.35-6.17,2.14-8.5,4.48-11.51,21.45-27.61,43.18-55.01,64.52-82.7,4.88-6.33,10.29-9.29,18.47-9.22,36.54.34,73.09.15,114.02.15Z"/>
  <path class="cls-6" d="M601.36,210.05c-38.59,9.51-72.97,17.76-107.21,26.57-8.5,2.19-14.36.4-20.78-5.65-27.65-26.05-55.84-51.53-86.15-79.35,16.33-3.95,30.17-7.32,44.03-10.63,21.76-5.2,43.56-10.27,65.29-15.6,4.72-1.16,8.77-2.11,13,1.75,29.59,26.91,59.34,53.63,91.82,82.91Z"/>
  <path class="cls-4" d="M274.36,339.49c-27.81,35.47-52.63,67.01-77.27,98.69-3.65,4.69-8.01,5.87-13.59,5.82-20.91-.19-41.83-.38-62.73.06-8.21.17-10.94-2.76-10.84-10.82.36-27.18.08-54.36.31-81.54.05-5.34-1.42-12.24,7.83-12.23,50.57.06,101.14.03,156.27.03Z"/>
  <path class="cls-4" d="M711.04,73.96c33.4-8.04,63.4-15.51,93.53-22.44,39.07-8.98,39.04-8.78,48.04,30.63,3.71,16.23,7.62,32.42,11.77,48.54,2.92,11.37-.59,18.27-12.55,20.15-1.03.16-2.12.23-3.06.62-29.02,12.16-51.7,4.8-72.86-18.65-18.64-20.65-41.25-37.72-64.87-58.85Z"/>
  <path class="cls-4" d="M744.39,443.96c26.61-34.06,51.2-65.08,75.19-96.57,5.9-7.74,13.25-6.9,20.98-6.92q43.61-.12,43.53,43.35c-.03,16.71-.3,33.42.04,50.12.15,7.26-2.17,10.18-9.77,10.13-42.17-.25-84.35-.12-129.98-.12Z"/>
  <g>
    <path class="cls-6" d="M191.02,521.66c1.85,0,3.41,1.56,3.41,3.41,0,1.99-1.56,3.55-3.41,3.55-1.99,0-3.55-1.56-3.55-3.55,0-1.85,1.56-3.41,3.55-3.41ZM191.02,530.32c1.85,0,3.41,1.56,3.41,3.55s-1.56,3.55-3.41,3.55c-1.99,0-3.55-1.56-3.55-3.55s1.56-3.55,3.55-3.55ZM199.68,512.86c1.99,0,3.55,1.56,3.55,3.55,0,1.85-1.56,3.41-3.55,3.41-1.85,0-3.41-1.56-3.41-3.41,0-1.99,1.56-3.55,3.41-3.55ZM199.68,521.66c1.99,0,3.55,1.56,3.55,3.41,0,1.99-1.56,3.55-3.55,3.55-1.85,0-3.41-1.56-3.41-3.55,0-1.85,1.56-3.41,3.41-3.41ZM199.68,530.32c1.99,0,3.55,1.56,3.55,3.55s-1.56,3.55-3.55,3.55c-1.85,0-3.41-1.56-3.41-3.55s1.56-3.55,3.41-3.55ZM208.49,512.86c1.99,0,3.55,1.56,3.55,3.55,0,1.85-1.56,3.41-3.55,3.41s-3.55-1.56-3.55-3.41c0-1.99,1.56-3.55,3.55-3.55ZM208.49,521.66c1.99,0,3.55,1.56,3.55,3.41,0,1.99-1.56,3.55-3.55,3.55s-3.55-1.56-3.55-3.55c0-1.85,1.56-3.41,3.55-3.41ZM208.49,530.32c1.99,0,3.55,1.56,3.55,3.55s-1.56,3.55-3.55,3.55-3.55-1.56-3.55-3.55,1.56-3.55,3.55-3.55ZM208.49,539.13c1.99,0,3.55,1.56,3.55,3.55,0,1.85-1.56,3.41-3.55,3.41s-3.55-1.56-3.55-3.41c0-1.99,1.56-3.55,3.55-3.55ZM208.49,547.93c1.99,0,3.55,1.56,3.55,3.41,0,1.99-1.56,3.55-3.55,3.55s-3.55-1.56-3.55-3.55c0-1.85,1.56-3.41,3.55-3.41ZM208.49,556.59c1.99,0,3.55,1.56,3.55,3.55s-1.56,3.55-3.55,3.55-3.55-1.56-3.55-3.55,1.56-3.55,3.55-3.55ZM208.49,565.4c1.99,0,3.55,1.56,3.55,3.55,0,1.85-1.56,3.41-3.55,3.41s-3.55-1.56-3.55-3.41c0-1.99,1.56-3.55,3.55-3.55ZM208.49,574.2c1.99,0,3.55,1.56,3.55,3.41,0,1.99-1.56,3.55-3.55,3.55s-3.55-1.56-3.55-3.55c0-1.85,1.56-3.41,3.55-3.41ZM208.49,582.86c1.99,0,3.55,1.56,3.55,3.55s-1.56,3.55-3.55,3.55-3.55-1.56-3.55-3.55,1.56-3.55,3.55-3.55ZM208.49,591.66c1.99,0,3.55,1.56,3.55,3.55,0,1.85-1.56,3.41-3.55,3.41s-3.55-1.56-3.55-3.41c0-1.99,1.56-3.55,3.55-3.55ZM208.49,600.47c1.99,0,3.55,1.56,3.55,3.41,0,1.99-1.56,3.55-3.55,3.55s-3.55-1.56-3.55-3.55c0-1.85,1.56-3.41,3.55-3.41ZM217.29,512.86c1.85,0,3.41,1.56,3.41,3.55,0,1.85-1.56,3.41-3.41,3.41-1.99,0-3.55-1.56-3.55-3.41,0-1.99,1.56-3.55,3.55-3.55ZM217.29,521.66c1.85,0,3.41,1.56,3.41,3.41,0,1.99-1.56,3.55-3.41,3.55-1.99,0-3.55-1.56-3.55-3.55,0-1.85,1.56-3.41,3.55-3.41ZM217.29,530.32c1.85,0,3.41,1.56,3.41,3.55s-1.56,3.55-3.41,3.55c-1.99,0-3.55-1.56-3.55-3.55s1.56-3.55,3.55-3.55ZM217.29,539.13c1.85,0,3.41,1.56,3.41,3.55,0,1.85-1.56,3.41-3.41,3.41-1.99,0-3.55-1.56-3.55-3.41,0-1.99,1.56-3.55,3.55-3.55ZM217.29,547.93c1.85,0,3.41,1.56,3.41,3.41,0,1.99-1.56,3.55-3.41,3.55-1.99,0-3.55-1.56-3.55-3.55,0-1.85,1.56-3.41,3.55-3.41ZM217.29,556.59c1.85,0,3.41,1.56,3.41,3.55s-1.56,3.55-3.41,3.55c-1.99,0-3.55-1.56-3.55-3.55s1.56-3.55,3.55-3.55ZM217.29,565.4c1.85,0,3.41,1.56,3.41,3.55,0,1.85-1.56,3.41-3.41,3.41-1.99,0-3.55-1.56-3.55-3.41,0-1.99,1.56-3.55,3.55-3.55ZM217.29,574.2c1.85,0,3.41,1.56,3.41,3.41,0,1.99-1.56,3.55-3.41,3.55-1.99,0-3.55-1.56-3.55-3.55,0-1.85,1.56-3.41,3.55-3.41ZM217.29,582.86c1.85,0,3.41,1.56,3.41,3.55s-1.56,3.55-3.41,3.55c-1.99,0-3.55-1.56-3.55-3.55s1.56-3.55,3.55-3.55ZM217.29,591.66c1.85,0,3.41,1.56,3.41,3.55,0,1.85-1.56,3.41-3.41,3.41-1.99,0-3.55-1.56-3.55-3.41,0-1.99,1.56-3.55,3.55-3.55ZM217.29,600.47c1.85,0,3.41,1.56,3.41,3.41,0,1.99-1.56,3.55-3.41,3.55-1.99,0-3.55-1.56-3.55-3.55,0-1.85,1.56-3.41,3.55-3.41ZM225.95,512.86c1.99,0,3.55,1.56,3.55,3.55,0,1.85-1.56,3.41-3.55,3.41-1.85,0-3.41-1.56-3.41-3.41,0-1.99,1.56-3.55,3.41-3.55ZM225.95,521.66c1.99,0,3.55,1.56,3.55,3.41,0,1.99-1.56,3.55-3.55,3.55-1.85,0-3.41-1.56-3.41-3.55,0-1.85,1.56-3.41,3.41-3.41ZM225.95,530.32c1.99,0,3.55,1.56,3.55,3.55s-1.56,3.55-3.55,3.55c-1.85,0-3.41-1.56-3.41-3.55s1.56-3.55,3.41-3.55ZM225.95,539.13c1.99,0,3.55,1.56,3.55,3.55,0,1.85-1.56,3.41-3.55,3.41-1.85,0-3.41-1.56-3.41-3.41,0-1.99,1.56-3.55,3.41-3.55ZM225.95,547.93c1.99,0,3.55,1.56,3.55,3.41,0,1.99-1.56,3.55-3.55,3.55-1.85,0-3.41-1.56-3.41-3.55,0-1.85,1.56-3.41,3.41-3.41ZM225.95,556.59c1.99,0,3.55,1.56,3.55,3.55s-1.56,3.55-3.55,3.55c-1.85,0-3.41-1.56-3.41-3.55s1.56-3.55,3.41-3.55ZM225.95,565.4c1.99,0,3.55,1.56,3.55,3.55,0,1.85-1.56,3.41-3.55,3.41-1.85,0-3.41-1.56-3.41-3.41,0-1.99,1.56-3.55,3.41-3.55ZM225.95,574.2c1.99,0,3.55,1.56,3.55,3.41,0,1.99-1.56,3.55-3.55,3.55-1.85,0-3.41-1.56-3.41-3.55,0-1.85,1.56-3.41,3.41-3.41ZM225.95,582.86c1.99,0,3.55,1.56,3.55,3.55s-1.56,3.55-3.55,3.55c-1.85,0-3.41-1.56-3.41-3.55s1.56-3.55,3.41-3.55ZM225.95,591.66c1.99,0,3.55,1.56,3.55,3.55,0,1.85-1.56,3.41-3.55,3.41-1.85,0-3.41-1.56-3.41-3.41,0-1.99,1.56-3.55,3.41-3.55ZM225.95,600.47c1.99,0,3.55,1.56,3.55,3.41,0,1.99-1.56,3.55-3.55,3.55-1.85,0-3.41-1.56-3.41-3.55,0-1.85,1.56-3.41,3.41-3.41Z"/>
    <path class="cls-6" d="M244.41,521.66c1.85,0,3.41,1.56,3.41,3.41,0,1.99-1.56,3.55-3.41,3.55-1.99,0-3.55-1.56-3.55-3.55,0-1.85,1.56-3.41,3.55-3.41ZM244.41,530.32c1.85,0,3.41,1.56,3.41,3.55s-1.56,3.55-3.41,3.55c-1.99,0-3.55-1.56-3.55-3.55s1.56-3.55,3.55-3.55ZM244.41,539.13c1.85,0,3.41,1.56,3.41,3.55,0,1.85-1.56,3.41-3.41,3.41-1.99,0-3.55-1.56-3.55-3.41,0-1.99,1.56-3.55,3.55-3.55ZM244.41,547.93c1.85,0,3.41,1.56,3.41,3.41,0,1.99-1.56,3.55-3.41,3.55-1.99,0-3.55-1.56-3.55-3.55,0-1.85,1.56-3.41,3.55-3.41ZM244.41,556.59c1.85,0,3.41,1.56,3.41,3.55s-1.56,3.55-3.41,3.55c-1.99,0-3.55-1.56-3.55-3.55s1.56-3.55,3.55-3.55ZM244.41,565.4c1.85,0,3.41,1.56,3.41,3.55,0,1.85-1.56,3.41-3.41,3.41-1.99,0-3.55-1.56-3.55-3.41,0-1.99,1.56-3.55,3.55-3.55ZM244.41,574.2c1.85,0,3.41,1.56,3.41,3.41,0,1.99-1.56,3.55-3.41,3.55-1.99,0-3.55-1.56-3.55-3.55,0-1.85,1.56-3.41,3.55-3.41ZM244.41,582.86c1.85,0,3.41,1.56,3.41,3.55s-1.56,3.55-3.41,3.55c-1.99,0-3.55-1.56-3.55-3.55s1.56-3.55,3.55-3.55ZM244.41,591.66c1.85,0,3.41,1.56,3.41,3.55,0,1.85-1.56,3.41-3.41,3.41-1.99,0-3.55-1.56-3.55-3.41,0-1.99,1.56-3.55,3.55-3.55ZM253.07,512.86c1.99,0,3.55,1.56,3.55,3.55,0,1.85-1.56,3.41-3.55,3.41-1.85,0-3.41-1.56-3.41-3.41,0-1.99,1.56-3.55,3.41-3.55ZM253.07,521.66c1.99,0,3.55,1.56,3.55,3.41,0,1.99-1.56,3.55-3.55,3.55-1.85,0-3.41-1.56-3.41-3.55,0-1.85,1.56-3.41,3.41-3.41ZM253.07,530.32c1.99,0,3.55,1.56,3.55,3.55s-1.56,3.55-3.55,3.55c-1.85,0-3.41-1.56-3.41-3.55s1.56-3.55,3.41-3.55ZM253.07,539.13c1.99,0,3.55,1.56,3.55,3.55,0,1.85-1.56,3.41-3.55,3.41-1.85,0-3.41-1.56-3.41-3.41,0-1.99,1.56-3.55,3.41-3.55ZM253.07,547.93c1.99,0,3.55,1.56,3.55,3.41,0,1.99-1.56,3.55-3.55,3.55-1.85,0-3.41-1.56-3.41-3.55,0-1.85,1.56-3.41,3.41-3.41ZM253.07,556.59c1.99,0,3.55,1.56,3.55,3.55s-1.56,3.55-3.55,3.55c-1.85,0-3.41-1.56-3.41-3.55s1.56-3.55,3.41-3.55ZM253.07,565.4c1.99,0,3.55,1.56,3.55,3.55,0,1.85-1.56,3.41-3.55,3.41-1.85,0-3.41-1.56-3.41-3.41,0-1.99,1.56-3.55,3.41-3.55ZM253.07,574.2c1.99,0,3.55,1.56,3.55,3.41,0,1.99-1.56,3.55-3.55,3.55-1.85,0-3.41-1.56-3.41-3.55,0-1.85,1.56-3.41,3.41-3.41ZM253.07,582.86c1.99,0,3.55,1.56,3.55,3.55s-1.56,3.55-3.55,3.55c-1.85,0-3.41-1.56-3.41-3.55s1.56-3.55,3.41-3.55ZM253.07,591.66c1.99,0,3.55,1.56,3.55,3.55,0,1.85-1.56,3.41-3.55,3.41-1.85,0-3.41-1.56-3.41-3.41,0-1.99,1.56-3.55,3.41-3.55ZM253.07,600.47c1.99,0,3.55,1.56,3.55,3.41,0,1.99-1.56,3.55-3.55,3.55-1.85,0-3.41-1.56-3.41-3.55,0-1.85,1.56-3.41,3.41-3.41ZM261.88,512.86c1.99,0,3.55,1.56,3.55,3.55,0,1.85-1.56,3.41-3.55,3.41s-3.55-1.56-3.55-3.41c0-1.99,1.56-3.55,3.55-3.55ZM261.88,521.66c1.99,0,3.55,1.56,3.55,3.41,0,1.99-1.56,3.55-3.55,3.55s-3.55-1.56-3.55-3.55c0-1.85,1.56-3.41,3.55-3.41ZM261.88,530.32c1.99,0,3.55,1.56,3.55,3.55s-1.56,3.55-3.55,3.55-3.55-1.56-3.55-3.55,1.56-3.55,3.55-3.55ZM261.88,539.13c1.99,0,3.55,1.56,3.55,3.55,0,1.85-1.56,3.41-3.55,3.41s-3.55-1.56-3.55-3.41c0-1.99,1.56-3.55,3.55-3.55ZM261.88,547.93c1.99,0,3.55,1.56,3.55,3.41,0,1.99-1.56,3.55-3.55,3.55s-3.55-1.56-3.55-3.55c0-1.85,1.56-3.41,3.55-3.41ZM261.88,556.59c1.99,0,3.55,1.56,3.55,3.55s-1.56,3.55-3.55,3.55-3.55-1.56-3.55-3.55,1.56-3.55,3.55-3.55ZM261.88,565.4c1.99,0,3.55,1.56,3.55,3.55,0,1.85-1.56,3.41-3.55,3.41s-3.55-1.56-3.55-3.41c0-1.99,1.56-3.55,3.55-3.55ZM261.88,574.2c1.99,0,3.55,1.56,3.55,3.41,0,1.99-1.56,3.55-3.55,3.55s-3.55-1.56-3.55-3.55c0-1.85,1.56-3.41,3.55-3.41ZM261.88,582.86c1.99,0,3.55,1.56,3.55,3.55s-1.56,3.55-3.55,3.55-3.55-1.56-3.55-3.55,1.56-3.55,3.55-3.55ZM261.88,591.66c1.99,0,3.55,1.56,3.55,3.55,0,1.85-1.56,3.41-3.55,3.41s-3.55-1.56-3.55-3.41c0-1.99,1.56-3.55,3.55-3.55ZM261.88,600.47c1.99,0,3.55,1.56,3.55,3.41,0,1.99-1.56,3.55-3.55,3.55s-3.55-1.56-3.55-3.55c0-1.85,1.56-3.41,3.55-3.41ZM270.68,512.86c1.85,0,3.41,1.56,3.41,3.55,0,1.85-1.56,3.41-3.41,3.41-1.99,0-3.55-1.56-3.55-3.41,0-1.99,1.56-3.55,3.55-3.55ZM270.68,521.66c1.85,0,3.41,1.56,3.41,3.41,0,1.99-1.56,3.55-3.41,3.55-1.99,0-3.55-1.56-3.55-3.55,0-1.85,1.56-3.41,3.55-3.41ZM270.68,530.32c1.85,0,3.41,1.56,3.41,3.55s-1.56,3.55-3.41,3.55c-1.99,0-3.55-1.56-3.55-3.55s1.56-3.55,3.55-3.55ZM270.68,582.86c1.85,0,3.41,1.56,3.41,3.55s-1.56,3.55-3.41,3.55c-1.99,0-3.55-1.56-3.55-3.55s1.56-3.55,3.55-3.55ZM270.68,591.66c1.85,0,3.41,1.56,3.41,3.55,0,1.85-1.56,3.41-3.41,3.41-1.99,0-3.55-1.56-3.55-3.41,0-1.99,1.56-3.55,3.55-3.55ZM270.68,600.47c1.85,0,3.41,1.56,3.41,3.41,0,1.99-1.56,3.55-3.41,3.55-1.99,0-3.55-1.56-3.55-3.55,0-1.85,1.56-3.41,3.55-3.41ZM279.34,512.86c1.99,0,3.55,1.56,3.55,3.55,0,1.85-1.56,3.41-3.55,3.41-1.85,0-3.41-1.56-3.41-3.41,0-1.99,1.56-3.55,3.41-3.55ZM279.34,521.66c1.99,0,3.55,1.56,3.55,3.41,0,1.99-1.56,3.55-3.55,3.55-1.85,0-3.41-1.56-3.41-3.55,0-1.85,1.56-3.41,3.41-3.41ZM279.34,530.32c1.99,0,3.55,1.56,3.55,3.55s-1.56,3.55-3.55,3.55c-1.85,0-3.41-1.56-3.41-3.55s1.56-3.55,3.41-3.55ZM279.34,539.13c1.99,0,3.55,1.56,3.55,3.55,0,1.85-1.56,3.41-3.55,3.41-1.85,0-3.41-1.56-3.41-3.41,0-1.99,1.56-3.55,3.41-3.55ZM279.34,547.93c1.99,0,3.55,1.56,3.55,3.41,0,1.99-1.56,3.55-3.55,3.55-1.85,0-3.41-1.56-3.41-3.55,0-1.85,1.56-3.41,3.41-3.41ZM279.34,556.59c1.99,0,3.55,1.56,3.55,3.55s-1.56,3.55-3.55,3.55c-1.85,0-3.41-1.56-3.41-3.55s1.56-3.55,3.41-3.55ZM279.34,565.4c1.99,0,3.55,1.56,3.55,3.55,0,1.85-1.56,3.41-3.55,3.41-1.85,0-3.41-1.56-3.41-3.41,0-1.99,1.56-3.55,3.41-3.55ZM279.34,574.2c1.99,0,3.55,1.56,3.55,3.41,0,1.99-1.56,3.55-3.55,3.55-1.85,0-3.41-1.56-3.41-3.55,0-1.85,1.56-3.41,3.41-3.41ZM279.34,582.86c1.99,0,3.55,1.56,3.55,3.55s-1.56,3.55-3.55,3.55c-1.85,0-3.41-1.56-3.41-3.55s1.56-3.55,3.41-3.55ZM279.34,591.66c1.99,0,3.55,1.56,3.55,3.55,0,1.85-1.56,3.41-3.55,3.41-1.85,0-3.41-1.56-3.41-3.41,0-1.99,1.56-3.55,3.41-3.55ZM279.34,600.47c1.99,0,3.55,1.56,3.55,3.41,0,1.99-1.56,3.55-3.55,3.55-1.85,0-3.41-1.56-3.41-3.55,0-1.85,1.56-3.41,3.41-3.41ZM288.15,512.86c1.99,0,3.55,1.56,3.55,3.55,0,1.85-1.56,3.41-3.55,3.41s-3.55-1.56-3.55-3.41c0-1.99,1.56-3.55,3.55-3.55ZM288.15,521.66c1.99,0,3.55,1.56,3.55,3.41,0,1.99-1.56,3.55-3.55,3.55s-3.55-1.56-3.55-3.55c0-1.85,1.56-3.41,3.55-3.41ZM288.15,530.32c1.99,0,3.55,1.56,3.55,3.55s-1.56,3.55-3.55,3.55-3.55-1.56-3.55-3.55,1.56-3.55,3.55-3.55ZM288.15,539.13c1.99,0,3.55,1.56,3.55,3.55,0,1.85-1.56,3.41-3.55,3.41s-3.55-1.56-3.55-3.41c0-1.99,1.56-3.55,3.55-3.55ZM288.15,547.93c1.99,0,3.55,1.56,3.55,3.41,0,1.99-1.56,3.55-3.55,3.55s-3.55-1.56-3.55-3.55c0-1.85,1.56-3.41,3.55-3.41ZM288.15,556.59c1.99,0,3.55,1.56,3.55,3.55s-1.56,3.55-3.55,3.55-3.55-1.56-3.55-3.55,1.56-3.55,3.55-3.55ZM288.15,565.4c1.99,0,3.55,1.56,3.55,3.55,0,1.85-1.56,3.41-3.55,3.41s-3.55-1.56-3.55-3.41c0-1.99,1.56-3.55,3.55-3.55ZM288.15,574.2c1.99,0,3.55,1.56,3.55,3.41,0,1.99-1.56,3.55-3.55,3.55s-3.55-1.56-3.55-3.55c0-1.85,1.56-3.41,3.55-3.41ZM288.15,582.86c1.99,0,3.55,1.56,3.55,3.55s-1.56,3.55-3.55,3.55-3.55-1.56-3.55-3.55,1.56-3.55,3.55-3.55ZM288.15,591.66c1.99,0,3.55,1.56,3.55,3.55,0,1.85-1.56,3.41-3.55,3.41s-3.55-1.56-3.55-3.41c0-1.99,1.56-3.55,3.55-3.55ZM288.15,600.47c1.99,0,3.55,1.56,3.55,3.41,0,1.99-1.56,3.55-3.55,3.55s-3.55-1.56-3.55-3.55c0-1.85,1.56-3.41,3.55-3.41ZM296.95,521.66c1.85,0,3.41,1.56,3.41,3.41,0,1.99-1.56,3.55-3.41,3.55-1.99,0-3.55-1.56-3.55-3.55,0-1.85,1.56-3.41,3.55-3.41ZM296.95,530.32c1.85,0,3.41,1.56,3.41,3.55s-1.56,3.55-3.41,3.55c-1.99,0-3.55-1.56-3.55-3.55s1.56-3.55,3.55-3.55ZM296.95,539.13c1.85,0,3.41,1.56,3.41,3.55,0,1.85-1.56,3.41-3.41,3.41-1.99,0-3.55-1.56-3.55-3.41,0-1.99,1.56-3.55,3.55-3.55ZM296.95,547.93c1.85,0,3.41,1.56,3.41,3.41,0,1.99-1.56,3.55-3.41,3.55-1.99,0-3.55-1.56-3.55-3.55,0-1.85,1.56-3.41,3.55-3.41ZM296.95,556.59c1.85,0,3.41,1.56,3.41,3.55s-1.56,3.55-3.41,3.55c-1.99,0-3.55-1.56-3.55-3.55s1.56-3.55,3.55-3.55ZM296.95,565.4c1.85,0,3.41,1.56,3.41,3.55,0,1.85-1.56,3.41-3.41,3.41-1.99,0-3.55-1.56-3.55-3.41,0-1.99,1.56-3.55,3.55-3.55ZM296.95,574.2c1.85,0,3.41,1.56,3.41,3.41,0,1.99-1.56,3.55-3.41,3.55-1.99,0-3.55-1.56-3.55-3.55,0-1.85,1.56-3.41,3.55-3.41ZM296.95,582.86c1.85,0,3.41,1.56,3.41,3.55s-1.56,3.55-3.41,3.55c-1.99,0-3.55-1.56-3.55-3.55s1.56-3.55,3.55-3.55ZM296.95,591.66c1.85,0,3.41,1.56,3.41,3.55,0,1.85-1.56,3.41-3.41,3.41-1.99,0-3.55-1.56-3.55-3.41,0-1.99,1.56-3.55,3.55-3.55Z"/>
    <path class="cls-6" d="M315.27,530.32c1.85,0,3.41,1.56,3.41,3.55s-1.56,3.55-3.41,3.55c-1.99,0-3.55-1.56-3.55-3.55s1.56-3.55,3.55-3.55ZM315.27,539.13c1.85,0,3.41,1.56,3.41,3.55,0,1.85-1.56,3.41-3.41,3.41-1.99,0-3.55-1.56-3.55-3.41,0-1.99,1.56-3.55,3.55-3.55ZM315.27,591.66c1.85,0,3.41,1.56,3.41,3.55,0,1.85-1.56,3.41-3.41,3.41-1.99,0-3.55-1.56-3.55-3.41,0-1.99,1.56-3.55,3.55-3.55ZM315.27,600.47c1.85,0,3.41,1.56,3.41,3.41,0,1.99-1.56,3.55-3.41,3.55-1.99,0-3.55-1.56-3.55-3.55,0-1.85,1.56-3.41,3.55-3.41ZM323.93,530.32c1.99,0,3.55,1.56,3.55,3.55s-1.56,3.55-3.55,3.55c-1.85,0-3.41-1.56-3.41-3.55s1.56-3.55,3.41-3.55ZM323.93,539.13c1.99,0,3.55,1.56,3.55,3.55,0,1.85-1.56,3.41-3.55,3.41-1.85,0-3.41-1.56-3.41-3.41,0-1.99,1.56-3.55,3.41-3.55ZM323.93,591.66c1.99,0,3.55,1.56,3.55,3.55,0,1.85-1.56,3.41-3.55,3.41-1.85,0-3.41-1.56-3.41-3.41,0-1.99,1.56-3.55,3.41-3.55ZM323.93,600.47c1.99,0,3.55,1.56,3.55,3.41,0,1.99-1.56,3.55-3.55,3.55-1.85,0-3.41-1.56-3.41-3.55,0-1.85,1.56-3.41,3.41-3.41Z"/>
    <path class="cls-6" d="M342.39,521.66c1.85,0,3.41,1.56,3.41,3.41,0,1.99-1.56,3.55-3.41,3.55-1.99,0-3.55-1.56-3.55-3.55,0-1.85,1.56-3.41,3.55-3.41ZM342.39,530.32c1.85,0,3.41,1.56,3.41,3.55s-1.56,3.55-3.41,3.55c-1.99,0-3.55-1.56-3.55-3.55s1.56-3.55,3.55-3.55ZM342.39,539.13c1.85,0,3.41,1.56,3.41,3.55,0,1.85-1.56,3.41-3.41,3.41-1.99,0-3.55-1.56-3.55-3.41,0-1.99,1.56-3.55,3.55-3.55ZM342.39,547.93c1.85,0,3.41,1.56,3.41,3.41,0,1.99-1.56,3.55-3.41,3.55-1.99,0-3.55-1.56-3.55-3.55,0-1.85,1.56-3.41,3.55-3.41ZM342.39,556.59c1.85,0,3.41,1.56,3.41,3.55s-1.56,3.55-3.41,3.55c-1.99,0-3.55-1.56-3.55-3.55s1.56-3.55,3.55-3.55ZM342.39,565.4c1.85,0,3.41,1.56,3.41,3.55,0,1.85-1.56,3.41-3.41,3.41-1.99,0-3.55-1.56-3.55-3.41,0-1.99,1.56-3.55,3.55-3.55ZM342.39,574.2c1.85,0,3.41,1.56,3.41,3.41,0,1.99-1.56,3.55-3.41,3.55-1.99,0-3.55-1.56-3.55-3.55,0-1.85,1.56-3.41,3.55-3.41ZM342.39,582.86c1.85,0,3.41,1.56,3.41,3.55s-1.56,3.55-3.41,3.55c-1.99,0-3.55-1.56-3.55-3.55s1.56-3.55,3.55-3.55ZM342.39,591.66c1.85,0,3.41,1.56,3.41,3.55,0,1.85-1.56,3.41-3.41,3.41-1.99,0-3.55-1.56-3.55-3.41,0-1.99,1.56-3.55,3.55-3.55ZM351.05,512.86c1.99,0,3.55,1.56,3.55,3.55,0,1.85-1.56,3.41-3.55,3.41-1.85,0-3.41-1.56-3.41-3.41,0-1.99,1.56-3.55,3.41-3.55ZM351.05,521.66c1.99,0,3.55,1.56,3.55,3.41,0,1.99-1.56,3.55-3.55,3.55-1.85,0-3.41-1.56-3.41-3.55,0-1.85,1.56-3.41,3.41-3.41ZM351.05,530.32c1.99,0,3.55,1.56,3.55,3.55s-1.56,3.55-3.55,3.55c-1.85,0-3.41-1.56-3.41-3.55s1.56-3.55,3.41-3.55ZM351.05,539.13c1.99,0,3.55,1.56,3.55,3.55,0,1.85-1.56,3.41-3.55,3.41-1.85,0-3.41-1.56-3.41-3.41,0-1.99,1.56-3.55,3.41-3.55ZM351.05,547.93c1.99,0,3.55,1.56,3.55,3.41,0,1.99-1.56,3.55-3.55,3.55-1.85,0-3.41-1.56-3.41-3.55,0-1.85,1.56-3.41,3.41-3.41ZM351.05,556.59c1.99,0,3.55,1.56,3.55,3.55s-1.56,3.55-3.55,3.55c-1.85,0-3.41-1.56-3.41-3.55s1.56-3.55,3.41-3.55ZM351.05,565.4c1.99,0,3.55,1.56,3.55,3.55,0,1.85-1.56,3.41-3.55,3.41-1.85,0-3.41-1.56-3.41-3.41,0-1.99,1.56-3.55,3.41-3.55ZM351.05,574.2c1.99,0,3.55,1.56,3.55,3.41,0,1.99-1.56,3.55-3.55,3.55-1.85,0-3.41-1.56-3.41-3.55,0-1.85,1.56-3.41,3.41-3.41ZM351.05,582.86c1.99,0,3.55,1.56,3.55,3.55s-1.56,3.55-3.55,3.55c-1.85,0-3.41-1.56-3.41-3.55s1.56-3.55,3.41-3.55ZM351.05,591.66c1.99,0,3.55,1.56,3.55,3.55,0,1.85-1.56,3.41-3.55,3.41-1.85,0-3.41-1.56-3.41-3.41,0-1.99,1.56-3.55,3.41-3.55ZM351.05,600.47c1.99,0,3.55,1.56,3.55,3.41,0,1.99-1.56,3.55-3.55,3.55-1.85,0-3.41-1.56-3.41-3.55,0-1.85,1.56-3.41,3.41-3.41ZM359.86,512.86c1.99,0,3.55,1.56,3.55,3.55,0,1.85-1.56,3.41-3.55,3.41s-3.55-1.56-3.55-3.41c0-1.99,1.56-3.55,3.55-3.55ZM359.86,521.66c1.99,0,3.55,1.56,3.55,3.41,0,1.99-1.56,3.55-3.55,3.55s-3.55-1.56-3.55-3.55c0-1.85,1.56-3.41,3.55-3.41ZM359.86,530.32c1.99,0,3.55,1.56,3.55,3.55s-1.56,3.55-3.55,3.55-3.55-1.56-3.55-3.55,1.56-3.55,3.55-3.55ZM359.86,539.13c1.99,0,3.55,1.56,3.55,3.55,0,1.85-1.56,3.41-3.55,3.41s-3.55-1.56-3.55-3.41c0-1.99,1.56-3.55,3.55-3.55ZM359.86,547.93c1.99,0,3.55,1.56,3.55,3.41,0,1.99-1.56,3.55-3.55,3.55s-3.55-1.56-3.55-3.55c0-1.85,1.56-3.41,3.55-3.41ZM359.86,556.59c1.99,0,3.55,1.56,3.55,3.55s-1.56,3.55-3.55,3.55-3.55-1.56-3.55-3.55,1.56-3.55,3.55-3.55ZM359.86,565.4c1.99,0,3.55,1.56,3.55,3.55,0,1.85-1.56,3.41-3.55,3.41s-3.55-1.56-3.55-3.41c0-1.99,1.56-3.55,3.55-3.55ZM359.86,574.2c1.99,0,3.55,1.56,3.55,3.41,0,1.99-1.56,3.55-3.55,3.55s-3.55-1.56-3.55-3.55c0-1.85,1.56-3.41,3.55-3.41ZM359.86,582.86c1.99,0,3.55,1.56,3.55,3.55s-1.56,3.55-3.55,3.55-3.55-1.56-3.55-3.55,1.56-3.55,3.55-3.55ZM359.86,591.66c1.99,0,3.55,1.56,3.55,3.55,0,1.85-1.56,3.41-3.55,3.41s-3.55-1.56-3.55-3.41c0-1.99,1.56-3.55,3.55-3.55ZM359.86,600.47c1.99,0,3.55,1.56,3.55,3.41,0,1.99-1.56,3.55-3.55,3.55s-3.55-1.56-3.55-3.55c0-1.85,1.56-3.41,3.55-3.41ZM368.66,512.86c1.85,0,3.41,1.56,3.41,3.55,0,1.85-1.56,3.41-3.41,3.41-1.99,0-3.55-1.56-3.55-3.41,0-1.99,1.56-3.55,3.55-3.55ZM368.66,521.66c1.85,0,3.41,1.56,3.41,3.41,0,1.99-1.56,3.55-3.41,3.55-1.99,0-3.55-1.56-3.55-3.55,0-1.85,1.56-3.41,3.55-3.41ZM368.66,530.32c1.85,0,3.41,1.56,3.41,3.55s-1.56,3.55-3.41,3.55c-1.99,0-3.55-1.56-3.55-3.55s1.56-3.55,3.55-3.55ZM368.66,582.86c1.85,0,3.41,1.56,3.41,3.55s-1.56,3.55-3.41,3.55c-1.99,0-3.55-1.56-3.55-3.55s1.56-3.55,3.55-3.55ZM368.66,591.66c1.85,0,3.41,1.56,3.41,3.55,0,1.85-1.56,3.41-3.41,3.41-1.99,0-3.55-1.56-3.55-3.41,0-1.99,1.56-3.55,3.55-3.55ZM368.66,600.47c1.85,0,3.41,1.56,3.41,3.41,0,1.99-1.56,3.55-3.41,3.55-1.99,0-3.55-1.56-3.55-3.55,0-1.85,1.56-3.41,3.55-3.41ZM377.32,512.86c1.99,0,3.55,1.56,3.55,3.55,0,1.85-1.56,3.41-3.55,3.41-1.85,0-3.41-1.56-3.41-3.41,0-1.99,1.56-3.55,3.41-3.55ZM377.32,521.66c1.99,0,3.55,1.56,3.55,3.41,0,1.99-1.56,3.55-3.55,3.55-1.85,0-3.41-1.56-3.41-3.55,0-1.85,1.56-3.41,3.41-3.41ZM377.32,530.32c1.99,0,3.55,1.56,3.55,3.55s-1.56,3.55-3.55,3.55c-1.85,0-3.41-1.56-3.41-3.55s1.56-3.55,3.41-3.55ZM377.32,539.13c1.99,0,3.55,1.56,3.55,3.55,0,1.85-1.56,3.41-3.55,3.41-1.85,0-3.41-1.56-3.41-3.41,0-1.99,1.56-3.55,3.41-3.55ZM377.32,547.93c1.99,0,3.55,1.56,3.55,3.41,0,1.99-1.56,3.55-3.55,3.55-1.85,0-3.41-1.56-3.41-3.55,0-1.85,1.56-3.41,3.41-3.41ZM377.32,556.59c1.99,0,3.55,1.56,3.55,3.55s-1.56,3.55-3.55,3.55c-1.85,0-3.41-1.56-3.41-3.55s1.56-3.55,3.41-3.55ZM377.32,565.4c1.99,0,3.55,1.56,3.55,3.55,0,1.85-1.56,3.41-3.55,3.41-1.85,0-3.41-1.56-3.41-3.41,0-1.99,1.56-3.55,3.41-3.55ZM377.32,574.2c1.99,0,3.55,1.56,3.55,3.41,0,1.99-1.56,3.55-3.55,3.55-1.85,0-3.41-1.56-3.41-3.55,0-1.85,1.56-3.41,3.41-3.41ZM377.32,582.86c1.99,0,3.55,1.56,3.55,3.55s-1.56,3.55-3.55,3.55c-1.85,0-3.41-1.56-3.41-3.55s1.56-3.55,3.41-3.55ZM377.32,591.66c1.99,0,3.55,1.56,3.55,3.55,0,1.85-1.56,3.41-3.55,3.41-1.85,0-3.41-1.56-3.41-3.41,0-1.99,1.56-3.55,3.41-3.55ZM377.32,600.47c1.99,0,3.55,1.56,3.55,3.41,0,1.99-1.56,3.55-3.55,3.55-1.85,0-3.41-1.56-3.41-3.55,0-1.85,1.56-3.41,3.41-3.41ZM386.13,512.86c1.99,0,3.55,1.56,3.55,3.55,0,1.85-1.56,3.41-3.55,3.41s-3.55-1.56-3.55-3.41c0-1.99,1.56-3.55,3.55-3.55ZM386.13,521.66c1.99,0,3.55,1.56,3.55,3.41,0,1.99-1.56,3.55-3.55,3.55s-3.55-1.56-3.55-3.55c0-1.85,1.56-3.41,3.55-3.41ZM386.13,530.32c1.99,0,3.55,1.56,3.55,3.55s-1.56,3.55-3.55,3.55-3.55-1.56-3.55-3.55,1.56-3.55,3.55-3.55ZM386.13,539.13c1.99,0,3.55,1.56,3.55,3.55,0,1.85-1.56,3.41-3.55,3.41s-3.55-1.56-3.55-3.41c0-1.99,1.56-3.55,3.55-3.55ZM386.13,547.93c1.99,0,3.55,1.56,3.55,3.41,0,1.99-1.56,3.55-3.55,3.55s-3.55-1.56-3.55-3.55c0-1.85,1.56-3.41,3.55-3.41ZM386.13,556.59c1.99,0,3.55,1.56,3.55,3.55s-1.56,3.55-3.55,3.55-3.55-1.56-3.55-3.55,1.56-3.55,3.55-3.55ZM386.13,565.4c1.99,0,3.55,1.56,3.55,3.55,0,1.85-1.56,3.41-3.55,3.41s-3.55-1.56-3.55-3.41c0-1.99,1.56-3.55,3.55-3.55ZM386.13,574.2c1.99,0,3.55,1.56,3.55,3.41,0,1.99-1.56,3.55-3.55,3.55s-3.55-1.56-3.55-3.55c0-1.85,1.56-3.41,3.55-3.41ZM386.13,582.86c1.99,0,3.55,1.56,3.55,3.55s-1.56,3.55-3.55,3.55-3.55-1.56-3.55-3.55,1.56-3.55,3.55-3.55ZM386.13,591.66c1.99,0,3.55,1.56,3.55,3.55,0,1.85-1.56,3.41-3.55,3.41s-3.55-1.56-3.55-3.41c0-1.99,1.56-3.55,3.55-3.55ZM386.13,600.47c1.99,0,3.55,1.56,3.55,3.41,0,1.99-1.56,3.55-3.55,3.55s-3.55-1.56-3.55-3.55c0-1.85,1.56-3.41,3.55-3.41ZM394.93,521.66c1.85,0,3.41,1.56,3.41,3.41,0,1.99-1.56,3.55-3.41,3.55-1.99,0-3.55-1.56-3.55-3.55,0-1.85,1.56-3.41,3.55-3.41ZM394.93,530.32c1.85,0,3.41,1.56,3.41,3.55s-1.56,3.55-3.41,3.55c-1.99,0-3.55-1.56-3.55-3.55s1.56-3.55,3.55-3.55ZM394.93,539.13c1.85,0,3.41,1.56,3.41,3.55,0,1.85-1.56,3.41-3.41,3.41-1.99,0-3.55-1.56-3.55-3.41,0-1.99,1.56-3.55,3.55-3.55ZM394.93,547.93c1.85,0,3.41,1.56,3.41,3.41,0,1.99-1.56,3.55-3.41,3.55-1.99,0-3.55-1.56-3.55-3.55,0-1.85,1.56-3.41,3.55-3.41ZM394.93,556.59c1.85,0,3.41,1.56,3.41,3.55s-1.56,3.55-3.41,3.55c-1.99,0-3.55-1.56-3.55-3.55s1.56-3.55,3.55-3.55ZM394.93,565.4c1.85,0,3.41,1.56,3.41,3.55,0,1.85-1.56,3.41-3.41,3.41-1.99,0-3.55-1.56-3.55-3.41,0-1.99,1.56-3.55,3.55-3.55ZM394.93,574.2c1.85,0,3.41,1.56,3.41,3.41,0,1.99-1.56,3.55-3.41,3.55-1.99,0-3.55-1.56-3.55-3.55,0-1.85,1.56-3.41,3.55-3.41ZM394.93,582.86c1.85,0,3.41,1.56,3.41,3.55s-1.56,3.55-3.41,3.55c-1.99,0-3.55-1.56-3.55-3.55s1.56-3.55,3.55-3.55ZM394.93,591.66c1.85,0,3.41,1.56,3.41,3.55,0,1.85-1.56,3.41-3.41,3.41-1.99,0-3.55-1.56-3.55-3.41,0-1.99,1.56-3.55,3.55-3.55Z"/>
    <path class="cls-6" d="M413.25,521.66c1.85,0,3.41,1.56,3.41,3.41,0,1.99-1.56,3.55-3.41,3.55-1.99,0-3.55-1.56-3.55-3.55,0-1.85,1.56-3.41,3.55-3.41ZM413.25,530.32c1.85,0,3.41,1.56,3.41,3.55s-1.56,3.55-3.41,3.55c-1.99,0-3.55-1.56-3.55-3.55s1.56-3.55,3.55-3.55ZM413.25,539.13c1.85,0,3.41,1.56,3.41,3.55,0,1.85-1.56,3.41-3.41,3.41-1.99,0-3.55-1.56-3.55-3.41,0-1.99,1.56-3.55,3.55-3.55ZM413.25,547.93c1.85,0,3.41,1.56,3.41,3.41,0,1.99-1.56,3.55-3.41,3.55-1.99,0-3.55-1.56-3.55-3.55,0-1.85,1.56-3.41,3.55-3.41ZM413.25,556.59c1.85,0,3.41,1.56,3.41,3.55s-1.56,3.55-3.41,3.55c-1.99,0-3.55-1.56-3.55-3.55s1.56-3.55,3.55-3.55ZM413.25,565.4c1.85,0,3.41,1.56,3.41,3.55,0,1.85-1.56,3.41-3.41,3.41-1.99,0-3.55-1.56-3.55-3.41,0-1.99,1.56-3.55,3.55-3.55ZM413.25,574.2c1.85,0,3.41,1.56,3.41,3.41,0,1.99-1.56,3.55-3.41,3.55-1.99,0-3.55-1.56-3.55-3.55,0-1.85,1.56-3.41,3.55-3.41ZM413.25,582.86c1.85,0,3.41,1.56,3.41,3.55s-1.56,3.55-3.41,3.55c-1.99,0-3.55-1.56-3.55-3.55s1.56-3.55,3.55-3.55ZM413.25,591.66c1.85,0,3.41,1.56,3.41,3.55,0,1.85-1.56,3.41-3.41,3.41-1.99,0-3.55-1.56-3.55-3.41,0-1.99,1.56-3.55,3.55-3.55ZM421.91,512.86c1.99,0,3.55,1.56,3.55,3.55,0,1.85-1.56,3.41-3.55,3.41-1.85,0-3.41-1.56-3.41-3.41,0-1.99,1.56-3.55,3.41-3.55ZM421.91,521.66c1.99,0,3.55,1.56,3.55,3.41,0,1.99-1.56,3.55-3.55,3.55-1.85,0-3.41-1.56-3.41-3.55,0-1.85,1.56-3.41,3.41-3.41ZM421.91,530.32c1.99,0,3.55,1.56,3.55,3.55s-1.56,3.55-3.55,3.55c-1.85,0-3.41-1.56-3.41-3.55s1.56-3.55,3.41-3.55ZM421.91,539.13c1.99,0,3.55,1.56,3.55,3.55,0,1.85-1.56,3.41-3.55,3.41-1.85,0-3.41-1.56-3.41-3.41,0-1.99,1.56-3.55,3.41-3.55ZM421.91,547.93c1.99,0,3.55,1.56,3.55,3.41,0,1.99-1.56,3.55-3.55,3.55-1.85,0-3.41-1.56-3.41-3.55,0-1.85,1.56-3.41,3.41-3.41ZM421.91,556.59c1.99,0,3.55,1.56,3.55,3.55s-1.56,3.55-3.55,3.55c-1.85,0-3.41-1.56-3.41-3.55s1.56-3.55,3.41-3.55ZM421.91,565.4c1.99,0,3.55,1.56,3.55,3.55,0,1.85-1.56,3.41-3.55,3.41-1.85,0-3.41-1.56-3.41-3.41,0-1.99,1.56-3.55,3.41-3.55ZM421.91,574.2c1.99,0,3.55,1.56,3.55,3.41,0,1.99-1.56,3.55-3.55,3.55-1.85,0-3.41-1.56-3.41-3.55,0-1.85,1.56-3.41,3.41-3.41ZM421.91,582.86c1.99,0,3.55,1.56,3.55,3.55s-1.56,3.55-3.55,3.55c-1.85,0-3.41-1.56-3.41-3.55s1.56-3.55,3.41-3.55ZM421.91,591.66c1.99,0,3.55,1.56,3.55,3.55,0,1.85-1.56,3.41-3.55,3.41-1.85,0-3.41-1.56-3.41-3.41,0-1.99,1.56-3.55,3.41-3.55ZM421.91,600.47c1.99,0,3.55,1.56,3.55,3.41,0,1.99-1.56,3.55-3.55,3.55-1.85,0-3.41-1.56-3.41-3.55,0-1.85,1.56-3.41,3.41-3.41ZM430.71,512.86c1.99,0,3.55,1.56,3.55,3.55,0,1.85-1.56,3.41-3.55,3.41s-3.55-1.56-3.55-3.41c0-1.99,1.56-3.55,3.55-3.55ZM430.71,521.66c1.99,0,3.55,1.56,3.55,3.41,0,1.99-1.56,3.55-3.55,3.55s-3.55-1.56-3.55-3.55c0-1.85,1.56-3.41,3.55-3.41ZM430.71,530.32c1.99,0,3.55,1.56,3.55,3.55s-1.56,3.55-3.55,3.55-3.55-1.56-3.55-3.55,1.56-3.55,3.55-3.55ZM430.71,539.13c1.99,0,3.55,1.56,3.55,3.55,0,1.85-1.56,3.41-3.55,3.41s-3.55-1.56-3.55-3.41c0-1.99,1.56-3.55,3.55-3.55ZM430.71,547.93c1.99,0,3.55,1.56,3.55,3.41,0,1.99-1.56,3.55-3.55,3.55s-3.55-1.56-3.55-3.55c0-1.85,1.56-3.41,3.55-3.41ZM430.71,556.59c1.99,0,3.55,1.56,3.55,3.55s-1.56,3.55-3.55,3.55-3.55-1.56-3.55-3.55,1.56-3.55,3.55-3.55ZM430.71,565.4c1.99,0,3.55,1.56,3.55,3.55,0,1.85-1.56,3.41-3.55,3.41s-3.55-1.56-3.55-3.41c0-1.99,1.56-3.55,3.55-3.55ZM430.71,574.2c1.99,0,3.55,1.56,3.55,3.41,0,1.99-1.56,3.55-3.55,3.55s-3.55-1.56-3.55-3.55c0-1.85,1.56-3.41,3.55-3.41ZM430.71,582.86c1.99,0,3.55,1.56,3.55,3.55s-1.56,3.55-3.55,3.55-3.55-1.56-3.55-3.55,1.56-3.55,3.55-3.55ZM430.71,591.66c1.99,0,3.55,1.56,3.55,3.55,0,1.85-1.56,3.41-3.55,3.41s-3.55-1.56-3.55-3.41c0-1.99,1.56-3.55,3.55-3.55ZM430.71,600.47c1.99,0,3.55,1.56,3.55,3.41,0,1.99-1.56,3.55-3.55,3.55s-3.55-1.56-3.55-3.55c0-1.85,1.56-3.41,3.55-3.41ZM439.52,512.86c1.85,0,3.41,1.56,3.41,3.55,0,1.85-1.56,3.41-3.41,3.41-1.99,0-3.55-1.56-3.55-3.41,0-1.99,1.56-3.55,3.55-3.55ZM439.52,521.66c1.85,0,3.41,1.56,3.41,3.41,0,1.99-1.56,3.55-3.41,3.55-1.99,0-3.55-1.56-3.55-3.55,0-1.85,1.56-3.41,3.55-3.41ZM439.52,530.32c1.85,0,3.41,1.56,3.41,3.55s-1.56,3.55-3.41,3.55c-1.99,0-3.55-1.56-3.55-3.55s1.56-3.55,3.55-3.55ZM439.52,582.86c1.85,0,3.41,1.56,3.41,3.55s-1.56,3.55-3.41,3.55c-1.99,0-3.55-1.56-3.55-3.55s1.56-3.55,3.55-3.55ZM439.52,591.66c1.85,0,3.41,1.56,3.41,3.55,0,1.85-1.56,3.41-3.41,3.41-1.99,0-3.55-1.56-3.55-3.41,0-1.99,1.56-3.55,3.55-3.55ZM439.52,600.47c1.85,0,3.41,1.56,3.41,3.41,0,1.99-1.56,3.55-3.41,3.55-1.99,0-3.55-1.56-3.55-3.55,0-1.85,1.56-3.41,3.55-3.41ZM448.18,512.86c1.99,0,3.55,1.56,3.55,3.55,0,1.85-1.56,3.41-3.55,3.41-1.85,0-3.41-1.56-3.41-3.41,0-1.99,1.56-3.55,3.41-3.55ZM448.18,521.66c1.99,0,3.55,1.56,3.55,3.41,0,1.99-1.56,3.55-3.55,3.55-1.85,0-3.41-1.56-3.41-3.55,0-1.85,1.56-3.41,3.41-3.41ZM448.18,530.32c1.99,0,3.55,1.56,3.55,3.55s-1.56,3.55-3.55,3.55c-1.85,0-3.41-1.56-3.41-3.55s1.56-3.55,3.41-3.55ZM448.18,539.13c1.99,0,3.55,1.56,3.55,3.55,0,1.85-1.56,3.41-3.55,3.41-1.85,0-3.41-1.56-3.41-3.41,0-1.99,1.56-3.55,3.41-3.55ZM448.18,547.93c1.99,0,3.55,1.56,3.55,3.41,0,1.99-1.56,3.55-3.55,3.55-1.85,0-3.41-1.56-3.41-3.55,0-1.85,1.56-3.41,3.41-3.41ZM448.18,556.59c1.99,0,3.55,1.56,3.55,3.55s-1.56,3.55-3.55,3.55c-1.85,0-3.41-1.56-3.41-3.55s1.56-3.55,3.41-3.55ZM448.18,565.4c1.99,0,3.55,1.56,3.55,3.55,0,1.85-1.56,3.41-3.55,3.41-1.85,0-3.41-1.56-3.41-3.41,0-1.99,1.56-3.55,3.41-3.55ZM448.18,574.2c1.99,0,3.55,1.56,3.55,3.41,0,1.99-1.56,3.55-3.55,3.55-1.85,0-3.41-1.56-3.41-3.55,0-1.85,1.56-3.41,3.41-3.41ZM448.18,582.86c1.99,0,3.55,1.56,3.55,3.55s-1.56,3.55-3.55,3.55c-1.85,0-3.41-1.56-3.41-3.55s1.56-3.55,3.41-3.55ZM448.18,591.66c1.99,0,3.55,1.56,3.55,3.55,0,1.85-1.56,3.41-3.55,3.41-1.85,0-3.41-1.56-3.41-3.41,0-1.99,1.56-3.55,3.41-3.55ZM448.18,600.47c1.99,0,3.55,1.56,3.55,3.41,0,1.99-1.56,3.55-3.55,3.55-1.85,0-3.41-1.56-3.41-3.55,0-1.85,1.56-3.41,3.41-3.41ZM456.98,512.86c1.99,0,3.55,1.56,3.55,3.55,0,1.85-1.56,3.41-3.55,3.41s-3.55-1.56-3.55-3.41c0-1.99,1.56-3.55,3.55-3.55ZM456.98,521.66c1.99,0,3.55,1.56,3.55,3.41,0,1.99-1.56,3.55-3.55,3.55s-3.55-1.56-3.55-3.55c0-1.85,1.56-3.41,3.55-3.41ZM456.98,530.32c1.99,0,3.55,1.56,3.55,3.55s-1.56,3.55-3.55,3.55-3.55-1.56-3.55-3.55,1.56-3.55,3.55-3.55ZM456.98,539.13c1.99,0,3.55,1.56,3.55,3.55,0,1.85-1.56,3.41-3.55,3.41s-3.55-1.56-3.55-3.41c0-1.99,1.56-3.55,3.55-3.55ZM456.98,547.93c1.99,0,3.55,1.56,3.55,3.41,0,1.99-1.56,3.55-3.55,3.55s-3.55-1.56-3.55-3.55c0-1.85,1.56-3.41,3.55-3.41ZM456.98,556.59c1.99,0,3.55,1.56,3.55,3.55s-1.56,3.55-3.55,3.55-3.55-1.56-3.55-3.55,1.56-3.55,3.55-3.55ZM456.98,565.4c1.99,0,3.55,1.56,3.55,3.55,0,1.85-1.56,3.41-3.55,3.41s-3.55-1.56-3.55-3.41c0-1.99,1.56-3.55,3.55-3.55ZM456.98,574.2c1.99,0,3.55,1.56,3.55,3.41,0,1.99-1.56,3.55-3.55,3.55s-3.55-1.56-3.55-3.55c0-1.85,1.56-3.41,3.55-3.41ZM456.98,582.86c1.99,0,3.55,1.56,3.55,3.55s-1.56,3.55-3.55,3.55-3.55-1.56-3.55-3.55,1.56-3.55,3.55-3.55ZM456.98,591.66c1.99,0,3.55,1.56,3.55,3.55,0,1.85-1.56,3.41-3.55,3.41s-3.55-1.56-3.55-3.41c0-1.99,1.56-3.55,3.55-3.55ZM456.98,600.47c1.99,0,3.55,1.56,3.55,3.41,0,1.99-1.56,3.55-3.55,3.55s-3.55-1.56-3.55-3.55c0-1.85,1.56-3.41,3.55-3.41ZM465.79,521.66c1.85,0,3.41,1.56,3.41,3.41,0,1.99-1.56,3.55-3.41,3.55-1.99,0-3.55-1.56-3.55-3.55,0-1.85,1.56-3.41,3.55-3.41ZM465.79,530.32c1.85,0,3.41,1.56,3.41,3.55s-1.56,3.55-3.41,3.55c-1.99,0-3.55-1.56-3.55-3.55s1.56-3.55,3.55-3.55ZM465.79,539.13c1.85,0,3.41,1.56,3.41,3.55,0,1.85-1.56,3.41-3.41,3.41-1.99,0-3.55-1.56-3.55-3.41,0-1.99,1.56-3.55,3.55-3.55ZM465.79,547.93c1.85,0,3.41,1.56,3.41,3.41,0,1.99-1.56,3.55-3.41,3.55-1.99,0-3.55-1.56-3.55-3.55,0-1.85,1.56-3.41,3.55-3.41ZM465.79,556.59c1.85,0,3.41,1.56,3.41,3.55s-1.56,3.55-3.41,3.55c-1.99,0-3.55-1.56-3.55-3.55s1.56-3.55,3.55-3.55ZM465.79,565.4c1.85,0,3.41,1.56,3.41,3.55,0,1.85-1.56,3.41-3.41,3.41-1.99,0-3.55-1.56-3.55-3.41,0-1.99,1.56-3.55,3.55-3.55ZM465.79,574.2c1.85,0,3.41,1.56,3.41,3.41,0,1.99-1.56,3.55-3.41,3.55-1.99,0-3.55-1.56-3.55-3.55,0-1.85,1.56-3.41,3.55-3.41ZM465.79,582.86c1.85,0,3.41,1.56,3.41,3.55s-1.56,3.55-3.41,3.55c-1.99,0-3.55-1.56-3.55-3.55s1.56-3.55,3.55-3.55ZM465.79,591.66c1.85,0,3.41,1.56,3.41,3.55,0,1.85-1.56,3.41-3.41,3.41-1.99,0-3.55-1.56-3.55-3.41,0-1.99,1.56-3.55,3.55-3.55Z"/>
    <path class="cls-6" d="M484.1,530.32c1.85,0,3.41,1.56,3.41,3.55s-1.56,3.55-3.41,3.55c-1.99,0-3.55-1.56-3.55-3.55s1.56-3.55,3.55-3.55ZM484.1,539.13c1.85,0,3.41,1.56,3.41,3.55,0,1.85-1.56,3.41-3.41,3.41-1.99,0-3.55-1.56-3.55-3.41,0-1.99,1.56-3.55,3.55-3.55ZM484.1,591.66c1.85,0,3.41,1.56,3.41,3.55,0,1.85-1.56,3.41-3.41,3.41-1.99,0-3.55-1.56-3.55-3.41,0-1.99,1.56-3.55,3.55-3.55ZM484.1,600.47c1.85,0,3.41,1.56,3.41,3.41,0,1.99-1.56,3.55-3.41,3.55-1.99,0-3.55-1.56-3.55-3.55,0-1.85,1.56-3.41,3.55-3.41ZM492.77,530.32c1.99,0,3.55,1.56,3.55,3.55s-1.56,3.55-3.55,3.55c-1.85,0-3.41-1.56-3.41-3.55s1.56-3.55,3.41-3.55ZM492.77,539.13c1.99,0,3.55,1.56,3.55,3.55,0,1.85-1.56,3.41-3.55,3.41-1.85,0-3.41-1.56-3.41-3.41,0-1.99,1.56-3.55,3.41-3.55ZM492.77,591.66c1.99,0,3.55,1.56,3.55,3.55,0,1.85-1.56,3.41-3.55,3.41-1.85,0-3.41-1.56-3.41-3.41,0-1.99,1.56-3.55,3.41-3.55ZM492.77,600.47c1.99,0,3.55,1.56,3.55,3.41,0,1.99-1.56,3.55-3.55,3.55-1.85,0-3.41-1.56-3.41-3.55,0-1.85,1.56-3.41,3.41-3.41Z"/>
    <path class="cls-6" d="M511.23,521.66c1.85,0,3.41,1.56,3.41,3.41,0,1.99-1.56,3.55-3.41,3.55-1.99,0-3.55-1.56-3.55-3.55,0-1.85,1.56-3.41,3.55-3.41ZM511.23,530.32c1.85,0,3.41,1.56,3.41,3.55s-1.56,3.55-3.41,3.55c-1.99,0-3.55-1.56-3.55-3.55s1.56-3.55,3.55-3.55ZM511.23,539.13c1.85,0,3.41,1.56,3.41,3.55,0,1.85-1.56,3.41-3.41,3.41-1.99,0-3.55-1.56-3.55-3.41,0-1.99,1.56-3.55,3.55-3.55ZM511.23,547.93c1.85,0,3.41,1.56,3.41,3.41,0,1.99-1.56,3.55-3.41,3.55-1.99,0-3.55-1.56-3.55-3.55,0-1.85,1.56-3.41,3.55-3.41ZM511.23,556.59c1.85,0,3.41,1.56,3.41,3.55s-1.56,3.55-3.41,3.55c-1.99,0-3.55-1.56-3.55-3.55s1.56-3.55,3.55-3.55ZM511.23,565.4c1.85,0,3.41,1.56,3.41,3.55,0,1.85-1.56,3.41-3.41,3.41-1.99,0-3.55-1.56-3.55-3.41,0-1.99,1.56-3.55,3.55-3.55ZM511.23,574.2c1.85,0,3.41,1.56,3.41,3.41,0,1.99-1.56,3.55-3.41,3.55-1.99,0-3.55-1.56-3.55-3.55,0-1.85,1.56-3.41,3.55-3.41ZM511.23,582.86c1.85,0,3.41,1.56,3.41,3.55s-1.56,3.55-3.41,3.55c-1.99,0-3.55-1.56-3.55-3.55s1.56-3.55,3.55-3.55ZM511.23,591.66c1.85,0,3.41,1.56,3.41,3.55,0,1.85-1.56,3.41-3.41,3.41-1.99,0-3.55-1.56-3.55-3.41,0-1.99,1.56-3.55,3.55-3.55ZM519.89,512.86c1.99,0,3.55,1.56,3.55,3.55,0,1.85-1.56,3.41-3.55,3.41-1.85,0-3.41-1.56-3.41-3.41,0-1.99,1.56-3.55,3.41-3.55ZM519.89,521.66c1.99,0,3.55,1.56,3.55,3.41,0,1.99-1.56,3.55-3.55,3.55-1.85,0-3.41-1.56-3.41-3.55,0-1.85,1.56-3.41,3.41-3.41ZM519.89,530.32c1.99,0,3.55,1.56,3.55,3.55s-1.56,3.55-3.55,3.55c-1.85,0-3.41-1.56-3.41-3.55s1.56-3.55,3.41-3.55ZM519.89,539.13c1.99,0,3.55,1.56,3.55,3.55,0,1.85-1.56,3.41-3.55,3.41-1.85,0-3.41-1.56-3.41-3.41,0-1.99,1.56-3.55,3.41-3.55ZM519.89,547.93c1.99,0,3.55,1.56,3.55,3.41,0,1.99-1.56,3.55-3.55,3.55-1.85,0-3.41-1.56-3.41-3.55,0-1.85,1.56-3.41,3.41-3.41ZM519.89,556.59c1.99,0,3.55,1.56,3.55,3.55s-1.56,3.55-3.55,3.55c-1.85,0-3.41-1.56-3.41-3.55s1.56-3.55,3.41-3.55ZM519.89,565.4c1.99,0,3.55,1.56,3.55,3.55,0,1.85-1.56,3.41-3.55,3.41-1.85,0-3.41-1.56-3.41-3.41,0-1.99,1.56-3.55,3.41-3.55ZM519.89,574.2c1.99,0,3.55,1.56,3.55,3.41,0,1.99-1.56,3.55-3.55,3.55-1.85,0-3.41-1.56-3.41-3.55,0-1.85,1.56-3.41,3.41-3.41ZM519.89,582.86c1.99,0,3.55,1.56,3.55,3.55s-1.56,3.55-3.55,3.55c-1.85,0-3.41-1.56-3.41-3.55s1.56-3.55,3.41-3.55ZM519.89,591.66c1.99,0,3.55,1.56,3.55,3.55,0,1.85-1.56,3.41-3.55,3.41-1.85,0-3.41-1.56-3.41-3.41,0-1.99,1.56-3.55,3.41-3.55ZM519.89,600.47c1.99,0,3.55,1.56,3.55,3.41,0,1.99-1.56,3.55-3.55,3.55-1.85,0-3.41-1.56-3.41-3.55,0-1.85,1.56-3.41,3.41-3.41ZM528.69,512.86c1.99,0,3.55,1.56,3.55,3.55,0,1.85-1.56,3.41-3.55,3.41s-3.55-1.56-3.55-3.41c0-1.99,1.56-3.55,3.55-3.55ZM528.69,521.66c1.99,0,3.55,1.56,3.55,3.41,0,1.99-1.56,3.55-3.55,3.55s-3.55-1.56-3.55-3.55c0-1.85,1.56-3.41,3.55-3.41ZM528.69,530.32c1.99,0,3.55,1.56,3.55,3.55s-1.56,3.55-3.55,3.55-3.55-1.56-3.55-3.55,1.56-3.55,3.55-3.55ZM528.69,539.13c1.99,0,3.55,1.56,3.55,3.55,0,1.85-1.56,3.41-3.55,3.41s-3.55-1.56-3.55-3.41c0-1.99,1.56-3.55,3.55-3.55ZM528.69,547.93c1.99,0,3.55,1.56,3.55,3.41,0,1.99-1.56,3.55-3.55,3.55s-3.55-1.56-3.55-3.55c0-1.85,1.56-3.41,3.55-3.41ZM528.69,556.59c1.99,0,3.55,1.56,3.55,3.55s-1.56,3.55-3.55,3.55-3.55-1.56-3.55-3.55,1.56-3.55,3.55-3.55ZM528.69,565.4c1.99,0,3.55,1.56,3.55,3.55,0,1.85-1.56,3.41-3.55,3.41s-3.55-1.56-3.55-3.41c0-1.99,1.56-3.55,3.55-3.55ZM528.69,574.2c1.99,0,3.55,1.56,3.55,3.41,0,1.99-1.56,3.55-3.55,3.55s-3.55-1.56-3.55-3.55c0-1.85,1.56-3.41,3.55-3.41ZM528.69,582.86c1.99,0,3.55,1.56,3.55,3.55s-1.56,3.55-3.55,3.55-3.55-1.56-3.55-3.55,1.56-3.55,3.55-3.55ZM528.69,591.66c1.99,0,3.55,1.56,3.55,3.55,0,1.85-1.56,3.41-3.55,3.41s-3.55-1.56-3.55-3.41c0-1.99,1.56-3.55,3.55-3.55ZM528.69,600.47c1.99,0,3.55,1.56,3.55,3.41,0,1.99-1.56,3.55-3.55,3.55s-3.55-1.56-3.55-3.55c0-1.85,1.56-3.41,3.55-3.41ZM537.49,512.86c1.85,0,3.41,1.56,3.41,3.55,0,1.85-1.56,3.41-3.41,3.41-1.99,0-3.55-1.56-3.55-3.41,0-1.99,1.56-3.55,3.55-3.55ZM537.49,521.66c1.85,0,3.41,1.56,3.41,3.41,0,1.99-1.56,3.55-3.41,3.55-1.99,0-3.55-1.56-3.55-3.55,0-1.85,1.56-3.41,3.55-3.41ZM537.49,530.32c1.85,0,3.41,1.56,3.41,3.55s-1.56,3.55-3.41,3.55c-1.99,0-3.55-1.56-3.55-3.55s1.56-3.55,3.55-3.55ZM537.49,582.86c1.85,0,3.41,1.56,3.41,3.55s-1.56,3.55-3.41,3.55c-1.99,0-3.55-1.56-3.55-3.55s1.56-3.55,3.55-3.55ZM537.49,591.66c1.85,0,3.41,1.56,3.41,3.55,0,1.85-1.56,3.41-3.41,3.41-1.99,0-3.55-1.56-3.55-3.41,0-1.99,1.56-3.55,3.55-3.55ZM537.49,600.47c1.85,0,3.41,1.56,3.41,3.41,0,1.99-1.56,3.55-3.41,3.55-1.99,0-3.55-1.56-3.55-3.55,0-1.85,1.56-3.41,3.55-3.41ZM546.16,512.86c1.99,0,3.55,1.56,3.55,3.55,0,1.85-1.56,3.41-3.55,3.41-1.85,0-3.41-1.56-3.41-3.41,0-1.99,1.56-3.55,3.41-3.55ZM546.16,521.66c1.99,0,3.55,1.56,3.55,3.41,0,1.99-1.56,3.55-3.55,3.55-1.85,0-3.41-1.56-3.41-3.55,0-1.85,1.56-3.41,3.41-3.41ZM546.16,530.32c1.99,0,3.55,1.56,3.55,3.55s-1.56,3.55-3.55,3.55c-1.85,0-3.41-1.56-3.41-3.55s1.56-3.55,3.41-3.55ZM546.16,539.13c1.99,0,3.55,1.56,3.55,3.55,0,1.85-1.56,3.41-3.55,3.41-1.85,0-3.41-1.56-3.41-3.41,0-1.99,1.56-3.55,3.41-3.55ZM546.16,547.93c1.99,0,3.55,1.56,3.55,3.41,0,1.99-1.56,3.55-3.55,3.55-1.85,0-3.41-1.56-3.41-3.55,0-1.85,1.56-3.41,3.41-3.41ZM546.16,556.59c1.99,0,3.55,1.56,3.55,3.55s-1.56,3.55-3.55,3.55c-1.85,0-3.41-1.56-3.41-3.55s1.56-3.55,3.41-3.55ZM546.16,565.4c1.99,0,3.55,1.56,3.55,3.55,0,1.85-1.56,3.41-3.55,3.41-1.85,0-3.41-1.56-3.41-3.41,0-1.99,1.56-3.55,3.41-3.55ZM546.16,574.2c1.99,0,3.55,1.56,3.55,3.41,0,1.99-1.56,3.55-3.55,3.55-1.85,0-3.41-1.56-3.41-3.55,0-1.85,1.56-3.41,3.41-3.41ZM546.16,582.86c1.99,0,3.55,1.56,3.55,3.55s-1.56,3.55-3.55,3.55c-1.85,0-3.41-1.56-3.41-3.55s1.56-3.55,3.41-3.55ZM546.16,591.66c1.99,0,3.55,1.56,3.55,3.55,0,1.85-1.56,3.41-3.55,3.41-1.85,0-3.41-1.56-3.41-3.41,0-1.99,1.56-3.55,3.41-3.55ZM546.16,600.47c1.99,0,3.55,1.56,3.55,3.41,0,1.99-1.56,3.55-3.55,3.55-1.85,0-3.41-1.56-3.41-3.55,0-1.85,1.56-3.41,3.41-3.41ZM554.96,512.86c1.99,0,3.55,1.56,3.55,3.55,0,1.85-1.56,3.41-3.55,3.41s-3.55-1.56-3.55-3.41c0-1.99,1.56-3.55,3.55-3.55ZM554.96,521.66c1.99,0,3.55,1.56,3.55,3.41,0,1.99-1.56,3.55-3.55,3.55s-3.55-1.56-3.55-3.55c0-1.85,1.56-3.41,3.55-3.41ZM554.96,530.32c1.99,0,3.55,1.56,3.55,3.55s-1.56,3.55-3.55,3.55-3.55-1.56-3.55-3.55,1.56-3.55,3.55-3.55ZM554.96,539.13c1.99,0,3.55,1.56,3.55,3.55,0,1.85-1.56,3.41-3.55,3.41s-3.55-1.56-3.55-3.41c0-1.99,1.56-3.55,3.55-3.55ZM554.96,547.93c1.99,0,3.55,1.56,3.55,3.41,0,1.99-1.56,3.55-3.55,3.55s-3.55-1.56-3.55-3.55c0-1.85,1.56-3.41,3.55-3.41ZM554.96,556.59c1.99,0,3.55,1.56,3.55,3.55s-1.56,3.55-3.55,3.55-3.55-1.56-3.55-3.55,1.56-3.55,3.55-3.55ZM554.96,565.4c1.99,0,3.55,1.56,3.55,3.55,0,1.85-1.56,3.41-3.55,3.41s-3.55-1.56-3.55-3.41c0-1.99,1.56-3.55,3.55-3.55ZM554.96,574.2c1.99,0,3.55,1.56,3.55,3.41,0,1.99-1.56,3.55-3.55,3.55s-3.55-1.56-3.55-3.55c0-1.85,1.56-3.41,3.55-3.41ZM554.96,582.86c1.99,0,3.55,1.56,3.55,3.55s-1.56,3.55-3.55,3.55-3.55-1.56-3.55-3.55,1.56-3.55,3.55-3.55ZM554.96,591.66c1.99,0,3.55,1.56,3.55,3.55,0,1.85-1.56,3.41-3.55,3.41s-3.55-1.56-3.55-3.41c0-1.99,1.56-3.55,3.55-3.55ZM554.96,600.47c1.99,0,3.55,1.56,3.55,3.41,0,1.99-1.56,3.55-3.55,3.55s-3.55-1.56-3.55-3.55c0-1.85,1.56-3.41,3.55-3.41ZM563.76,521.66c1.85,0,3.41,1.56,3.41,3.41,0,1.99-1.56,3.55-3.41,3.55-1.99,0-3.55-1.56-3.55-3.55,0-1.85,1.56-3.41,3.55-3.41ZM563.76,530.32c1.85,0,3.41,1.56,3.41,3.55s-1.56,3.55-3.41,3.55c-1.99,0-3.55-1.56-3.55-3.55s1.56-3.55,3.55-3.55ZM563.76,539.13c1.85,0,3.41,1.56,3.41,3.55,0,1.85-1.56,3.41-3.41,3.41-1.99,0-3.55-1.56-3.55-3.41,0-1.99,1.56-3.55,3.55-3.55ZM563.76,547.93c1.85,0,3.41,1.56,3.41,3.41,0,1.99-1.56,3.55-3.41,3.55-1.99,0-3.55-1.56-3.55-3.55,0-1.85,1.56-3.41,3.55-3.41ZM563.76,556.59c1.85,0,3.41,1.56,3.41,3.55s-1.56,3.55-3.41,3.55c-1.99,0-3.55-1.56-3.55-3.55s1.56-3.55,3.55-3.55ZM563.76,565.4c1.85,0,3.41,1.56,3.41,3.55,0,1.85-1.56,3.41-3.41,3.41-1.99,0-3.55-1.56-3.55-3.41,0-1.99,1.56-3.55,3.55-3.55ZM563.76,574.2c1.85,0,3.41,1.56,3.41,3.41,0,1.99-1.56,3.55-3.41,3.55-1.99,0-3.55-1.56-3.55-3.55,0-1.85,1.56-3.41,3.55-3.41ZM563.76,582.86c1.85,0,3.41,1.56,3.41,3.55s-1.56,3.55-3.41,3.55c-1.99,0-3.55-1.56-3.55-3.55s1.56-3.55,3.55-3.55ZM563.76,591.66c1.85,0,3.41,1.56,3.41,3.55,0,1.85-1.56,3.41-3.41,3.41-1.99,0-3.55-1.56-3.55-3.41,0-1.99,1.56-3.55,3.55-3.55Z"/>
    <path class="cls-6" d="M582.08,521.66c1.85,0,3.41,1.56,3.41,3.41,0,1.99-1.56,3.55-3.41,3.55-1.99,0-3.55-1.56-3.55-3.55,0-1.85,1.56-3.41,3.55-3.41ZM582.08,530.32c1.85,0,3.41,1.56,3.41,3.55s-1.56,3.55-3.41,3.55c-1.99,0-3.55-1.56-3.55-3.55s1.56-3.55,3.55-3.55ZM582.08,539.13c1.85,0,3.41,1.56,3.41,3.55,0,1.85-1.56,3.41-3.41,3.41-1.99,0-3.55-1.56-3.55-3.41,0-1.99,1.56-3.55,3.55-3.55ZM582.08,547.93c1.85,0,3.41,1.56,3.41,3.41,0,1.99-1.56,3.55-3.41,3.55-1.99,0-3.55-1.56-3.55-3.55,0-1.85,1.56-3.41,3.55-3.41ZM582.08,556.59c1.85,0,3.41,1.56,3.41,3.55s-1.56,3.55-3.41,3.55c-1.99,0-3.55-1.56-3.55-3.55s1.56-3.55,3.55-3.55ZM582.08,565.4c1.85,0,3.41,1.56,3.41,3.55,0,1.85-1.56,3.41-3.41,3.41-1.99,0-3.55-1.56-3.55-3.41,0-1.99,1.56-3.55,3.55-3.55ZM582.08,574.2c1.85,0,3.41,1.56,3.41,3.41,0,1.99-1.56,3.55-3.41,3.55-1.99,0-3.55-1.56-3.55-3.55,0-1.85,1.56-3.41,3.55-3.41ZM582.08,582.86c1.85,0,3.41,1.56,3.41,3.55s-1.56,3.55-3.41,3.55c-1.99,0-3.55-1.56-3.55-3.55s1.56-3.55,3.55-3.55ZM582.08,591.66c1.85,0,3.41,1.56,3.41,3.55,0,1.85-1.56,3.41-3.41,3.41-1.99,0-3.55-1.56-3.55-3.41,0-1.99,1.56-3.55,3.55-3.55ZM590.74,512.86c1.99,0,3.55,1.56,3.55,3.55,0,1.85-1.56,3.41-3.55,3.41-1.85,0-3.41-1.56-3.41-3.41,0-1.99,1.56-3.55,3.41-3.55ZM590.74,521.66c1.99,0,3.55,1.56,3.55,3.41,0,1.99-1.56,3.55-3.55,3.55-1.85,0-3.41-1.56-3.41-3.55,0-1.85,1.56-3.41,3.41-3.41ZM590.74,530.32c1.99,0,3.55,1.56,3.55,3.55s-1.56,3.55-3.55,3.55c-1.85,0-3.41-1.56-3.41-3.55s1.56-3.55,3.41-3.55ZM590.74,539.13c1.99,0,3.55,1.56,3.55,3.55,0,1.85-1.56,3.41-3.55,3.41-1.85,0-3.41-1.56-3.41-3.41,0-1.99,1.56-3.55,3.41-3.55ZM590.74,547.93c1.99,0,3.55,1.56,3.55,3.41,0,1.99-1.56,3.55-3.55,3.55-1.85,0-3.41-1.56-3.41-3.55,0-1.85,1.56-3.41,3.41-3.41ZM590.74,556.59c1.99,0,3.55,1.56,3.55,3.55s-1.56,3.55-3.55,3.55c-1.85,0-3.41-1.56-3.41-3.55s1.56-3.55,3.41-3.55ZM590.74,565.4c1.99,0,3.55,1.56,3.55,3.55,0,1.85-1.56,3.41-3.55,3.41-1.85,0-3.41-1.56-3.41-3.41,0-1.99,1.56-3.55,3.41-3.55ZM590.74,574.2c1.99,0,3.55,1.56,3.55,3.41,0,1.99-1.56,3.55-3.55,3.55-1.85,0-3.41-1.56-3.41-3.55,0-1.85,1.56-3.41,3.41-3.41ZM590.74,582.86c1.99,0,3.55,1.56,3.55,3.55s-1.56,3.55-3.55,3.55c-1.85,0-3.41-1.56-3.41-3.55s1.56-3.55,3.41-3.55ZM590.74,591.66c1.99,0,3.55,1.56,3.55,3.55,0,1.85-1.56,3.41-3.55,3.41-1.85,0-3.41-1.56-3.41-3.41,0-1.99,1.56-3.55,3.41-3.55ZM590.74,600.47c1.99,0,3.55,1.56,3.55,3.41,0,1.99-1.56,3.55-3.55,3.55-1.85,0-3.41-1.56-3.41-3.55,0-1.85,1.56-3.41,3.41-3.41ZM599.55,512.86c1.99,0,3.55,1.56,3.55,3.55,0,1.85-1.56,3.41-3.55,3.41s-3.55-1.56-3.55-3.41c0-1.99,1.56-3.55,3.55-3.55ZM599.55,521.66c1.99,0,3.55,1.56,3.55,3.41,0,1.99-1.56,3.55-3.55,3.55s-3.55-1.56-3.55-3.55c0-1.85,1.56-3.41,3.55-3.41ZM599.55,530.32c1.99,0,3.55,1.56,3.55,3.55s-1.56,3.55-3.55,3.55-3.55-1.56-3.55-3.55,1.56-3.55,3.55-3.55ZM599.55,539.13c1.99,0,3.55,1.56,3.55,3.55,0,1.85-1.56,3.41-3.55,3.41s-3.55-1.56-3.55-3.41c0-1.99,1.56-3.55,3.55-3.55ZM599.55,547.93c1.99,0,3.55,1.56,3.55,3.41,0,1.99-1.56,3.55-3.55,3.55s-3.55-1.56-3.55-3.55c0-1.85,1.56-3.41,3.55-3.41ZM599.55,556.59c1.99,0,3.55,1.56,3.55,3.55s-1.56,3.55-3.55,3.55-3.55-1.56-3.55-3.55,1.56-3.55,3.55-3.55ZM599.55,565.4c1.99,0,3.55,1.56,3.55,3.55,0,1.85-1.56,3.41-3.55,3.41s-3.55-1.56-3.55-3.41c0-1.99,1.56-3.55,3.55-3.55ZM599.55,574.2c1.99,0,3.55,1.56,3.55,3.41,0,1.99-1.56,3.55-3.55,3.55s-3.55-1.56-3.55-3.55c0-1.85,1.56-3.41,3.55-3.41ZM599.55,582.86c1.99,0,3.55,1.56,3.55,3.55s-1.56,3.55-3.55,3.55-3.55-1.56-3.55-3.55,1.56-3.55,3.55-3.55ZM599.55,591.66c1.99,0,3.55,1.56,3.55,3.55,0,1.85-1.56,3.41-3.55,3.41s-3.55-1.56-3.55-3.41c0-1.99,1.56-3.55,3.55-3.55ZM599.55,600.47c1.99,0,3.55,1.56,3.55,3.41,0,1.99-1.56,3.55-3.55,3.55s-3.55-1.56-3.55-3.55c0-1.85,1.56-3.41,3.55-3.41ZM608.35,512.86c1.85,0,3.41,1.56,3.41,3.55,0,1.85-1.56,3.41-3.41,3.41-1.99,0-3.55-1.56-3.55-3.41,0-1.99,1.56-3.55,3.55-3.55ZM608.35,521.66c1.85,0,3.41,1.56,3.41,3.41,0,1.99-1.56,3.55-3.41,3.55-1.99,0-3.55-1.56-3.55-3.55,0-1.85,1.56-3.41,3.55-3.41ZM608.35,530.32c1.85,0,3.41,1.56,3.41,3.55s-1.56,3.55-3.41,3.55c-1.99,0-3.55-1.56-3.55-3.55s1.56-3.55,3.55-3.55ZM608.35,582.86c1.85,0,3.41,1.56,3.41,3.55s-1.56,3.55-3.41,3.55c-1.99,0-3.55-1.56-3.55-3.55s1.56-3.55,3.55-3.55ZM608.35,591.66c1.85,0,3.41,1.56,3.41,3.55,0,1.85-1.56,3.41-3.41,3.41-1.99,0-3.55-1.56-3.55-3.41,0-1.99,1.56-3.55,3.55-3.55ZM608.35,600.47c1.85,0,3.41,1.56,3.41,3.41,0,1.99-1.56,3.55-3.41,3.55-1.99,0-3.55-1.56-3.55-3.55,0-1.85,1.56-3.41,3.55-3.41ZM617.01,512.86c1.99,0,3.55,1.56,3.55,3.55,0,1.85-1.56,3.41-3.55,3.41-1.85,0-3.41-1.56-3.41-3.41,0-1.99,1.56-3.55,3.41-3.55ZM617.01,521.66c1.99,0,3.55,1.56,3.55,3.41,0,1.99-1.56,3.55-3.55,3.55-1.85,0-3.41-1.56-3.41-3.55,0-1.85,1.56-3.41,3.41-3.41ZM617.01,530.32c1.99,0,3.55,1.56,3.55,3.55s-1.56,3.55-3.55,3.55c-1.85,0-3.41-1.56-3.41-3.55s1.56-3.55,3.41-3.55ZM617.01,539.13c1.99,0,3.55,1.56,3.55,3.55,0,1.85-1.56,3.41-3.55,3.41-1.85,0-3.41-1.56-3.41-3.41,0-1.99,1.56-3.55,3.41-3.55ZM617.01,547.93c1.99,0,3.55,1.56,3.55,3.41,0,1.99-1.56,3.55-3.55,3.55-1.85,0-3.41-1.56-3.41-3.55,0-1.85,1.56-3.41,3.41-3.41ZM617.01,556.59c1.99,0,3.55,1.56,3.55,3.55s-1.56,3.55-3.55,3.55c-1.85,0-3.41-1.56-3.41-3.55s1.56-3.55,3.41-3.55ZM617.01,565.4c1.99,0,3.55,1.56,3.55,3.55,0,1.85-1.56,3.41-3.55,3.41-1.85,0-3.41-1.56-3.41-3.41,0-1.99,1.56-3.55,3.41-3.55ZM617.01,574.2c1.99,0,3.55,1.56,3.55,3.41,0,1.99-1.56,3.55-3.55,3.55-1.85,0-3.41-1.56-3.41-3.55,0-1.85,1.56-3.41,3.41-3.41ZM617.01,582.86c1.99,0,3.55,1.56,3.55,3.55s-1.56,3.55-3.55,3.55c-1.85,0-3.41-1.56-3.41-3.55s1.56-3.55,3.41-3.55ZM617.01,591.66c1.99,0,3.55,1.56,3.55,3.55,0,1.85-1.56,3.41-3.55,3.41-1.85,0-3.41-1.56-3.41-3.41,0-1.99,1.56-3.55,3.41-3.55ZM617.01,600.47c1.99,0,3.55,1.56,3.55,3.41,0,1.99-1.56,3.55-3.55,3.55-1.85,0-3.41-1.56-3.41-3.55,0-1.85,1.56-3.41,3.41-3.41ZM625.82,512.86c1.99,0,3.55,1.56,3.55,3.55,0,1.85-1.56,3.41-3.55,3.41s-3.55-1.56-3.55-3.41c0-1.99,1.56-3.55,3.55-3.55ZM625.82,521.66c1.99,0,3.55,1.56,3.55,3.41,0,1.99-1.56,3.55-3.55,3.55s-3.55-1.56-3.55-3.55c0-1.85,1.56-3.41,3.55-3.41ZM625.82,530.32c1.99,0,3.55,1.56,3.55,3.55s-1.56,3.55-3.55,3.55-3.55-1.56-3.55-3.55,1.56-3.55,3.55-3.55ZM625.82,539.13c1.99,0,3.55,1.56,3.55,3.55,0,1.85-1.56,3.41-3.55,3.41s-3.55-1.56-3.55-3.41c0-1.99,1.56-3.55,3.55-3.55ZM625.82,547.93c1.99,0,3.55,1.56,3.55,3.41,0,1.99-1.56,3.55-3.55,3.55s-3.55-1.56-3.55-3.55c0-1.85,1.56-3.41,3.55-3.41ZM625.82,556.59c1.99,0,3.55,1.56,3.55,3.55s-1.56,3.55-3.55,3.55-3.55-1.56-3.55-3.55,1.56-3.55,3.55-3.55ZM625.82,565.4c1.99,0,3.55,1.56,3.55,3.55,0,1.85-1.56,3.41-3.55,3.41s-3.55-1.56-3.55-3.41c0-1.99,1.56-3.55,3.55-3.55ZM625.82,574.2c1.99,0,3.55,1.56,3.55,3.41,0,1.99-1.56,3.55-3.55,3.55s-3.55-1.56-3.55-3.55c0-1.85,1.56-3.41,3.55-3.41ZM625.82,582.86c1.99,0,3.55,1.56,3.55,3.55s-1.56,3.55-3.55,3.55-3.55-1.56-3.55-3.55,1.56-3.55,3.55-3.55ZM625.82,591.66c1.99,0,3.55,1.56,3.55,3.55,0,1.85-1.56,3.41-3.55,3.41s-3.55-1.56-3.55-3.41c0-1.99,1.56-3.55,3.55-3.55ZM625.82,600.47c1.99,0,3.55,1.56,3.55,3.41,0,1.99-1.56,3.55-3.55,3.55s-3.55-1.56-3.55-3.55c0-1.85,1.56-3.41,3.55-3.41ZM634.62,521.66c1.85,0,3.41,1.56,3.41,3.41,0,1.99-1.56,3.55-3.41,3.55-1.99,0-3.55-1.56-3.55-3.55,0-1.85,1.56-3.41,3.55-3.41ZM634.62,530.32c1.85,0,3.41,1.56,3.41,3.55s-1.56,3.55-3.41,3.55c-1.99,0-3.55-1.56-3.55-3.55s1.56-3.55,3.55-3.55ZM634.62,539.13c1.85,0,3.41,1.56,3.41,3.55,0,1.85-1.56,3.41-3.41,3.41-1.99,0-3.55-1.56-3.55-3.41,0-1.99,1.56-3.55,3.55-3.55ZM634.62,547.93c1.85,0,3.41,1.56,3.41,3.41,0,1.99-1.56,3.55-3.41,3.55-1.99,0-3.55-1.56-3.55-3.55,0-1.85,1.56-3.41,3.55-3.41ZM634.62,556.59c1.85,0,3.41,1.56,3.41,3.55s-1.56,3.55-3.41,3.55c-1.99,0-3.55-1.56-3.55-3.55s1.56-3.55,3.55-3.55ZM634.62,565.4c1.85,0,3.41,1.56,3.41,3.55,0,1.85-1.56,3.41-3.41,3.41-1.99,0-3.55-1.56-3.55-3.41,0-1.99,1.56-3.55,3.55-3.55ZM634.62,574.2c1.85,0,3.41,1.56,3.41,3.41,0,1.99-1.56,3.55-3.41,3.55-1.99,0-3.55-1.56-3.55-3.55,0-1.85,1.56-3.41,3.55-3.41ZM634.62,582.86c1.85,0,3.41,1.56,3.41,3.55s-1.56,3.55-3.41,3.55c-1.99,0-3.55-1.56-3.55-3.55s1.56-3.55,3.55-3.55ZM634.62,591.66c1.85,0,3.41,1.56,3.41,3.55,0,1.85-1.56,3.41-3.41,3.41-1.99,0-3.55-1.56-3.55-3.41,0-1.99,1.56-3.55,3.55-3.55Z"/>
    <path class="cls-6" d="M652.94,530.32c1.85,0,3.41,1.56,3.41,3.55s-1.56,3.55-3.41,3.55c-1.99,0-3.55-1.56-3.55-3.55s1.56-3.55,3.55-3.55ZM652.94,539.13c1.85,0,3.41,1.56,3.41,3.55,0,1.85-1.56,3.41-3.41,3.41-1.99,0-3.55-1.56-3.55-3.41,0-1.99,1.56-3.55,3.55-3.55ZM652.94,591.66c1.85,0,3.41,1.56,3.41,3.55,0,1.85-1.56,3.41-3.41,3.41-1.99,0-3.55-1.56-3.55-3.41,0-1.99,1.56-3.55,3.55-3.55ZM652.94,600.47c1.85,0,3.41,1.56,3.41,3.41,0,1.99-1.56,3.55-3.41,3.55-1.99,0-3.55-1.56-3.55-3.55,0-1.85,1.56-3.41,3.55-3.41ZM661.6,530.32c1.99,0,3.55,1.56,3.55,3.55s-1.56,3.55-3.55,3.55c-1.85,0-3.41-1.56-3.41-3.55s1.56-3.55,3.41-3.55ZM661.6,539.13c1.99,0,3.55,1.56,3.55,3.55,0,1.85-1.56,3.41-3.55,3.41-1.85,0-3.41-1.56-3.41-3.41,0-1.99,1.56-3.55,3.41-3.55ZM661.6,591.66c1.99,0,3.55,1.56,3.55,3.55,0,1.85-1.56,3.41-3.55,3.41-1.85,0-3.41-1.56-3.41-3.41,0-1.99,1.56-3.55,3.41-3.55ZM661.6,600.47c1.99,0,3.55,1.56,3.55,3.41,0,1.99-1.56,3.55-3.55,3.55-1.85,0-3.41-1.56-3.41-3.55,0-1.85,1.56-3.41,3.41-3.41Z"/>
    <path class="cls-6" d="M680.06,521.66c1.85,0,3.41,1.56,3.41,3.41,0,1.99-1.56,3.55-3.41,3.55-1.99,0-3.55-1.56-3.55-3.55,0-1.85,1.56-3.41,3.55-3.41ZM680.06,530.32c1.85,0,3.41,1.56,3.41,3.55s-1.56,3.55-3.41,3.55c-1.99,0-3.55-1.56-3.55-3.55s1.56-3.55,3.55-3.55ZM680.06,539.13c1.85,0,3.41,1.56,3.41,3.55,0,1.85-1.56,3.41-3.41,3.41-1.99,0-3.55-1.56-3.55-3.41,0-1.99,1.56-3.55,3.55-3.55ZM680.06,547.93c1.85,0,3.41,1.56,3.41,3.41,0,1.99-1.56,3.55-3.41,3.55-1.99,0-3.55-1.56-3.55-3.55,0-1.85,1.56-3.41,3.55-3.41ZM680.06,556.59c1.85,0,3.41,1.56,3.41,3.55s-1.56,3.55-3.41,3.55c-1.99,0-3.55-1.56-3.55-3.55s1.56-3.55,3.55-3.55ZM680.06,565.4c1.85,0,3.41,1.56,3.41,3.55,0,1.85-1.56,3.41-3.41,3.41-1.99,0-3.55-1.56-3.55-3.41,0-1.99,1.56-3.55,3.55-3.55ZM680.06,574.2c1.85,0,3.41,1.56,3.41,3.41,0,1.99-1.56,3.55-3.41,3.55-1.99,0-3.55-1.56-3.55-3.55,0-1.85,1.56-3.41,3.55-3.41ZM680.06,582.86c1.85,0,3.41,1.56,3.41,3.55s-1.56,3.55-3.41,3.55c-1.99,0-3.55-1.56-3.55-3.55s1.56-3.55,3.55-3.55ZM680.06,591.66c1.85,0,3.41,1.56,3.41,3.55,0,1.85-1.56,3.41-3.41,3.41-1.99,0-3.55-1.56-3.55-3.41,0-1.99,1.56-3.55,3.55-3.55ZM688.72,512.86c1.99,0,3.55,1.56,3.55,3.55,0,1.85-1.56,3.41-3.55,3.41-1.85,0-3.41-1.56-3.41-3.41,0-1.99,1.56-3.55,3.41-3.55ZM688.72,521.66c1.99,0,3.55,1.56,3.55,3.41,0,1.99-1.56,3.55-3.55,3.55-1.85,0-3.41-1.56-3.41-3.55,0-1.85,1.56-3.41,3.41-3.41ZM688.72,530.32c1.99,0,3.55,1.56,3.55,3.55s-1.56,3.55-3.55,3.55c-1.85,0-3.41-1.56-3.41-3.55s1.56-3.55,3.41-3.55ZM688.72,539.13c1.99,0,3.55,1.56,3.55,3.55,0,1.85-1.56,3.41-3.55,3.41-1.85,0-3.41-1.56-3.41-3.41,0-1.99,1.56-3.55,3.41-3.55ZM688.72,547.93c1.99,0,3.55,1.56,3.55,3.41,0,1.99-1.56,3.55-3.55,3.55-1.85,0-3.41-1.56-3.41-3.55,0-1.85,1.56-3.41,3.41-3.41ZM688.72,556.59c1.99,0,3.55,1.56,3.55,3.55s-1.56,3.55-3.55,3.55c-1.85,0-3.41-1.56-3.41-3.55s1.56-3.55,3.41-3.55ZM688.72,565.4c1.99,0,3.55,1.56,3.55,3.55,0,1.85-1.56,3.41-3.55,3.41-1.85,0-3.41-1.56-3.41-3.41,0-1.99,1.56-3.55,3.41-3.55ZM688.72,574.2c1.99,0,3.55,1.56,3.55,3.41,0,1.99-1.56,3.55-3.55,3.55-1.85,0-3.41-1.56-3.41-3.55,0-1.85,1.56-3.41,3.41-3.41ZM688.72,582.86c1.99,0,3.55,1.56,3.55,3.55s-1.56,3.55-3.55,3.55c-1.85,0-3.41-1.56-3.41-3.55s1.56-3.55,3.41-3.55ZM688.72,591.66c1.99,0,3.55,1.56,3.55,3.55,0,1.85-1.56,3.41-3.55,3.41-1.85,0-3.41-1.56-3.41-3.41,0-1.99,1.56-3.55,3.41-3.55ZM688.72,600.47c1.99,0,3.55,1.56,3.55,3.41,0,1.99-1.56,3.55-3.55,3.55-1.85,0-3.41-1.56-3.41-3.55,0-1.85,1.56-3.41,3.41-3.41ZM697.53,512.86c1.99,0,3.55,1.56,3.55,3.55,0,1.85-1.56,3.41-3.55,3.41s-3.55-1.56-3.55-3.41c0-1.99,1.56-3.55,3.55-3.55ZM697.53,521.66c1.99,0,3.55,1.56,3.55,3.41,0,1.99-1.56,3.55-3.55,3.55s-3.55-1.56-3.55-3.55c0-1.85,1.56-3.41,3.55-3.41ZM697.53,530.32c1.99,0,3.55,1.56,3.55,3.55s-1.56,3.55-3.55,3.55-3.55-1.56-3.55-3.55,1.56-3.55,3.55-3.55ZM697.53,539.13c1.99,0,3.55,1.56,3.55,3.55,0,1.85-1.56,3.41-3.55,3.41s-3.55-1.56-3.55-3.41c0-1.99,1.56-3.55,3.55-3.55ZM697.53,547.93c1.99,0,3.55,1.56,3.55,3.41,0,1.99-1.56,3.55-3.55,3.55s-3.55-1.56-3.55-3.55c0-1.85,1.56-3.41,3.55-3.41ZM697.53,556.59c1.99,0,3.55,1.56,3.55,3.55s-1.56,3.55-3.55,3.55-3.55-1.56-3.55-3.55,1.56-3.55,3.55-3.55ZM697.53,565.4c1.99,0,3.55,1.56,3.55,3.55,0,1.85-1.56,3.41-3.55,3.41s-3.55-1.56-3.55-3.41c0-1.99,1.56-3.55,3.55-3.55ZM697.53,574.2c1.99,0,3.55,1.56,3.55,3.41,0,1.99-1.56,3.55-3.55,3.55s-3.55-1.56-3.55-3.55c0-1.85,1.56-3.41,3.55-3.41ZM697.53,582.86c1.99,0,3.55,1.56,3.55,3.55s-1.56,3.55-3.55,3.55-3.55-1.56-3.55-3.55,1.56-3.55,3.55-3.55ZM697.53,591.66c1.99,0,3.55,1.56,3.55,3.55,0,1.85-1.56,3.41-3.55,3.41s-3.55-1.56-3.55-3.41c0-1.99,1.56-3.55,3.55-3.55ZM697.53,600.47c1.99,0,3.55,1.56,3.55,3.41,0,1.99-1.56,3.55-3.55,3.55s-3.55-1.56-3.55-3.55c0-1.85,1.56-3.41,3.55-3.41ZM706.33,512.86c1.85,0,3.41,1.56,3.41,3.55,0,1.85-1.56,3.41-3.41,3.41-1.99,0-3.55-1.56-3.55-3.41,0-1.99,1.56-3.55,3.55-3.55ZM706.33,521.66c1.85,0,3.41,1.56,3.41,3.41,0,1.99-1.56,3.55-3.41,3.55-1.99,0-3.55-1.56-3.55-3.55,0-1.85,1.56-3.41,3.55-3.41ZM706.33,530.32c1.85,0,3.41,1.56,3.41,3.55s-1.56,3.55-3.41,3.55c-1.99,0-3.55-1.56-3.55-3.55s1.56-3.55,3.55-3.55ZM706.33,582.86c1.85,0,3.41,1.56,3.41,3.55s-1.56,3.55-3.41,3.55c-1.99,0-3.55-1.56-3.55-3.55s1.56-3.55,3.55-3.55ZM706.33,591.66c1.85,0,3.41,1.56,3.41,3.55,0,1.85-1.56,3.41-3.41,3.41-1.99,0-3.55-1.56-3.55-3.41,0-1.99,1.56-3.55,3.55-3.55ZM706.33,600.47c1.85,0,3.41,1.56,3.41,3.41,0,1.99-1.56,3.55-3.41,3.55-1.99,0-3.55-1.56-3.55-3.55,0-1.85,1.56-3.41,3.55-3.41ZM714.99,512.86c1.99,0,3.55,1.56,3.55,3.55,0,1.85-1.56,3.41-3.55,3.41-1.85,0-3.41-1.56-3.41-3.41,0-1.99,1.56-3.55,3.41-3.55ZM714.99,521.66c1.99,0,3.55,1.56,3.55,3.41,0,1.99-1.56,3.55-3.55,3.55-1.85,0-3.41-1.56-3.41-3.55,0-1.85,1.56-3.41,3.41-3.41ZM714.99,530.32c1.99,0,3.55,1.56,3.55,3.55s-1.56,3.55-3.55,3.55c-1.85,0-3.41-1.56-3.41-3.55s1.56-3.55,3.41-3.55ZM714.99,539.13c1.99,0,3.55,1.56,3.55,3.55,0,1.85-1.56,3.41-3.55,3.41-1.85,0-3.41-1.56-3.41-3.41,0-1.99,1.56-3.55,3.41-3.55ZM714.99,547.93c1.99,0,3.55,1.56,3.55,3.41,0,1.99-1.56,3.55-3.55,3.55-1.85,0-3.41-1.56-3.41-3.55,0-1.85,1.56-3.41,3.41-3.41ZM714.99,556.59c1.99,0,3.55,1.56,3.55,3.55s-1.56,3.55-3.55,3.55c-1.85,0-3.41-1.56-3.41-3.55s1.56-3.55,3.41-3.55ZM714.99,565.4c1.99,0,3.55,1.56,3.55,3.55,0,1.85-1.56,3.41-3.55,3.41-1.85,0-3.41-1.56-3.41-3.41,0-1.99,1.56-3.55,3.41-3.55ZM714.99,574.2c1.99,0,3.55,1.56,3.55,3.41,0,1.99-1.56,3.55-3.55,3.55-1.85,0-3.41-1.56-3.41-3.55,0-1.85,1.56-3.41,3.41-3.41ZM714.99,582.86c1.99,0,3.55,1.56,3.55,3.55s-1.56,3.55-3.55,3.55c-1.85,0-3.41-1.56-3.41-3.55s1.56-3.55,3.41-3.55ZM714.99,591.66c1.99,0,3.55,1.56,3.55,3.55,0,1.85-1.56,3.41-3.55,3.41-1.85,0-3.41-1.56-3.41-3.41,0-1.99,1.56-3.55,3.41-3.55ZM714.99,600.47c1.99,0,3.55,1.56,3.55,3.41,0,1.99-1.56,3.55-3.55,3.55-1.85,0-3.41-1.56-3.41-3.55,0-1.85,1.56-3.41,3.41-3.41ZM723.8,512.86c1.99,0,3.55,1.56,3.55,3.55,0,1.85-1.56,3.41-3.55,3.41s-3.55-1.56-3.55-3.41c0-1.99,1.56-3.55,3.55-3.55ZM723.8,521.66c1.99,0,3.55,1.56,3.55,3.41,0,1.99-1.56,3.55-3.55,3.55s-3.55-1.56-3.55-3.55c0-1.85,1.56-3.41,3.55-3.41ZM723.8,530.32c1.99,0,3.55,1.56,3.55,3.55s-1.56,3.55-3.55,3.55-3.55-1.56-3.55-3.55,1.56-3.55,3.55-3.55ZM723.8,539.13c1.99,0,3.55,1.56,3.55,3.55,0,1.85-1.56,3.41-3.55,3.41s-3.55-1.56-3.55-3.41c0-1.99,1.56-3.55,3.55-3.55ZM723.8,547.93c1.99,0,3.55,1.56,3.55,3.41,0,1.99-1.56,3.55-3.55,3.55s-3.55-1.56-3.55-3.55c0-1.85,1.56-3.41,3.55-3.41ZM723.8,556.59c1.99,0,3.55,1.56,3.55,3.55s-1.56,3.55-3.55,3.55-3.55-1.56-3.55-3.55,1.56-3.55,3.55-3.55ZM723.8,565.4c1.99,0,3.55,1.56,3.55,3.55,0,1.85-1.56,3.41-3.55,3.41s-3.55-1.56-3.55-3.41c0-1.99,1.56-3.55,3.55-3.55ZM723.8,574.2c1.99,0,3.55,1.56,3.55,3.41,0,1.99-1.56,3.55-3.55,3.55s-3.55-1.56-3.55-3.55c0-1.85,1.56-3.41,3.55-3.41ZM723.8,582.86c1.99,0,3.55,1.56,3.55,3.55s-1.56,3.55-3.55,3.55-3.55-1.56-3.55-3.55,1.56-3.55,3.55-3.55ZM723.8,591.66c1.99,0,3.55,1.56,3.55,3.55,0,1.85-1.56,3.41-3.55,3.41s-3.55-1.56-3.55-3.41c0-1.99,1.56-3.55,3.55-3.55ZM723.8,600.47c1.99,0,3.55,1.56,3.55,3.41,0,1.99-1.56,3.55-3.55,3.55s-3.55-1.56-3.55-3.55c0-1.85,1.56-3.41,3.55-3.41ZM732.6,521.66c1.85,0,3.41,1.56,3.41,3.41,0,1.99-1.56,3.55-3.41,3.55-1.99,0-3.55-1.56-3.55-3.55,0-1.85,1.56-3.41,3.55-3.41ZM732.6,530.32c1.85,0,3.41,1.56,3.41,3.55s-1.56,3.55-3.41,3.55c-1.99,0-3.55-1.56-3.55-3.55s1.56-3.55,3.55-3.55ZM732.6,539.13c1.85,0,3.41,1.56,3.41,3.55,0,1.85-1.56,3.41-3.41,3.41-1.99,0-3.55-1.56-3.55-3.41,0-1.99,1.56-3.55,3.55-3.55ZM732.6,547.93c1.85,0,3.41,1.56,3.41,3.41,0,1.99-1.56,3.55-3.41,3.55-1.99,0-3.55-1.56-3.55-3.55,0-1.85,1.56-3.41,3.55-3.41ZM732.6,556.59c1.85,0,3.41,1.56,3.41,3.55s-1.56,3.55-3.41,3.55c-1.99,0-3.55-1.56-3.55-3.55s1.56-3.55,3.55-3.55ZM732.6,565.4c1.85,0,3.41,1.56,3.41,3.55,0,1.85-1.56,3.41-3.41,3.41-1.99,0-3.55-1.56-3.55-3.41,0-1.99,1.56-3.55,3.55-3.55ZM732.6,574.2c1.85,0,3.41,1.56,3.41,3.41,0,1.99-1.56,3.55-3.41,3.55-1.99,0-3.55-1.56-3.55-3.55,0-1.85,1.56-3.41,3.55-3.41ZM732.6,582.86c1.85,0,3.41,1.56,3.41,3.55s-1.56,3.55-3.41,3.55c-1.99,0-3.55-1.56-3.55-3.55s1.56-3.55,3.55-3.55ZM732.6,591.66c1.85,0,3.41,1.56,3.41,3.55,0,1.85-1.56,3.41-3.41,3.41-1.99,0-3.55-1.56-3.55-3.41,0-1.99,1.56-3.55,3.55-3.55Z"/>
    <path class="cls-6" d="M750.92,521.66c1.85,0,3.41,1.56,3.41,3.41,0,1.99-1.56,3.55-3.41,3.55-1.99,0-3.55-1.56-3.55-3.55,0-1.85,1.56-3.41,3.55-3.41ZM750.92,530.32c1.85,0,3.41,1.56,3.41,3.55s-1.56,3.55-3.41,3.55c-1.99,0-3.55-1.56-3.55-3.55s1.56-3.55,3.55-3.55ZM750.92,539.13c1.85,0,3.41,1.56,3.41,3.55,0,1.85-1.56,3.41-3.41,3.41-1.99,0-3.55-1.56-3.55-3.41,0-1.99,1.56-3.55,3.55-3.55ZM750.92,547.93c1.85,0,3.41,1.56,3.41,3.41,0,1.99-1.56,3.55-3.41,3.55-1.99,0-3.55-1.56-3.55-3.55,0-1.85,1.56-3.41,3.55-3.41ZM750.92,556.59c1.85,0,3.41,1.56,3.41,3.55s-1.56,3.55-3.41,3.55c-1.99,0-3.55-1.56-3.55-3.55s1.56-3.55,3.55-3.55ZM750.92,565.4c1.85,0,3.41,1.56,3.41,3.55,0,1.85-1.56,3.41-3.41,3.41-1.99,0-3.55-1.56-3.55-3.41,0-1.99,1.56-3.55,3.55-3.55ZM750.92,574.2c1.85,0,3.41,1.56,3.41,3.41,0,1.99-1.56,3.55-3.41,3.55-1.99,0-3.55-1.56-3.55-3.55,0-1.85,1.56-3.41,3.55-3.41ZM750.92,582.86c1.85,0,3.41,1.56,3.41,3.55s-1.56,3.55-3.41,3.55c-1.99,0-3.55-1.56-3.55-3.55s1.56-3.55,3.55-3.55ZM750.92,591.66c1.85,0,3.41,1.56,3.41,3.55,0,1.85-1.56,3.41-3.41,3.41-1.99,0-3.55-1.56-3.55-3.41,0-1.99,1.56-3.55,3.55-3.55ZM759.58,512.86c1.99,0,3.55,1.56,3.55,3.55,0,1.85-1.56,3.41-3.55,3.41-1.85,0-3.41-1.56-3.41-3.41,0-1.99,1.56-3.55,3.41-3.55ZM759.58,521.66c1.99,0,3.55,1.56,3.55,3.41,0,1.99-1.56,3.55-3.55,3.55-1.85,0-3.41-1.56-3.41-3.55,0-1.85,1.56-3.41,3.41-3.41ZM759.58,530.32c1.99,0,3.55,1.56,3.55,3.55s-1.56,3.55-3.55,3.55c-1.85,0-3.41-1.56-3.41-3.55s1.56-3.55,3.41-3.55ZM759.58,539.13c1.99,0,3.55,1.56,3.55,3.55,0,1.85-1.56,3.41-3.55,3.41-1.85,0-3.41-1.56-3.41-3.41,0-1.99,1.56-3.55,3.41-3.55ZM759.58,547.93c1.99,0,3.55,1.56,3.55,3.41,0,1.99-1.56,3.55-3.55,3.55-1.85,0-3.41-1.56-3.41-3.55,0-1.85,1.56-3.41,3.41-3.41ZM759.58,556.59c1.99,0,3.55,1.56,3.55,3.55s-1.56,3.55-3.55,3.55c-1.85,0-3.41-1.56-3.41-3.55s1.56-3.55,3.41-3.55ZM759.58,565.4c1.99,0,3.55,1.56,3.55,3.55,0,1.85-1.56,3.41-3.55,3.41-1.85,0-3.41-1.56-3.41-3.41,0-1.99,1.56-3.55,3.41-3.55ZM759.58,574.2c1.99,0,3.55,1.56,3.55,3.41,0,1.99-1.56,3.55-3.55,3.55-1.85,0-3.41-1.56-3.41-3.55,0-1.85,1.56-3.41,3.41-3.41ZM759.58,582.86c1.99,0,3.55,1.56,3.55,3.55s-1.56,3.55-3.55,3.55c-1.85,0-3.41-1.56-3.41-3.55s1.56-3.55,3.41-3.55ZM759.58,591.66c1.99,0,3.55,1.56,3.55,3.55,0,1.85-1.56,3.41-3.55,3.41-1.85,0-3.41-1.56-3.41-3.41,0-1.99,1.56-3.55,3.41-3.55ZM759.58,600.47c1.99,0,3.55,1.56,3.55,3.41,0,1.99-1.56,3.55-3.55,3.55-1.85,0-3.41-1.56-3.41-3.55,0-1.85,1.56-3.41,3.41-3.41ZM768.38,512.86c1.99,0,3.55,1.56,3.55,3.55,0,1.85-1.56,3.41-3.55,3.41s-3.55-1.56-3.55-3.41c0-1.99,1.56-3.55,3.55-3.55ZM768.38,521.66c1.99,0,3.55,1.56,3.55,3.41,0,1.99-1.56,3.55-3.55,3.55s-3.55-1.56-3.55-3.55c0-1.85,1.56-3.41,3.55-3.41ZM768.38,530.32c1.99,0,3.55,1.56,3.55,3.55s-1.56,3.55-3.55,3.55-3.55-1.56-3.55-3.55,1.56-3.55,3.55-3.55ZM768.38,539.13c1.99,0,3.55,1.56,3.55,3.55,0,1.85-1.56,3.41-3.55,3.41s-3.55-1.56-3.55-3.41c0-1.99,1.56-3.55,3.55-3.55ZM768.38,547.93c1.99,0,3.55,1.56,3.55,3.41,0,1.99-1.56,3.55-3.55,3.55s-3.55-1.56-3.55-3.55c0-1.85,1.56-3.41,3.55-3.41ZM768.38,556.59c1.99,0,3.55,1.56,3.55,3.55s-1.56,3.55-3.55,3.55-3.55-1.56-3.55-3.55,1.56-3.55,3.55-3.55ZM768.38,565.4c1.99,0,3.55,1.56,3.55,3.55,0,1.85-1.56,3.41-3.55,3.41s-3.55-1.56-3.55-3.41c0-1.99,1.56-3.55,3.55-3.55ZM768.38,574.2c1.99,0,3.55,1.56,3.55,3.41,0,1.99-1.56,3.55-3.55,3.55s-3.55-1.56-3.55-3.55c0-1.85,1.56-3.41,3.55-3.41ZM768.38,582.86c1.99,0,3.55,1.56,3.55,3.55s-1.56,3.55-3.55,3.55-3.55-1.56-3.55-3.55,1.56-3.55,3.55-3.55ZM768.38,591.66c1.99,0,3.55,1.56,3.55,3.55,0,1.85-1.56,3.41-3.55,3.41s-3.55-1.56-3.55-3.41c0-1.99,1.56-3.55,3.55-3.55ZM768.38,600.47c1.99,0,3.55,1.56,3.55,3.41,0,1.99-1.56,3.55-3.55,3.55s-3.55-1.56-3.55-3.55c0-1.85,1.56-3.41,3.55-3.41ZM777.19,512.86c1.85,0,3.41,1.56,3.41,3.55,0,1.85-1.56,3.41-3.41,3.41-1.99,0-3.55-1.56-3.55-3.41,0-1.99,1.56-3.55,3.55-3.55ZM777.19,521.66c1.85,0,3.41,1.56,3.41,3.41,0,1.99-1.56,3.55-3.41,3.55-1.99,0-3.55-1.56-3.55-3.55,0-1.85,1.56-3.41,3.55-3.41ZM777.19,530.32c1.85,0,3.41,1.56,3.41,3.55s-1.56,3.55-3.41,3.55c-1.99,0-3.55-1.56-3.55-3.55s1.56-3.55,3.55-3.55ZM777.19,582.86c1.85,0,3.41,1.56,3.41,3.55s-1.56,3.55-3.41,3.55c-1.99,0-3.55-1.56-3.55-3.55s1.56-3.55,3.55-3.55ZM777.19,591.66c1.85,0,3.41,1.56,3.41,3.55,0,1.85-1.56,3.41-3.41,3.41-1.99,0-3.55-1.56-3.55-3.41,0-1.99,1.56-3.55,3.55-3.55ZM777.19,600.47c1.85,0,3.41,1.56,3.41,3.41,0,1.99-1.56,3.55-3.41,3.55-1.99,0-3.55-1.56-3.55-3.55,0-1.85,1.56-3.41,3.55-3.41ZM785.85,512.86c1.99,0,3.55,1.56,3.55,3.55,0,1.85-1.56,3.41-3.55,3.41-1.85,0-3.41-1.56-3.41-3.41,0-1.99,1.56-3.55,3.41-3.55ZM785.85,521.66c1.99,0,3.55,1.56,3.55,3.41,0,1.99-1.56,3.55-3.55,3.55-1.85,0-3.41-1.56-3.41-3.55,0-1.85,1.56-3.41,3.41-3.41ZM785.85,530.32c1.99,0,3.55,1.56,3.55,3.55s-1.56,3.55-3.55,3.55c-1.85,0-3.41-1.56-3.41-3.55s1.56-3.55,3.41-3.55ZM785.85,539.13c1.99,0,3.55,1.56,3.55,3.55,0,1.85-1.56,3.41-3.55,3.41-1.85,0-3.41-1.56-3.41-3.41,0-1.99,1.56-3.55,3.41-3.55ZM785.85,547.93c1.99,0,3.55,1.56,3.55,3.41,0,1.99-1.56,3.55-3.55,3.55-1.85,0-3.41-1.56-3.41-3.55,0-1.85,1.56-3.41,3.41-3.41ZM785.85,556.59c1.99,0,3.55,1.56,3.55,3.55s-1.56,3.55-3.55,3.55c-1.85,0-3.41-1.56-3.41-3.55s1.56-3.55,3.41-3.55ZM785.85,565.4c1.99,0,3.55,1.56,3.55,3.55,0,1.85-1.56,3.41-3.55,3.41-1.85,0-3.41-1.56-3.41-3.41,0-1.99,1.56-3.55,3.41-3.55ZM785.85,574.2c1.99,0,3.55,1.56,3.55,3.41,0,1.99-1.56,3.55-3.55,3.55-1.85,0-3.41-1.56-3.41-3.55,0-1.85,1.56-3.41,3.41-3.41ZM785.85,582.86c1.99,0,3.55,1.56,3.55,3.55s-1.56,3.55-3.55,3.55c-1.85,0-3.41-1.56-3.41-3.55s1.56-3.55,3.41-3.55ZM785.85,591.66c1.99,0,3.55,1.56,3.55,3.55,0,1.85-1.56,3.41-3.55,3.41-1.85,0-3.41-1.56-3.41-3.41,0-1.99,1.56-3.55,3.41-3.55ZM785.85,600.47c1.99,0,3.55,1.56,3.55,3.41,0,1.99-1.56,3.55-3.55,3.55-1.85,0-3.41-1.56-3.41-3.55,0-1.85,1.56-3.41,3.41-3.41ZM794.65,512.86c1.99,0,3.55,1.56,3.55,3.55,0,1.85-1.56,3.41-3.55,3.41s-3.55-1.56-3.55-3.41c0-1.99,1.56-3.55,3.55-3.55ZM794.65,521.66c1.99,0,3.55,1.56,3.55,3.41,0,1.99-1.56,3.55-3.55,3.55s-3.55-1.56-3.55-3.55c0-1.85,1.56-3.41,3.55-3.41ZM794.65,530.32c1.99,0,3.55,1.56,3.55,3.55s-1.56,3.55-3.55,3.55-3.55-1.56-3.55-3.55,1.56-3.55,3.55-3.55ZM794.65,539.13c1.99,0,3.55,1.56,3.55,3.55,0,1.85-1.56,3.41-3.55,3.41s-3.55-1.56-3.55-3.41c0-1.99,1.56-3.55,3.55-3.55ZM794.65,547.93c1.99,0,3.55,1.56,3.55,3.41,0,1.99-1.56,3.55-3.55,3.55s-3.55-1.56-3.55-3.55c0-1.85,1.56-3.41,3.55-3.41ZM794.65,556.59c1.99,0,3.55,1.56,3.55,3.55s-1.56,3.55-3.55,3.55-3.55-1.56-3.55-3.55,1.56-3.55,3.55-3.55ZM794.65,565.4c1.99,0,3.55,1.56,3.55,3.55,0,1.85-1.56,3.41-3.55,3.41s-3.55-1.56-3.55-3.41c0-1.99,1.56-3.55,3.55-3.55ZM794.65,574.2c1.99,0,3.55,1.56,3.55,3.41,0,1.99-1.56,3.55-3.55,3.55s-3.55-1.56-3.55-3.55c0-1.85,1.56-3.41,3.55-3.41ZM794.65,582.86c1.99,0,3.55,1.56,3.55,3.55s-1.56,3.55-3.55,3.55-3.55-1.56-3.55-3.55,1.56-3.55,3.55-3.55ZM794.65,591.66c1.99,0,3.55,1.56,3.55,3.55,0,1.85-1.56,3.41-3.55,3.41s-3.55-1.56-3.55-3.41c0-1.99,1.56-3.55,3.55-3.55ZM794.65,600.47c1.99,0,3.55,1.56,3.55,3.41,0,1.99-1.56,3.55-3.55,3.55s-3.55-1.56-3.55-3.55c0-1.85,1.56-3.41,3.55-3.41ZM803.46,521.66c1.85,0,3.41,1.56,3.41,3.41,0,1.99-1.56,3.55-3.41,3.55-1.99,0-3.55-1.56-3.55-3.55,0-1.85,1.56-3.41,3.55-3.41ZM803.46,530.32c1.85,0,3.41,1.56,3.41,3.55s-1.56,3.55-3.41,3.55c-1.99,0-3.55-1.56-3.55-3.55s1.56-3.55,3.55-3.55ZM803.46,539.13c1.85,0,3.41,1.56,3.41,3.55,0,1.85-1.56,3.41-3.41,3.41-1.99,0-3.55-1.56-3.55-3.41,0-1.99,1.56-3.55,3.55-3.55ZM803.46,547.93c1.85,0,3.41,1.56,3.41,3.41,0,1.99-1.56,3.55-3.41,3.55-1.99,0-3.55-1.56-3.55-3.55,0-1.85,1.56-3.41,3.55-3.41ZM803.46,556.59c1.85,0,3.41,1.56,3.41,3.55s-1.56,3.55-3.41,3.55c-1.99,0-3.55-1.56-3.55-3.55s1.56-3.55,3.55-3.55ZM803.46,565.4c1.85,0,3.41,1.56,3.41,3.55,0,1.85-1.56,3.41-3.41,3.41-1.99,0-3.55-1.56-3.55-3.41,0-1.99,1.56-3.55,3.55-3.55ZM803.46,574.2c1.85,0,3.41,1.56,3.41,3.41,0,1.99-1.56,3.55-3.41,3.55-1.99,0-3.55-1.56-3.55-3.55,0-1.85,1.56-3.41,3.55-3.41ZM803.46,582.86c1.85,0,3.41,1.56,3.41,3.55s-1.56,3.55-3.41,3.55c-1.99,0-3.55-1.56-3.55-3.55s1.56-3.55,3.55-3.55ZM803.46,591.66c1.85,0,3.41,1.56,3.41,3.55,0,1.85-1.56,3.41-3.41,3.41-1.99,0-3.55-1.56-3.55-3.41,0-1.99,1.56-3.55,3.55-3.55Z"/>
  </g>
  <line class="cls-1" x1="152.44" y1="638.67" x2="838.99" y2="638.67"/>
  <line class="cls-1" x1="152.44" y1="819.04" x2="838.99" y2="819.04"/>
  <line class="cls-1" x1="372.17" y1="819.04" x2="372.17" y2="638.67"/>
  <line class="cls-1" x1="624.86" y1="819.04" x2="624.86" y2="638.67"/>
</svg>