<?xml version="1.0" encoding="UTF-8"?>
<svg id="app_icon" data-name="app icon" xmlns="http://www.w3.org/2000/svg" viewBox="0 0 1000 1000">
  <defs>
    <style>
      .cls-1 {
        fill: #00a651;
      }

      .cls-2 {
        fill: none;
        stroke: #000;
        stroke-miterlimit: 10;
        stroke-width: 12px;
      }

      .cls-3 {
        fill: #356aa5;
      }

      .cls-4 {
        fill: #db1f26;
      }
    </style>
  </defs>
  <path d="M781.81,519.54c-.2,62.56-.18,147.49-.16,217.54,0,26.99.01,52.06,0,73.28-100.76-.04-201.53-.09-302.29-.14-74.92-.04-149.84-.08-224.76-.11h-3.79c-6.25,0-13.36,0-20.64.12-.28-46.28-.37-123.3-.44-185.6-.03-24.07-.05-45.94-.09-62.99-.01-7.7.04-15.62.1-23.29.04-6.06.09-12.2.1-18.39,51.82.12,101.68.14,144.72.14,21.97,0,43.93,0,65.89-.01,21.96,0,43.91-.01,65.87-.01h40v-.37c9.35,0,18.71,0,28.06.01,22.7,0,45.4.02,68.1.02,38.94,0,88.35-.02,139.3-.19M808.87,479.44c-.08,0-.15,0-.23,0-55.38.24-110.75.29-166.13.29-45.38,0-90.78-.04-136.16-.04v.38c-43.92,0-87.84.02-131.76.02-57.26,0-114.54-.04-171.8-.21-.06,0-.11,0-.17,0-9.57,0-13.31,2.44-13.03,12.67.63,23.04.04,46.1.09,69.16.12,62.76.14,190.81.56,253.57.17,25.2,10.14,35.03,34.28,35.03.63,0,1.27,0,1.92-.02,8.13-.17,16.27-.19,24.41-.19,1.26,0,2.51,0,3.77,0,176.76.08,353.52.18,530.28.26h.04c26.97,0,36.72-9.87,36.73-37.13.03-84.97-.17-235.22.26-320.18.05-10.39-2.36-13.61-13.05-13.61h0Z"/>
  <path d="M322.87,331.31c-34.08,8.77-67.74,17.43-101.41,26.11-7.41,1.91-14.91,3.55-22.19,5.87-7.66,2.45-11.31-.93-12.99-7.8-5.23-21.49-10.42-43-15.56-64.52-2-8.38,1.8-12.83,9.87-14.63,20.34-4.54,40.66-9.13,60.94-13.95,4.44-1.05,7.96-1.18,11.65,2.26,22.46,20.94,45.11,41.66,67.65,62.51.84.78,1.1,2.17,2.04,4.15Z"/>
  <path class="cls-1" d="M460.63,298.96c-33,7.82-63.57,15.06-94.13,22.34-5.02,1.2-9.13-.17-12.86-3.62-23.14-21.38-46.33-42.71-71.22-65.63,24.17-6.02,47.22-10.04,69.01-17.66,23.16-8.09,39.9-3.15,56.14,14.82,15.64,17.31,34.03,32.13,53.05,49.75Z"/>
  <path class="cls-3" d="M566.37,457.78c22.71-28.32,43.17-53.8,63.6-79.3,2.85-3.56,6.35-5.14,11.05-5.12,28.98.12,57.96,0,86.93.06,2.33,0,5.51-1.26,6.75,1.83,1.1,2.72-1.2,4.73-2.73,6.69-17.79,22.85-35.58,45.71-53.45,68.49-3.13,4-6.32,7.51-12.46,7.46-31.93-.27-63.86-.12-99.69-.12Z"/>
  <path class="cls-3" d="M547.1,188.2c33.21-7.98,64.12-15.41,95.04-22.82,3.56-.85,6.58.04,9.36,2.6,23.46,21.6,47,43.11,72.48,66.46-29.66,7.23-56.9,13.26-83.75,20.7-11.79,3.26-19.55.65-28.21-7.78-20.35-19.8-41.91-38.35-64.91-59.16Z"/>
  <path class="cls-1" d="M461.56,373.25c-22.07,28.01-42.13,53.44-62.13,78.91-2.78,3.54-5.83,5.71-10.69,5.68-31.12-.16-62.24-.08-93.57-.08-.57-6.04,3.91-8.73,6.57-12.19,16.63-21.65,33.45-43.16,50.28-64.66,2.81-3.59,5.07-7.76,10.86-7.73,31.88.15,63.75.07,98.68.07Z"/>
  <path class="cls-4" d="M597.91,373.46c-21.6,29.26-41.68,55.97-63.5,81.35-2.2,2.56-5,2.95-8.05,2.95-31.04,0-62.08,0-92.89,0-1.91-5.03,1.75-6.94,3.66-9.4,17.51-22.53,35.24-44.89,52.66-67.49,3.98-5.16,8.4-7.58,15.07-7.52,29.82.27,59.65.12,93.05.12Z"/>
  <path class="cls-4" d="M590.97,266.78c-31.49,7.76-59.55,14.5-87.49,21.69-6.94,1.78-11.72.33-16.96-4.61-22.57-21.26-45.57-42.06-70.31-64.76,13.33-3.22,24.62-5.97,35.93-8.68,17.76-4.24,35.55-8.38,53.29-12.73,3.86-.95,7.16-1.72,10.61,1.43,24.15,21.96,48.43,43.77,74.93,67.66Z"/>
  <path d="M324.11,372.42c-22.7,28.95-42.95,54.69-63.06,80.54-2.98,3.83-6.54,4.79-11.09,4.75-17.06-.16-34.13-.31-51.19.05-6.7.14-8.93-2.25-8.84-8.83.29-22.18.07-44.37.26-66.55.04-4.36-1.16-9.99,6.39-9.98,41.27.05,82.54.02,127.54.02Z"/>
  <path d="M680.48,155.72c27.26-6.56,51.74-12.66,76.33-18.32,31.88-7.33,31.86-7.16,39.2,24.99,3.03,13.24,6.22,26.46,9.6,39.61,2.39,9.28-.48,14.91-10.24,16.45-.84.13-1.73.19-2.5.51-23.68,9.93-42.19,3.92-59.46-15.22-15.21-16.85-33.66-30.79-52.94-48.03Z"/>
  <path d="M707.7,457.68c21.71-27.79,41.79-53.12,61.36-78.81,4.82-6.32,10.82-5.63,17.12-5.65q35.59-.1,35.53,35.38c-.02,13.64-.25,27.28.03,40.9.12,5.93-1.77,8.31-7.97,8.27-34.42-.2-68.84-.1-106.08-.1Z"/>
  <g>
    <path class="cls-4" d="M256.09,541.09c1.51,0,2.78,1.27,2.78,2.78,0,1.62-1.27,2.9-2.78,2.9-1.62,0-2.9-1.28-2.9-2.9,0-1.51,1.27-2.78,2.9-2.78ZM256.09,548.16c1.51,0,2.78,1.28,2.78,2.9s-1.27,2.9-2.78,2.9c-1.62,0-2.9-1.28-2.9-2.9s1.27-2.9,2.9-2.9ZM263.16,533.9c1.62,0,2.9,1.28,2.9,2.9,0,1.51-1.27,2.78-2.9,2.78-1.51,0-2.78-1.27-2.78-2.78,0-1.62,1.27-2.9,2.78-2.9ZM263.16,541.09c1.62,0,2.9,1.27,2.9,2.78,0,1.62-1.27,2.9-2.9,2.9-1.51,0-2.78-1.28-2.78-2.9,0-1.51,1.27-2.78,2.78-2.78ZM263.16,548.16c1.62,0,2.9,1.28,2.9,2.9s-1.27,2.9-2.9,2.9c-1.51,0-2.78-1.28-2.78-2.9s1.27-2.9,2.78-2.9ZM270.35,533.9c1.62,0,2.9,1.28,2.9,2.9,0,1.51-1.27,2.78-2.9,2.78s-2.9-1.27-2.9-2.78c0-1.62,1.27-2.9,2.9-2.9ZM270.35,541.09c1.62,0,2.9,1.27,2.9,2.78,0,1.62-1.27,2.9-2.9,2.9s-2.9-1.28-2.9-2.9c0-1.51,1.27-2.78,2.9-2.78ZM270.35,548.16c1.62,0,2.9,1.28,2.9,2.9s-1.27,2.9-2.9,2.9-2.9-1.28-2.9-2.9,1.27-2.9,2.9-2.9ZM270.35,555.34c1.62,0,2.9,1.27,2.9,2.9,0,1.51-1.27,2.78-2.9,2.78s-2.9-1.28-2.9-2.78c0-1.62,1.27-2.9,2.9-2.9ZM270.35,562.53c1.62,0,2.9,1.27,2.9,2.78,0,1.62-1.27,2.9-2.9,2.9s-2.9-1.28-2.9-2.9c0-1.51,1.27-2.78,2.9-2.78ZM270.35,569.6c1.62,0,2.9,1.27,2.9,2.9s-1.27,2.9-2.9,2.9-2.9-1.28-2.9-2.9,1.27-2.9,2.9-2.9ZM270.35,576.78c1.62,0,2.9,1.27,2.9,2.9,0,1.51-1.27,2.78-2.9,2.78s-2.9-1.28-2.9-2.78c0-1.62,1.27-2.9,2.9-2.9ZM270.35,583.96c1.62,0,2.9,1.27,2.9,2.78,0,1.62-1.27,2.9-2.9,2.9s-2.9-1.28-2.9-2.9c0-1.51,1.27-2.78,2.9-2.78ZM270.35,591.03c1.62,0,2.9,1.27,2.9,2.9s-1.27,2.9-2.9,2.9-2.9-1.27-2.9-2.9,1.27-2.9,2.9-2.9ZM270.35,598.22c1.62,0,2.9,1.27,2.9,2.9,0,1.51-1.27,2.78-2.9,2.78s-2.9-1.28-2.9-2.78c0-1.62,1.27-2.9,2.9-2.9ZM270.35,605.4c1.62,0,2.9,1.28,2.9,2.78,0,1.62-1.27,2.9-2.9,2.9s-2.9-1.27-2.9-2.9c0-1.51,1.27-2.78,2.9-2.78ZM277.53,533.9c1.51,0,2.78,1.28,2.78,2.9,0,1.51-1.27,2.78-2.78,2.78-1.62,0-2.9-1.27-2.9-2.78,0-1.62,1.27-2.9,2.9-2.9ZM277.53,541.09c1.51,0,2.78,1.27,2.78,2.78,0,1.62-1.27,2.9-2.78,2.9-1.62,0-2.9-1.28-2.9-2.9,0-1.51,1.27-2.78,2.9-2.78ZM277.53,548.16c1.51,0,2.78,1.28,2.78,2.9s-1.27,2.9-2.78,2.9c-1.62,0-2.9-1.28-2.9-2.9s1.27-2.9,2.9-2.9ZM277.53,555.34c1.51,0,2.78,1.27,2.78,2.9,0,1.51-1.27,2.78-2.78,2.78-1.62,0-2.9-1.28-2.9-2.78,0-1.62,1.27-2.9,2.9-2.9ZM277.53,562.53c1.51,0,2.78,1.27,2.78,2.78,0,1.62-1.27,2.9-2.78,2.9-1.62,0-2.9-1.28-2.9-2.9,0-1.51,1.27-2.78,2.9-2.78ZM277.53,569.6c1.51,0,2.78,1.27,2.78,2.9s-1.27,2.9-2.78,2.9c-1.62,0-2.9-1.28-2.9-2.9s1.27-2.9,2.9-2.9ZM277.53,576.78c1.51,0,2.78,1.27,2.78,2.9,0,1.51-1.27,2.78-2.78,2.78-1.62,0-2.9-1.28-2.9-2.78,0-1.62,1.27-2.9,2.9-2.9ZM277.53,583.96c1.51,0,2.78,1.27,2.78,2.78,0,1.62-1.27,2.9-2.78,2.9-1.62,0-2.9-1.28-2.9-2.9,0-1.51,1.27-2.78,2.9-2.78ZM277.53,591.03c1.51,0,2.78,1.27,2.78,2.9s-1.27,2.9-2.78,2.9c-1.62,0-2.9-1.27-2.9-2.9s1.27-2.9,2.9-2.9ZM277.53,598.22c1.51,0,2.78,1.27,2.78,2.9,0,1.51-1.27,2.78-2.78,2.78-1.62,0-2.9-1.28-2.9-2.78,0-1.62,1.27-2.9,2.9-2.9ZM277.53,605.4c1.51,0,2.78,1.28,2.78,2.78,0,1.62-1.27,2.9-2.78,2.9-1.62,0-2.9-1.27-2.9-2.9,0-1.51,1.27-2.78,2.9-2.78ZM284.6,533.9c1.62,0,2.9,1.28,2.9,2.9,0,1.51-1.27,2.78-2.9,2.78-1.51,0-2.78-1.27-2.78-2.78,0-1.62,1.27-2.9,2.78-2.9ZM284.6,541.09c1.62,0,2.9,1.27,2.9,2.78,0,1.62-1.27,2.9-2.9,2.9-1.51,0-2.78-1.28-2.78-2.9,0-1.51,1.27-2.78,2.78-2.78ZM284.6,548.16c1.62,0,2.9,1.28,2.9,2.9s-1.27,2.9-2.9,2.9c-1.51,0-2.78-1.28-2.78-2.9s1.27-2.9,2.78-2.9ZM284.6,555.34c1.62,0,2.9,1.27,2.9,2.9,0,1.51-1.27,2.78-2.9,2.78-1.51,0-2.78-1.28-2.78-2.78,0-1.62,1.27-2.9,2.78-2.9ZM284.6,562.53c1.62,0,2.9,1.27,2.9,2.78,0,1.62-1.27,2.9-2.9,2.9-1.51,0-2.78-1.28-2.78-2.9,0-1.51,1.27-2.78,2.78-2.78ZM284.6,569.6c1.62,0,2.9,1.27,2.9,2.9s-1.27,2.9-2.9,2.9c-1.51,0-2.78-1.28-2.78-2.9s1.27-2.9,2.78-2.9ZM284.6,576.78c1.62,0,2.9,1.27,2.9,2.9,0,1.51-1.27,2.78-2.9,2.78-1.51,0-2.78-1.28-2.78-2.78,0-1.62,1.27-2.9,2.78-2.9ZM284.6,583.96c1.62,0,2.9,1.27,2.9,2.78,0,1.62-1.27,2.9-2.9,2.9-1.51,0-2.78-1.28-2.78-2.9,0-1.51,1.27-2.78,2.78-2.78ZM284.6,591.03c1.62,0,2.9,1.27,2.9,2.9s-1.27,2.9-2.9,2.9c-1.51,0-2.78-1.27-2.78-2.9s1.27-2.9,2.78-2.9ZM284.6,598.22c1.62,0,2.9,1.27,2.9,2.9,0,1.51-1.27,2.78-2.9,2.78-1.51,0-2.78-1.28-2.78-2.78,0-1.62,1.27-2.9,2.78-2.9ZM284.6,605.4c1.62,0,2.9,1.28,2.9,2.78,0,1.62-1.27,2.9-2.9,2.9-1.51,0-2.78-1.27-2.78-2.9,0-1.51,1.27-2.78,2.78-2.78Z"/>
    <path class="cls-4" d="M299.67,541.09c1.51,0,2.78,1.27,2.78,2.78,0,1.62-1.27,2.9-2.78,2.9-1.62,0-2.9-1.28-2.9-2.9,0-1.51,1.27-2.78,2.9-2.78ZM299.67,548.16c1.51,0,2.78,1.28,2.78,2.9s-1.27,2.9-2.78,2.9c-1.62,0-2.9-1.28-2.9-2.9s1.27-2.9,2.9-2.9ZM299.67,555.34c1.51,0,2.78,1.27,2.78,2.9,0,1.51-1.27,2.78-2.78,2.78-1.62,0-2.9-1.28-2.9-2.78,0-1.62,1.27-2.9,2.9-2.9ZM299.67,562.53c1.51,0,2.78,1.27,2.78,2.78,0,1.62-1.27,2.9-2.78,2.9-1.62,0-2.9-1.28-2.9-2.9,0-1.51,1.27-2.78,2.9-2.78ZM299.67,569.6c1.51,0,2.78,1.27,2.78,2.9s-1.27,2.9-2.78,2.9c-1.62,0-2.9-1.28-2.9-2.9s1.27-2.9,2.9-2.9ZM299.67,576.78c1.51,0,2.78,1.27,2.78,2.9,0,1.51-1.27,2.78-2.78,2.78-1.62,0-2.9-1.28-2.9-2.78,0-1.62,1.27-2.9,2.9-2.9ZM299.67,583.96c1.51,0,2.78,1.27,2.78,2.78,0,1.62-1.27,2.9-2.78,2.9-1.62,0-2.9-1.28-2.9-2.9,0-1.51,1.27-2.78,2.9-2.78ZM299.67,591.03c1.51,0,2.78,1.27,2.78,2.9s-1.27,2.9-2.78,2.9c-1.62,0-2.9-1.27-2.9-2.9s1.27-2.9,2.9-2.9ZM299.67,598.22c1.51,0,2.78,1.27,2.78,2.9,0,1.51-1.27,2.78-2.78,2.78-1.62,0-2.9-1.28-2.9-2.78,0-1.62,1.27-2.9,2.9-2.9ZM306.74,533.9c1.62,0,2.9,1.28,2.9,2.9,0,1.51-1.27,2.78-2.9,2.78-1.51,0-2.78-1.27-2.78-2.78,0-1.62,1.27-2.9,2.78-2.9ZM306.74,541.09c1.62,0,2.9,1.27,2.9,2.78,0,1.62-1.27,2.9-2.9,2.9-1.51,0-2.78-1.28-2.78-2.9,0-1.51,1.27-2.78,2.78-2.78ZM306.74,548.16c1.62,0,2.9,1.28,2.9,2.9s-1.27,2.9-2.9,2.9c-1.51,0-2.78-1.28-2.78-2.9s1.27-2.9,2.78-2.9ZM306.74,555.34c1.62,0,2.9,1.27,2.9,2.9,0,1.51-1.27,2.78-2.9,2.78-1.51,0-2.78-1.28-2.78-2.78,0-1.62,1.27-2.9,2.78-2.9ZM306.74,562.53c1.62,0,2.9,1.27,2.9,2.78,0,1.62-1.27,2.9-2.9,2.9-1.51,0-2.78-1.28-2.78-2.9,0-1.51,1.27-2.78,2.78-2.78ZM306.74,569.6c1.62,0,2.9,1.27,2.9,2.9s-1.27,2.9-2.9,2.9c-1.51,0-2.78-1.28-2.78-2.9s1.27-2.9,2.78-2.9ZM306.74,576.78c1.62,0,2.9,1.27,2.9,2.9,0,1.51-1.27,2.78-2.9,2.78-1.51,0-2.78-1.28-2.78-2.78,0-1.62,1.27-2.9,2.78-2.9ZM306.74,583.96c1.62,0,2.9,1.27,2.9,2.78,0,1.62-1.27,2.9-2.9,2.9-1.51,0-2.78-1.28-2.78-2.9,0-1.51,1.27-2.78,2.78-2.78ZM306.74,591.03c1.62,0,2.9,1.27,2.9,2.9s-1.27,2.9-2.9,2.9c-1.51,0-2.78-1.27-2.78-2.9s1.27-2.9,2.78-2.9ZM306.74,598.22c1.62,0,2.9,1.27,2.9,2.9,0,1.51-1.27,2.78-2.9,2.78-1.51,0-2.78-1.28-2.78-2.78,0-1.62,1.27-2.9,2.78-2.9ZM306.74,605.4c1.62,0,2.9,1.28,2.9,2.78,0,1.62-1.27,2.9-2.9,2.9-1.51,0-2.78-1.27-2.78-2.9,0-1.51,1.27-2.78,2.78-2.78ZM313.92,533.9c1.62,0,2.9,1.28,2.9,2.9,0,1.51-1.27,2.78-2.9,2.78s-2.9-1.27-2.9-2.78c0-1.62,1.27-2.9,2.9-2.9ZM313.92,541.09c1.62,0,2.9,1.27,2.9,2.78,0,1.62-1.27,2.9-2.9,2.9s-2.9-1.28-2.9-2.9c0-1.51,1.27-2.78,2.9-2.78ZM313.92,548.16c1.62,0,2.9,1.28,2.9,2.9s-1.27,2.9-2.9,2.9-2.9-1.28-2.9-2.9,1.27-2.9,2.9-2.9ZM313.92,555.34c1.62,0,2.9,1.27,2.9,2.9,0,1.51-1.27,2.78-2.9,2.78s-2.9-1.28-2.9-2.78c0-1.62,1.27-2.9,2.9-2.9ZM313.92,562.53c1.62,0,2.9,1.27,2.9,2.78,0,1.62-1.27,2.9-2.9,2.9s-2.9-1.28-2.9-2.9c0-1.51,1.27-2.78,2.9-2.78ZM313.92,569.6c1.62,0,2.9,1.27,2.9,2.9s-1.27,2.9-2.9,2.9-2.9-1.28-2.9-2.9,1.27-2.9,2.9-2.9ZM313.92,576.78c1.62,0,2.9,1.27,2.9,2.9,0,1.51-1.27,2.78-2.9,2.78s-2.9-1.28-2.9-2.78c0-1.62,1.27-2.9,2.9-2.9ZM313.92,583.96c1.62,0,2.9,1.27,2.9,2.78,0,1.62-1.27,2.9-2.9,2.9s-2.9-1.28-2.9-2.9c0-1.51,1.27-2.78,2.9-2.78ZM313.92,591.03c1.62,0,2.9,1.27,2.9,2.9s-1.27,2.9-2.9,2.9-2.9-1.27-2.9-2.9,1.27-2.9,2.9-2.9ZM313.92,598.22c1.62,0,2.9,1.27,2.9,2.9,0,1.51-1.27,2.78-2.9,2.78s-2.9-1.28-2.9-2.78c0-1.62,1.27-2.9,2.9-2.9ZM313.92,605.4c1.62,0,2.9,1.28,2.9,2.78,0,1.62-1.27,2.9-2.9,2.9s-2.9-1.27-2.9-2.9c0-1.51,1.27-2.78,2.9-2.78ZM321.11,533.9c1.51,0,2.78,1.28,2.78,2.9,0,1.51-1.27,2.78-2.78,2.78-1.62,0-2.9-1.27-2.9-2.78,0-1.62,1.27-2.9,2.9-2.9ZM321.11,541.09c1.51,0,2.78,1.27,2.78,2.78,0,1.62-1.27,2.9-2.78,2.9-1.62,0-2.9-1.28-2.9-2.9,0-1.51,1.27-2.78,2.9-2.78ZM321.11,548.16c1.51,0,2.78,1.28,2.78,2.9s-1.27,2.9-2.78,2.9c-1.62,0-2.9-1.28-2.9-2.9s1.27-2.9,2.9-2.9ZM321.11,591.03c1.51,0,2.78,1.27,2.78,2.9s-1.27,2.9-2.78,2.9c-1.62,0-2.9-1.27-2.9-2.9s1.27-2.9,2.9-2.9ZM321.11,598.22c1.51,0,2.78,1.27,2.78,2.9,0,1.51-1.27,2.78-2.78,2.78-1.62,0-2.9-1.28-2.9-2.78,0-1.62,1.27-2.9,2.9-2.9ZM321.11,605.4c1.51,0,2.78,1.28,2.78,2.78,0,1.62-1.27,2.9-2.78,2.9-1.62,0-2.9-1.27-2.9-2.9,0-1.51,1.27-2.78,2.9-2.78ZM328.17,533.9c1.62,0,2.9,1.28,2.9,2.9,0,1.51-1.27,2.78-2.9,2.78-1.51,0-2.78-1.27-2.78-2.78,0-1.62,1.27-2.9,2.78-2.9ZM328.17,541.09c1.62,0,2.9,1.27,2.9,2.78,0,1.62-1.27,2.9-2.9,2.9-1.51,0-2.78-1.28-2.78-2.9,0-1.51,1.27-2.78,2.78-2.78ZM328.17,548.16c1.62,0,2.9,1.28,2.9,2.9s-1.27,2.9-2.9,2.9c-1.51,0-2.78-1.28-2.78-2.9s1.27-2.9,2.78-2.9ZM328.17,555.34c1.62,0,2.9,1.27,2.9,2.9,0,1.51-1.27,2.78-2.9,2.78-1.51,0-2.78-1.28-2.78-2.78,0-1.62,1.27-2.9,2.78-2.9ZM328.17,562.53c1.62,0,2.9,1.27,2.9,2.78,0,1.62-1.27,2.9-2.9,2.9-1.51,0-2.78-1.28-2.78-2.9,0-1.51,1.27-2.78,2.78-2.78ZM328.17,569.6c1.62,0,2.9,1.27,2.9,2.9s-1.27,2.9-2.9,2.9c-1.51,0-2.78-1.28-2.78-2.9s1.27-2.9,2.78-2.9ZM328.17,576.78c1.62,0,2.9,1.27,2.9,2.9,0,1.51-1.27,2.78-2.9,2.78-1.51,0-2.78-1.28-2.78-2.78,0-1.62,1.27-2.9,2.78-2.9ZM328.17,583.96c1.62,0,2.9,1.27,2.9,2.78,0,1.62-1.27,2.9-2.9,2.9-1.51,0-2.78-1.28-2.78-2.9,0-1.51,1.27-2.78,2.78-2.78ZM328.17,591.03c1.62,0,2.9,1.27,2.9,2.9s-1.27,2.9-2.9,2.9c-1.51,0-2.78-1.27-2.78-2.9s1.27-2.9,2.78-2.9ZM328.17,598.22c1.62,0,2.9,1.27,2.9,2.9,0,1.51-1.27,2.78-2.9,2.78-1.51,0-2.78-1.28-2.78-2.78,0-1.62,1.27-2.9,2.78-2.9ZM328.17,605.4c1.62,0,2.9,1.28,2.9,2.78,0,1.62-1.27,2.9-2.9,2.9-1.51,0-2.78-1.27-2.78-2.9,0-1.51,1.27-2.78,2.78-2.78ZM335.36,533.9c1.62,0,2.9,1.28,2.9,2.9,0,1.51-1.27,2.78-2.9,2.78s-2.9-1.27-2.9-2.78c0-1.62,1.27-2.9,2.9-2.9ZM335.36,541.09c1.62,0,2.9,1.27,2.9,2.78,0,1.62-1.27,2.9-2.9,2.9s-2.9-1.28-2.9-2.9c0-1.51,1.27-2.78,2.9-2.78ZM335.36,548.16c1.62,0,2.9,1.28,2.9,2.9s-1.27,2.9-2.9,2.9-2.9-1.28-2.9-2.9,1.27-2.9,2.9-2.9ZM335.36,555.34c1.62,0,2.9,1.27,2.9,2.9,0,1.51-1.27,2.78-2.9,2.78s-2.9-1.28-2.9-2.78c0-1.62,1.27-2.9,2.9-2.9ZM335.36,562.53c1.62,0,2.9,1.27,2.9,2.78,0,1.62-1.27,2.9-2.9,2.9s-2.9-1.28-2.9-2.9c0-1.51,1.27-2.78,2.9-2.78ZM335.36,569.6c1.62,0,2.9,1.27,2.9,2.9s-1.27,2.9-2.9,2.9-2.9-1.28-2.9-2.9,1.27-2.9,2.9-2.9ZM335.36,576.78c1.62,0,2.9,1.27,2.9,2.9,0,1.51-1.27,2.78-2.9,2.78s-2.9-1.28-2.9-2.78c0-1.62,1.27-2.9,2.9-2.9ZM335.36,583.96c1.62,0,2.9,1.27,2.9,2.78,0,1.62-1.27,2.9-2.9,2.9s-2.9-1.28-2.9-2.9c0-1.51,1.27-2.78,2.9-2.78ZM335.36,591.03c1.62,0,2.9,1.27,2.9,2.9s-1.27,2.9-2.9,2.9-2.9-1.27-2.9-2.9,1.27-2.9,2.9-2.9ZM335.36,598.22c1.62,0,2.9,1.27,2.9,2.9,0,1.51-1.27,2.78-2.9,2.78s-2.9-1.28-2.9-2.78c0-1.62,1.27-2.9,2.9-2.9ZM335.36,605.4c1.62,0,2.9,1.28,2.9,2.78,0,1.62-1.27,2.9-2.9,2.9s-2.9-1.27-2.9-2.9c0-1.51,1.27-2.78,2.9-2.78ZM342.54,541.09c1.51,0,2.78,1.27,2.78,2.78,0,1.62-1.27,2.9-2.78,2.9-1.62,0-2.9-1.28-2.9-2.9,0-1.51,1.27-2.78,2.9-2.78ZM342.54,548.16c1.51,0,2.78,1.28,2.78,2.9s-1.27,2.9-2.78,2.9c-1.62,0-2.9-1.28-2.9-2.9s1.27-2.9,2.9-2.9ZM342.54,555.34c1.51,0,2.78,1.27,2.78,2.9,0,1.51-1.27,2.78-2.78,2.78-1.62,0-2.9-1.28-2.9-2.78,0-1.62,1.27-2.9,2.9-2.9ZM342.54,562.53c1.51,0,2.78,1.27,2.78,2.78,0,1.62-1.27,2.9-2.78,2.9-1.62,0-2.9-1.28-2.9-2.9,0-1.51,1.27-2.78,2.9-2.78ZM342.54,569.6c1.51,0,2.78,1.27,2.78,2.9s-1.27,2.9-2.78,2.9c-1.62,0-2.9-1.28-2.9-2.9s1.27-2.9,2.9-2.9ZM342.54,576.78c1.51,0,2.78,1.27,2.78,2.9,0,1.51-1.27,2.78-2.78,2.78-1.62,0-2.9-1.28-2.9-2.78,0-1.62,1.27-2.9,2.9-2.9ZM342.54,583.96c1.51,0,2.78,1.27,2.78,2.78,0,1.62-1.27,2.9-2.78,2.9-1.62,0-2.9-1.28-2.9-2.9,0-1.51,1.27-2.78,2.9-2.78ZM342.54,591.03c1.51,0,2.78,1.27,2.78,2.9s-1.27,2.9-2.78,2.9c-1.62,0-2.9-1.27-2.9-2.9s1.27-2.9,2.9-2.9ZM342.54,598.22c1.51,0,2.78,1.27,2.78,2.9,0,1.51-1.27,2.78-2.78,2.78-1.62,0-2.9-1.28-2.9-2.78,0-1.62,1.27-2.9,2.9-2.9Z"/>
    <path class="cls-4" d="M357.49,548.16c1.51,0,2.78,1.28,2.78,2.9s-1.27,2.9-2.78,2.9c-1.62,0-2.9-1.28-2.9-2.9s1.27-2.9,2.9-2.9ZM357.49,555.34c1.51,0,2.78,1.27,2.78,2.9,0,1.51-1.27,2.78-2.78,2.78-1.62,0-2.9-1.28-2.9-2.78,0-1.62,1.27-2.9,2.9-2.9ZM357.49,598.22c1.51,0,2.78,1.27,2.78,2.9,0,1.51-1.27,2.78-2.78,2.78-1.62,0-2.9-1.28-2.9-2.78,0-1.62,1.27-2.9,2.9-2.9ZM357.49,605.4c1.51,0,2.78,1.28,2.78,2.78,0,1.62-1.27,2.9-2.78,2.9-1.62,0-2.9-1.27-2.9-2.9,0-1.51,1.27-2.78,2.9-2.78ZM364.56,548.16c1.62,0,2.9,1.28,2.9,2.9s-1.27,2.9-2.9,2.9c-1.51,0-2.78-1.28-2.78-2.9s1.27-2.9,2.78-2.9ZM364.56,555.34c1.62,0,2.9,1.27,2.9,2.9,0,1.51-1.27,2.78-2.9,2.78-1.51,0-2.78-1.28-2.78-2.78,0-1.62,1.27-2.9,2.78-2.9ZM364.56,598.22c1.62,0,2.9,1.27,2.9,2.9,0,1.51-1.27,2.78-2.9,2.78-1.51,0-2.78-1.28-2.78-2.78,0-1.62,1.27-2.9,2.78-2.9ZM364.56,605.4c1.62,0,2.9,1.28,2.9,2.78,0,1.62-1.27,2.9-2.9,2.9-1.51,0-2.78-1.27-2.78-2.9,0-1.51,1.27-2.78,2.78-2.78Z"/>
    <path class="cls-4" d="M379.63,541.09c1.51,0,2.78,1.27,2.78,2.78,0,1.62-1.27,2.9-2.78,2.9-1.62,0-2.9-1.28-2.9-2.9,0-1.51,1.27-2.78,2.9-2.78ZM379.63,548.16c1.51,0,2.78,1.28,2.78,2.9s-1.27,2.9-2.78,2.9c-1.62,0-2.9-1.28-2.9-2.9s1.27-2.9,2.9-2.9ZM379.63,555.34c1.51,0,2.78,1.27,2.78,2.9,0,1.51-1.27,2.78-2.78,2.78-1.62,0-2.9-1.28-2.9-2.78,0-1.62,1.27-2.9,2.9-2.9ZM379.63,562.53c1.51,0,2.78,1.27,2.78,2.78,0,1.62-1.27,2.9-2.78,2.9-1.62,0-2.9-1.28-2.9-2.9,0-1.51,1.27-2.78,2.9-2.78ZM379.63,569.6c1.51,0,2.78,1.27,2.78,2.9s-1.27,2.9-2.78,2.9c-1.62,0-2.9-1.28-2.9-2.9s1.27-2.9,2.9-2.9ZM379.63,576.78c1.51,0,2.78,1.27,2.78,2.9,0,1.51-1.27,2.78-2.78,2.78-1.62,0-2.9-1.28-2.9-2.78,0-1.62,1.27-2.9,2.9-2.9ZM379.63,583.96c1.51,0,2.78,1.27,2.78,2.78,0,1.62-1.27,2.9-2.78,2.9-1.62,0-2.9-1.28-2.9-2.9,0-1.51,1.27-2.78,2.9-2.78ZM379.63,591.03c1.51,0,2.78,1.27,2.78,2.9s-1.27,2.9-2.78,2.9c-1.62,0-2.9-1.27-2.9-2.9s1.27-2.9,2.9-2.9ZM379.63,598.22c1.51,0,2.78,1.27,2.78,2.9,0,1.51-1.27,2.78-2.78,2.78-1.62,0-2.9-1.28-2.9-2.78,0-1.62,1.27-2.9,2.9-2.9ZM386.7,533.9c1.62,0,2.9,1.28,2.9,2.9,0,1.51-1.27,2.78-2.9,2.78-1.51,0-2.78-1.27-2.78-2.78,0-1.62,1.27-2.9,2.78-2.9ZM386.7,541.09c1.62,0,2.9,1.27,2.9,2.78,0,1.62-1.27,2.9-2.9,2.9-1.51,0-2.78-1.28-2.78-2.9,0-1.51,1.27-2.78,2.78-2.78ZM386.7,548.16c1.62,0,2.9,1.28,2.9,2.9s-1.27,2.9-2.9,2.9c-1.51,0-2.78-1.28-2.78-2.9s1.27-2.9,2.78-2.9ZM386.7,555.34c1.62,0,2.9,1.27,2.9,2.9,0,1.51-1.27,2.78-2.9,2.78-1.51,0-2.78-1.28-2.78-2.78,0-1.62,1.27-2.9,2.78-2.9ZM386.7,562.53c1.62,0,2.9,1.27,2.9,2.78,0,1.62-1.27,2.9-2.9,2.9-1.51,0-2.78-1.28-2.78-2.9,0-1.51,1.27-2.78,2.78-2.78ZM386.7,569.6c1.62,0,2.9,1.27,2.9,2.9s-1.27,2.9-2.9,2.9c-1.51,0-2.78-1.28-2.78-2.9s1.27-2.9,2.78-2.9ZM386.7,576.78c1.62,0,2.9,1.27,2.9,2.9,0,1.51-1.27,2.78-2.9,2.78-1.51,0-2.78-1.28-2.78-2.78,0-1.62,1.27-2.9,2.78-2.9ZM386.7,583.96c1.62,0,2.9,1.27,2.9,2.78,0,1.62-1.27,2.9-2.9,2.9-1.51,0-2.78-1.28-2.78-2.9,0-1.51,1.27-2.78,2.78-2.78ZM386.7,591.03c1.62,0,2.9,1.27,2.9,2.9s-1.27,2.9-2.9,2.9c-1.51,0-2.78-1.27-2.78-2.9s1.27-2.9,2.78-2.9ZM386.7,598.22c1.62,0,2.9,1.27,2.9,2.9,0,1.51-1.27,2.78-2.9,2.78-1.51,0-2.78-1.28-2.78-2.78,0-1.62,1.27-2.9,2.78-2.9ZM386.7,605.4c1.62,0,2.9,1.28,2.9,2.78,0,1.62-1.27,2.9-2.9,2.9-1.51,0-2.78-1.27-2.78-2.9,0-1.51,1.27-2.78,2.78-2.78ZM393.88,533.9c1.62,0,2.9,1.28,2.9,2.9,0,1.51-1.27,2.78-2.9,2.78s-2.9-1.27-2.9-2.78c0-1.62,1.27-2.9,2.9-2.9ZM393.88,541.09c1.62,0,2.9,1.27,2.9,2.78,0,1.62-1.27,2.9-2.9,2.9s-2.9-1.28-2.9-2.9c0-1.51,1.27-2.78,2.9-2.78ZM393.88,548.16c1.62,0,2.9,1.28,2.9,2.9s-1.27,2.9-2.9,2.9-2.9-1.28-2.9-2.9,1.27-2.9,2.9-2.9ZM393.88,555.34c1.62,0,2.9,1.27,2.9,2.9,0,1.51-1.27,2.78-2.9,2.78s-2.9-1.28-2.9-2.78c0-1.62,1.27-2.9,2.9-2.9ZM393.88,562.53c1.62,0,2.9,1.27,2.9,2.78,0,1.62-1.27,2.9-2.9,2.9s-2.9-1.28-2.9-2.9c0-1.51,1.27-2.78,2.9-2.78ZM393.88,569.6c1.62,0,2.9,1.27,2.9,2.9s-1.27,2.9-2.9,2.9-2.9-1.28-2.9-2.9,1.27-2.9,2.9-2.9ZM393.88,576.78c1.62,0,2.9,1.27,2.9,2.9,0,1.51-1.27,2.78-2.9,2.78s-2.9-1.28-2.9-2.78c0-1.62,1.27-2.9,2.9-2.9ZM393.88,583.96c1.62,0,2.9,1.27,2.9,2.78,0,1.62-1.27,2.9-2.9,2.9s-2.9-1.28-2.9-2.9c0-1.51,1.27-2.78,2.9-2.78ZM393.88,591.03c1.62,0,2.9,1.27,2.9,2.9s-1.27,2.9-2.9,2.9-2.9-1.27-2.9-2.9,1.27-2.9,2.9-2.9ZM393.88,598.22c1.62,0,2.9,1.27,2.9,2.9,0,1.51-1.27,2.78-2.9,2.78s-2.9-1.28-2.9-2.78c0-1.62,1.27-2.9,2.9-2.9ZM393.88,605.4c1.62,0,2.9,1.28,2.9,2.78,0,1.62-1.27,2.9-2.9,2.9s-2.9-1.27-2.9-2.9c0-1.51,1.27-2.78,2.9-2.78ZM401.07,533.9c1.51,0,2.78,1.28,2.78,2.9,0,1.51-1.27,2.78-2.78,2.78-1.62,0-2.9-1.27-2.9-2.78,0-1.62,1.27-2.9,2.9-2.9ZM401.07,541.09c1.51,0,2.78,1.27,2.78,2.78,0,1.62-1.27,2.9-2.78,2.9-1.62,0-2.9-1.28-2.9-2.9,0-1.51,1.27-2.78,2.9-2.78ZM401.07,548.16c1.51,0,2.78,1.28,2.78,2.9s-1.27,2.9-2.78,2.9c-1.62,0-2.9-1.28-2.9-2.9s1.27-2.9,2.9-2.9ZM401.07,591.03c1.51,0,2.78,1.27,2.78,2.9s-1.27,2.9-2.78,2.9c-1.62,0-2.9-1.27-2.9-2.9s1.27-2.9,2.9-2.9ZM401.07,598.22c1.51,0,2.78,1.27,2.78,2.9,0,1.51-1.27,2.78-2.78,2.78-1.62,0-2.9-1.28-2.9-2.78,0-1.62,1.27-2.9,2.9-2.9ZM401.07,605.4c1.51,0,2.78,1.28,2.78,2.78,0,1.62-1.27,2.9-2.78,2.9-1.62,0-2.9-1.27-2.9-2.9,0-1.51,1.27-2.78,2.9-2.78ZM408.13,533.9c1.62,0,2.9,1.28,2.9,2.9,0,1.51-1.27,2.78-2.9,2.78-1.51,0-2.78-1.27-2.78-2.78,0-1.62,1.27-2.9,2.78-2.9ZM408.13,541.09c1.62,0,2.9,1.27,2.9,2.78,0,1.62-1.27,2.9-2.9,2.9-1.51,0-2.78-1.28-2.78-2.9,0-1.51,1.27-2.78,2.78-2.78ZM408.13,548.16c1.62,0,2.9,1.28,2.9,2.9s-1.27,2.9-2.9,2.9c-1.51,0-2.78-1.28-2.78-2.9s1.27-2.9,2.78-2.9ZM408.13,555.34c1.62,0,2.9,1.27,2.9,2.9,0,1.51-1.27,2.78-2.9,2.78-1.51,0-2.78-1.28-2.78-2.78,0-1.62,1.27-2.9,2.78-2.9ZM408.13,562.53c1.62,0,2.9,1.27,2.9,2.78,0,1.62-1.27,2.9-2.9,2.9-1.51,0-2.78-1.28-2.78-2.9,0-1.51,1.27-2.78,2.78-2.78ZM408.13,569.6c1.62,0,2.9,1.27,2.9,2.9s-1.27,2.9-2.9,2.9c-1.51,0-2.78-1.28-2.78-2.9s1.27-2.9,2.78-2.9ZM408.13,576.78c1.62,0,2.9,1.27,2.9,2.9,0,1.51-1.27,2.78-2.9,2.78-1.51,0-2.78-1.28-2.78-2.78,0-1.62,1.27-2.9,2.78-2.9ZM408.13,583.96c1.62,0,2.9,1.27,2.9,2.78,0,1.62-1.27,2.9-2.9,2.9-1.51,0-2.78-1.28-2.78-2.9,0-1.51,1.27-2.78,2.78-2.78ZM408.13,591.03c1.62,0,2.9,1.27,2.9,2.9s-1.27,2.9-2.9,2.9c-1.51,0-2.78-1.27-2.78-2.9s1.27-2.9,2.78-2.9ZM408.13,598.22c1.62,0,2.9,1.27,2.9,2.9,0,1.51-1.27,2.78-2.9,2.78-1.51,0-2.78-1.28-2.78-2.78,0-1.62,1.27-2.9,2.78-2.9ZM408.13,605.4c1.62,0,2.9,1.28,2.9,2.78,0,1.62-1.27,2.9-2.9,2.9-1.51,0-2.78-1.27-2.78-2.9,0-1.51,1.27-2.78,2.78-2.78ZM415.32,533.9c1.62,0,2.9,1.28,2.9,2.9,0,1.51-1.27,2.78-2.9,2.78s-2.9-1.27-2.9-2.78c0-1.62,1.27-2.9,2.9-2.9ZM415.32,541.09c1.62,0,2.9,1.27,2.9,2.78,0,1.62-1.27,2.9-2.9,2.9s-2.9-1.28-2.9-2.9c0-1.51,1.27-2.78,2.9-2.78ZM415.32,548.16c1.62,0,2.9,1.28,2.9,2.9s-1.27,2.9-2.9,2.9-2.9-1.28-2.9-2.9,1.27-2.9,2.9-2.9ZM415.32,555.34c1.62,0,2.9,1.27,2.9,2.9,0,1.51-1.27,2.78-2.9,2.78s-2.9-1.28-2.9-2.78c0-1.62,1.27-2.9,2.9-2.9ZM415.32,562.53c1.62,0,2.9,1.27,2.9,2.78,0,1.62-1.27,2.9-2.9,2.9s-2.9-1.28-2.9-2.9c0-1.51,1.27-2.78,2.9-2.78ZM415.32,569.6c1.62,0,2.9,1.27,2.9,2.9s-1.27,2.9-2.9,2.9-2.9-1.28-2.9-2.9,1.27-2.9,2.9-2.9ZM415.32,576.78c1.62,0,2.9,1.27,2.9,2.9,0,1.51-1.27,2.78-2.9,2.78s-2.9-1.28-2.9-2.78c0-1.62,1.27-2.9,2.9-2.9ZM415.32,583.96c1.62,0,2.9,1.27,2.9,2.78,0,1.62-1.27,2.9-2.9,2.9s-2.9-1.28-2.9-2.9c0-1.51,1.27-2.78,2.9-2.78ZM415.32,591.03c1.62,0,2.9,1.27,2.9,2.9s-1.27,2.9-2.9,2.9-2.9-1.27-2.9-2.9,1.27-2.9,2.9-2.9ZM415.32,598.22c1.62,0,2.9,1.27,2.9,2.9,0,1.51-1.27,2.78-2.9,2.78s-2.9-1.28-2.9-2.78c0-1.62,1.27-2.9,2.9-2.9ZM415.32,605.4c1.62,0,2.9,1.28,2.9,2.78,0,1.62-1.27,2.9-2.9,2.9s-2.9-1.27-2.9-2.9c0-1.51,1.27-2.78,2.9-2.78ZM422.5,541.09c1.51,0,2.78,1.27,2.78,2.78,0,1.62-1.27,2.9-2.78,2.9-1.62,0-2.9-1.28-2.9-2.9,0-1.51,1.27-2.78,2.9-2.78ZM422.5,548.16c1.51,0,2.78,1.28,2.78,2.9s-1.27,2.9-2.78,2.9c-1.62,0-2.9-1.28-2.9-2.9s1.27-2.9,2.9-2.9ZM422.5,555.34c1.51,0,2.78,1.27,2.78,2.9,0,1.51-1.27,2.78-2.78,2.78-1.62,0-2.9-1.28-2.9-2.78,0-1.62,1.27-2.9,2.9-2.9ZM422.5,562.53c1.51,0,2.78,1.27,2.78,2.78,0,1.62-1.27,2.9-2.78,2.9-1.62,0-2.9-1.28-2.9-2.9,0-1.51,1.27-2.78,2.9-2.78ZM422.5,569.6c1.51,0,2.78,1.27,2.78,2.9s-1.27,2.9-2.78,2.9c-1.62,0-2.9-1.28-2.9-2.9s1.27-2.9,2.9-2.9ZM422.5,576.78c1.51,0,2.78,1.27,2.78,2.9,0,1.51-1.27,2.78-2.78,2.78-1.62,0-2.9-1.28-2.9-2.78,0-1.62,1.27-2.9,2.9-2.9ZM422.5,583.96c1.51,0,2.78,1.27,2.78,2.78,0,1.62-1.27,2.9-2.78,2.9-1.62,0-2.9-1.28-2.9-2.9,0-1.51,1.27-2.78,2.9-2.78ZM422.5,591.03c1.51,0,2.78,1.27,2.78,2.9s-1.27,2.9-2.78,2.9c-1.62,0-2.9-1.27-2.9-2.9s1.27-2.9,2.9-2.9ZM422.5,598.22c1.51,0,2.78,1.27,2.78,2.9,0,1.51-1.27,2.78-2.78,2.78-1.62,0-2.9-1.28-2.9-2.78,0-1.62,1.27-2.9,2.9-2.9Z"/>
    <path class="cls-4" d="M437.45,541.09c1.51,0,2.78,1.27,2.78,2.78,0,1.62-1.27,2.9-2.78,2.9-1.62,0-2.9-1.28-2.9-2.9,0-1.51,1.27-2.78,2.9-2.78ZM437.45,548.16c1.51,0,2.78,1.28,2.78,2.9s-1.27,2.9-2.78,2.9c-1.62,0-2.9-1.28-2.9-2.9s1.27-2.9,2.9-2.9ZM437.45,555.34c1.51,0,2.78,1.27,2.78,2.9,0,1.51-1.27,2.78-2.78,2.78-1.62,0-2.9-1.28-2.9-2.78,0-1.62,1.27-2.9,2.9-2.9ZM437.45,562.53c1.51,0,2.78,1.27,2.78,2.78,0,1.62-1.27,2.9-2.78,2.9-1.62,0-2.9-1.28-2.9-2.9,0-1.51,1.27-2.78,2.9-2.78ZM437.45,569.6c1.51,0,2.78,1.27,2.78,2.9s-1.27,2.9-2.78,2.9c-1.62,0-2.9-1.28-2.9-2.9s1.27-2.9,2.9-2.9ZM437.45,576.78c1.51,0,2.78,1.27,2.78,2.9,0,1.51-1.27,2.78-2.78,2.78-1.62,0-2.9-1.28-2.9-2.78,0-1.62,1.27-2.9,2.9-2.9ZM437.45,583.96c1.51,0,2.78,1.27,2.78,2.78,0,1.62-1.27,2.9-2.78,2.9-1.62,0-2.9-1.28-2.9-2.9,0-1.51,1.27-2.78,2.9-2.78ZM437.45,591.03c1.51,0,2.78,1.27,2.78,2.9s-1.27,2.9-2.78,2.9c-1.62,0-2.9-1.27-2.9-2.9s1.27-2.9,2.9-2.9ZM437.45,598.22c1.51,0,2.78,1.27,2.78,2.9,0,1.51-1.27,2.78-2.78,2.78-1.62,0-2.9-1.28-2.9-2.78,0-1.62,1.27-2.9,2.9-2.9ZM444.52,533.9c1.62,0,2.9,1.28,2.9,2.9,0,1.51-1.27,2.78-2.9,2.78-1.51,0-2.78-1.27-2.78-2.78,0-1.62,1.27-2.9,2.78-2.9ZM444.52,541.09c1.62,0,2.9,1.27,2.9,2.78,0,1.62-1.27,2.9-2.9,2.9-1.51,0-2.78-1.28-2.78-2.9,0-1.51,1.27-2.78,2.78-2.78ZM444.52,548.16c1.62,0,2.9,1.28,2.9,2.9s-1.27,2.9-2.9,2.9c-1.51,0-2.78-1.28-2.78-2.9s1.27-2.9,2.78-2.9ZM444.52,555.34c1.62,0,2.9,1.27,2.9,2.9,0,1.51-1.27,2.78-2.9,2.78-1.51,0-2.78-1.28-2.78-2.78,0-1.62,1.27-2.9,2.78-2.9ZM444.52,562.53c1.62,0,2.9,1.27,2.9,2.78,0,1.62-1.27,2.9-2.9,2.9-1.51,0-2.78-1.28-2.78-2.9,0-1.51,1.27-2.78,2.78-2.78ZM444.52,569.6c1.62,0,2.9,1.27,2.9,2.9s-1.27,2.9-2.9,2.9c-1.51,0-2.78-1.28-2.78-2.9s1.27-2.9,2.78-2.9ZM444.52,576.78c1.62,0,2.9,1.27,2.9,2.9,0,1.51-1.27,2.78-2.9,2.78-1.51,0-2.78-1.28-2.78-2.78,0-1.62,1.27-2.9,2.78-2.9ZM444.52,583.96c1.62,0,2.9,1.27,2.9,2.78,0,1.62-1.27,2.9-2.9,2.9-1.51,0-2.78-1.28-2.78-2.9,0-1.51,1.27-2.78,2.78-2.78ZM444.52,591.03c1.62,0,2.9,1.27,2.9,2.9s-1.27,2.9-2.9,2.9c-1.51,0-2.78-1.27-2.78-2.9s1.27-2.9,2.78-2.9ZM444.52,598.22c1.62,0,2.9,1.27,2.9,2.9,0,1.51-1.27,2.78-2.9,2.78-1.51,0-2.78-1.28-2.78-2.78,0-1.62,1.27-2.9,2.78-2.9ZM444.52,605.4c1.62,0,2.9,1.28,2.9,2.78,0,1.62-1.27,2.9-2.9,2.9-1.51,0-2.78-1.27-2.78-2.9,0-1.51,1.27-2.78,2.78-2.78ZM451.71,533.9c1.62,0,2.9,1.28,2.9,2.9,0,1.51-1.27,2.78-2.9,2.78s-2.9-1.27-2.9-2.78c0-1.62,1.27-2.9,2.9-2.9ZM451.71,541.09c1.62,0,2.9,1.27,2.9,2.78,0,1.62-1.27,2.9-2.9,2.9s-2.9-1.28-2.9-2.9c0-1.51,1.27-2.78,2.9-2.78ZM451.71,548.16c1.62,0,2.9,1.28,2.9,2.9s-1.27,2.9-2.9,2.9-2.9-1.28-2.9-2.9,1.27-2.9,2.9-2.9ZM451.71,555.34c1.62,0,2.9,1.27,2.9,2.9,0,1.51-1.27,2.78-2.9,2.78s-2.9-1.28-2.9-2.78c0-1.62,1.27-2.9,2.9-2.9ZM451.71,562.53c1.62,0,2.9,1.27,2.9,2.78,0,1.62-1.27,2.9-2.9,2.9s-2.9-1.28-2.9-2.9c0-1.51,1.27-2.78,2.9-2.78ZM451.71,569.6c1.62,0,2.9,1.27,2.9,2.9s-1.27,2.9-2.9,2.9-2.9-1.28-2.9-2.9,1.27-2.9,2.9-2.9ZM451.71,576.78c1.62,0,2.9,1.27,2.9,2.9,0,1.51-1.27,2.78-2.9,2.78s-2.9-1.28-2.9-2.78c0-1.62,1.27-2.9,2.9-2.9ZM451.71,583.96c1.62,0,2.9,1.27,2.9,2.78,0,1.62-1.27,2.9-2.9,2.9s-2.9-1.28-2.9-2.9c0-1.51,1.27-2.78,2.9-2.78ZM451.71,591.03c1.62,0,2.9,1.27,2.9,2.9s-1.27,2.9-2.9,2.9-2.9-1.27-2.9-2.9,1.27-2.9,2.9-2.9ZM451.71,598.22c1.62,0,2.9,1.27,2.9,2.9,0,1.51-1.27,2.78-2.9,2.78s-2.9-1.28-2.9-2.78c0-1.62,1.27-2.9,2.9-2.9ZM451.71,605.4c1.62,0,2.9,1.28,2.9,2.78,0,1.62-1.27,2.9-2.9,2.9s-2.9-1.27-2.9-2.9c0-1.51,1.27-2.78,2.9-2.78ZM458.89,533.9c1.51,0,2.78,1.28,2.78,2.9,0,1.51-1.27,2.78-2.78,2.78-1.62,0-2.9-1.27-2.9-2.78,0-1.62,1.27-2.9,2.9-2.9ZM458.89,541.09c1.51,0,2.78,1.27,2.78,2.78,0,1.62-1.27,2.9-2.78,2.9-1.62,0-2.9-1.28-2.9-2.9,0-1.51,1.27-2.78,2.9-2.78ZM458.89,548.16c1.51,0,2.78,1.28,2.78,2.9s-1.27,2.9-2.78,2.9c-1.62,0-2.9-1.28-2.9-2.9s1.27-2.9,2.9-2.9ZM458.89,591.03c1.51,0,2.78,1.27,2.78,2.9s-1.27,2.9-2.78,2.9c-1.62,0-2.9-1.27-2.9-2.9s1.27-2.9,2.9-2.9ZM458.89,598.22c1.51,0,2.78,1.27,2.78,2.9,0,1.51-1.27,2.78-2.78,2.78-1.62,0-2.9-1.28-2.9-2.78,0-1.62,1.27-2.9,2.9-2.9ZM458.89,605.4c1.51,0,2.78,1.28,2.78,2.78,0,1.62-1.27,2.9-2.78,2.9-1.62,0-2.9-1.27-2.9-2.9,0-1.51,1.27-2.78,2.9-2.78ZM465.96,533.9c1.62,0,2.9,1.28,2.9,2.9,0,1.51-1.27,2.78-2.9,2.78-1.51,0-2.78-1.27-2.78-2.78,0-1.62,1.27-2.9,2.78-2.9ZM465.96,541.09c1.62,0,2.9,1.27,2.9,2.78,0,1.62-1.27,2.9-2.9,2.9-1.51,0-2.78-1.28-2.78-2.9,0-1.51,1.27-2.78,2.78-2.78ZM465.96,548.16c1.62,0,2.9,1.28,2.9,2.9s-1.27,2.9-2.9,2.9c-1.51,0-2.78-1.28-2.78-2.9s1.27-2.9,2.78-2.9ZM465.96,555.34c1.62,0,2.9,1.27,2.9,2.9,0,1.51-1.27,2.78-2.9,2.78-1.51,0-2.78-1.28-2.78-2.78,0-1.62,1.27-2.9,2.78-2.9ZM465.96,562.53c1.62,0,2.9,1.27,2.9,2.78,0,1.62-1.27,2.9-2.9,2.9-1.51,0-2.78-1.28-2.78-2.9,0-1.51,1.27-2.78,2.78-2.78ZM465.96,569.6c1.62,0,2.9,1.27,2.9,2.9s-1.27,2.9-2.9,2.9c-1.51,0-2.78-1.28-2.78-2.9s1.27-2.9,2.78-2.9ZM465.96,576.78c1.62,0,2.9,1.27,2.9,2.9,0,1.51-1.27,2.78-2.9,2.78-1.51,0-2.78-1.28-2.78-2.78,0-1.62,1.27-2.9,2.78-2.9ZM465.96,583.96c1.62,0,2.9,1.27,2.9,2.78,0,1.62-1.27,2.9-2.9,2.9-1.51,0-2.78-1.28-2.78-2.9,0-1.51,1.27-2.78,2.78-2.78ZM465.96,591.03c1.62,0,2.9,1.27,2.9,2.9s-1.27,2.9-2.9,2.9c-1.51,0-2.78-1.27-2.78-2.9s1.27-2.9,2.78-2.9ZM465.96,598.22c1.62,0,2.9,1.27,2.9,2.9,0,1.51-1.27,2.78-2.9,2.78-1.51,0-2.78-1.28-2.78-2.78,0-1.62,1.27-2.9,2.78-2.9ZM465.96,605.4c1.62,0,2.9,1.28,2.9,2.78,0,1.62-1.27,2.9-2.9,2.9-1.51,0-2.78-1.27-2.78-2.9,0-1.51,1.27-2.78,2.78-2.78ZM473.15,533.9c1.62,0,2.9,1.28,2.9,2.9,0,1.51-1.27,2.78-2.9,2.78s-2.9-1.27-2.9-2.78c0-1.62,1.27-2.9,2.9-2.9ZM473.15,541.09c1.62,0,2.9,1.27,2.9,2.78,0,1.62-1.27,2.9-2.9,2.9s-2.9-1.28-2.9-2.9c0-1.51,1.27-2.78,2.9-2.78ZM473.15,548.16c1.62,0,2.9,1.28,2.9,2.9s-1.27,2.9-2.9,2.9-2.9-1.28-2.9-2.9,1.27-2.9,2.9-2.9ZM473.15,555.34c1.62,0,2.9,1.27,2.9,2.9,0,1.51-1.27,2.78-2.9,2.78s-2.9-1.28-2.9-2.78c0-1.62,1.27-2.9,2.9-2.9ZM473.15,562.53c1.62,0,2.9,1.27,2.9,2.78,0,1.62-1.27,2.9-2.9,2.9s-2.9-1.28-2.9-2.9c0-1.51,1.27-2.78,2.9-2.78ZM473.15,569.6c1.62,0,2.9,1.27,2.9,2.9s-1.27,2.9-2.9,2.9-2.9-1.28-2.9-2.9,1.27-2.9,2.9-2.9ZM473.15,576.78c1.62,0,2.9,1.27,2.9,2.9,0,1.51-1.27,2.78-2.9,2.78s-2.9-1.28-2.9-2.78c0-1.62,1.27-2.9,2.9-2.9ZM473.15,583.96c1.62,0,2.9,1.27,2.9,2.78,0,1.62-1.27,2.9-2.9,2.9s-2.9-1.28-2.9-2.9c0-1.51,1.27-2.78,2.9-2.78ZM473.15,591.03c1.62,0,2.9,1.27,2.9,2.9s-1.27,2.9-2.9,2.9-2.9-1.27-2.9-2.9,1.27-2.9,2.9-2.9ZM473.15,598.22c1.62,0,2.9,1.27,2.9,2.9,0,1.51-1.27,2.78-2.9,2.78s-2.9-1.28-2.9-2.78c0-1.62,1.27-2.9,2.9-2.9ZM473.15,605.4c1.62,0,2.9,1.28,2.9,2.78,0,1.62-1.27,2.9-2.9,2.9s-2.9-1.27-2.9-2.9c0-1.51,1.27-2.78,2.9-2.78ZM480.33,541.09c1.51,0,2.78,1.27,2.78,2.78,0,1.62-1.27,2.9-2.78,2.9-1.62,0-2.9-1.28-2.9-2.9,0-1.51,1.27-2.78,2.9-2.78ZM480.33,548.16c1.51,0,2.78,1.28,2.78,2.9s-1.27,2.9-2.78,2.9c-1.62,0-2.9-1.28-2.9-2.9s1.27-2.9,2.9-2.9ZM480.33,555.34c1.51,0,2.78,1.27,2.78,2.9,0,1.51-1.27,2.78-2.78,2.78-1.62,0-2.9-1.28-2.9-2.78,0-1.62,1.27-2.9,2.9-2.9ZM480.33,562.53c1.51,0,2.78,1.27,2.78,2.78,0,1.62-1.27,2.9-2.78,2.9-1.62,0-2.9-1.28-2.9-2.9,0-1.51,1.27-2.78,2.9-2.78ZM480.33,569.6c1.51,0,2.78,1.27,2.78,2.9s-1.27,2.9-2.78,2.9c-1.62,0-2.9-1.28-2.9-2.9s1.27-2.9,2.9-2.9ZM480.33,576.78c1.51,0,2.78,1.27,2.78,2.9,0,1.51-1.27,2.78-2.78,2.78-1.62,0-2.9-1.28-2.9-2.78,0-1.62,1.27-2.9,2.9-2.9ZM480.33,583.96c1.51,0,2.78,1.27,2.78,2.78,0,1.62-1.27,2.9-2.78,2.9-1.62,0-2.9-1.28-2.9-2.9,0-1.51,1.27-2.78,2.9-2.78ZM480.33,591.03c1.51,0,2.78,1.27,2.78,2.9s-1.27,2.9-2.78,2.9c-1.62,0-2.9-1.27-2.9-2.9s1.27-2.9,2.9-2.9ZM480.33,598.22c1.51,0,2.78,1.27,2.78,2.9,0,1.51-1.27,2.78-2.78,2.78-1.62,0-2.9-1.28-2.9-2.78,0-1.62,1.27-2.9,2.9-2.9Z"/>
    <path class="cls-4" d="M495.28,548.16c1.51,0,2.78,1.28,2.78,2.9s-1.27,2.9-2.78,2.9c-1.62,0-2.9-1.28-2.9-2.9s1.27-2.9,2.9-2.9ZM495.28,555.34c1.51,0,2.78,1.27,2.78,2.9,0,1.51-1.27,2.78-2.78,2.78-1.62,0-2.9-1.28-2.9-2.78,0-1.62,1.27-2.9,2.9-2.9ZM495.28,598.22c1.51,0,2.78,1.27,2.78,2.9,0,1.51-1.27,2.78-2.78,2.78-1.62,0-2.9-1.28-2.9-2.78,0-1.62,1.27-2.9,2.9-2.9ZM495.28,605.4c1.51,0,2.78,1.28,2.78,2.78,0,1.62-1.27,2.9-2.78,2.9-1.62,0-2.9-1.27-2.9-2.9,0-1.51,1.27-2.78,2.9-2.78ZM502.35,548.16c1.62,0,2.9,1.28,2.9,2.9s-1.27,2.9-2.9,2.9c-1.51,0-2.78-1.28-2.78-2.9s1.27-2.9,2.78-2.9ZM502.35,555.34c1.62,0,2.9,1.27,2.9,2.9,0,1.51-1.27,2.78-2.9,2.78-1.51,0-2.78-1.28-2.78-2.78,0-1.62,1.27-2.9,2.78-2.9ZM502.35,598.22c1.62,0,2.9,1.27,2.9,2.9,0,1.51-1.27,2.78-2.9,2.78-1.51,0-2.78-1.28-2.78-2.78,0-1.62,1.27-2.9,2.78-2.9ZM502.35,605.4c1.62,0,2.9,1.28,2.9,2.78,0,1.62-1.27,2.9-2.9,2.9-1.51,0-2.78-1.27-2.78-2.9,0-1.51,1.27-2.78,2.78-2.78Z"/>
    <path class="cls-4" d="M517.41,541.09c1.51,0,2.78,1.27,2.78,2.78,0,1.62-1.27,2.9-2.78,2.9-1.62,0-2.9-1.28-2.9-2.9,0-1.51,1.27-2.78,2.9-2.78ZM517.41,548.16c1.51,0,2.78,1.28,2.78,2.9s-1.27,2.9-2.78,2.9c-1.62,0-2.9-1.28-2.9-2.9s1.27-2.9,2.9-2.9ZM517.41,555.34c1.51,0,2.78,1.27,2.78,2.9,0,1.51-1.27,2.78-2.78,2.78-1.62,0-2.9-1.28-2.9-2.78,0-1.62,1.27-2.9,2.9-2.9ZM517.41,562.53c1.51,0,2.78,1.27,2.78,2.78,0,1.62-1.27,2.9-2.78,2.9-1.62,0-2.9-1.28-2.9-2.9,0-1.51,1.27-2.78,2.9-2.78ZM517.41,569.6c1.51,0,2.78,1.27,2.78,2.9s-1.27,2.9-2.78,2.9c-1.62,0-2.9-1.28-2.9-2.9s1.27-2.9,2.9-2.9ZM517.41,576.78c1.51,0,2.78,1.27,2.78,2.9,0,1.51-1.27,2.78-2.78,2.78-1.62,0-2.9-1.28-2.9-2.78,0-1.62,1.27-2.9,2.9-2.9ZM517.41,583.96c1.51,0,2.78,1.27,2.78,2.78,0,1.62-1.27,2.9-2.78,2.9-1.62,0-2.9-1.28-2.9-2.9,0-1.51,1.27-2.78,2.9-2.78ZM517.41,591.03c1.51,0,2.78,1.27,2.78,2.9s-1.27,2.9-2.78,2.9c-1.62,0-2.9-1.27-2.9-2.9s1.27-2.9,2.9-2.9ZM517.41,598.22c1.51,0,2.78,1.27,2.78,2.9,0,1.51-1.27,2.78-2.78,2.78-1.62,0-2.9-1.28-2.9-2.78,0-1.62,1.27-2.9,2.9-2.9ZM524.48,533.9c1.62,0,2.9,1.28,2.9,2.9,0,1.51-1.27,2.78-2.9,2.78-1.51,0-2.78-1.27-2.78-2.78,0-1.62,1.27-2.9,2.78-2.9ZM524.48,541.09c1.62,0,2.9,1.27,2.9,2.78,0,1.62-1.27,2.9-2.9,2.9-1.51,0-2.78-1.28-2.78-2.9,0-1.51,1.27-2.78,2.78-2.78ZM524.48,548.16c1.62,0,2.9,1.28,2.9,2.9s-1.27,2.9-2.9,2.9c-1.51,0-2.78-1.28-2.78-2.9s1.27-2.9,2.78-2.9ZM524.48,555.34c1.62,0,2.9,1.27,2.9,2.9,0,1.51-1.27,2.78-2.9,2.78-1.51,0-2.78-1.28-2.78-2.78,0-1.62,1.27-2.9,2.78-2.9ZM524.48,562.53c1.62,0,2.9,1.27,2.9,2.78,0,1.62-1.27,2.9-2.9,2.9-1.51,0-2.78-1.28-2.78-2.9,0-1.51,1.27-2.78,2.78-2.78ZM524.48,569.6c1.62,0,2.9,1.27,2.9,2.9s-1.27,2.9-2.9,2.9c-1.51,0-2.78-1.28-2.78-2.9s1.27-2.9,2.78-2.9ZM524.48,576.78c1.62,0,2.9,1.27,2.9,2.9,0,1.51-1.27,2.78-2.9,2.78-1.51,0-2.78-1.28-2.78-2.78,0-1.62,1.27-2.9,2.78-2.9ZM524.48,583.96c1.62,0,2.9,1.27,2.9,2.78,0,1.62-1.27,2.9-2.9,2.9-1.51,0-2.78-1.28-2.78-2.9,0-1.51,1.27-2.78,2.78-2.78ZM524.48,591.03c1.62,0,2.9,1.27,2.9,2.9s-1.27,2.9-2.9,2.9c-1.51,0-2.78-1.27-2.78-2.9s1.27-2.9,2.78-2.9ZM524.48,598.22c1.62,0,2.9,1.27,2.9,2.9,0,1.51-1.27,2.78-2.9,2.78-1.51,0-2.78-1.28-2.78-2.78,0-1.62,1.27-2.9,2.78-2.9ZM524.48,605.4c1.62,0,2.9,1.28,2.9,2.78,0,1.62-1.27,2.9-2.9,2.9-1.51,0-2.78-1.27-2.78-2.9,0-1.51,1.27-2.78,2.78-2.78ZM531.67,533.9c1.62,0,2.9,1.28,2.9,2.9,0,1.51-1.27,2.78-2.9,2.78s-2.9-1.27-2.9-2.78c0-1.62,1.27-2.9,2.9-2.9ZM531.67,541.09c1.62,0,2.9,1.27,2.9,2.78,0,1.62-1.27,2.9-2.9,2.9s-2.9-1.28-2.9-2.9c0-1.51,1.27-2.78,2.9-2.78ZM531.67,548.16c1.62,0,2.9,1.28,2.9,2.9s-1.27,2.9-2.9,2.9-2.9-1.28-2.9-2.9,1.27-2.9,2.9-2.9ZM531.67,555.34c1.62,0,2.9,1.27,2.9,2.9,0,1.51-1.27,2.78-2.9,2.78s-2.9-1.28-2.9-2.78c0-1.62,1.27-2.9,2.9-2.9ZM531.67,562.53c1.62,0,2.9,1.27,2.9,2.78,0,1.62-1.27,2.9-2.9,2.9s-2.9-1.28-2.9-2.9c0-1.51,1.27-2.78,2.9-2.78ZM531.67,569.6c1.62,0,2.9,1.27,2.9,2.9s-1.27,2.9-2.9,2.9-2.9-1.28-2.9-2.9,1.27-2.9,2.9-2.9ZM531.67,576.78c1.62,0,2.9,1.27,2.9,2.9,0,1.51-1.27,2.78-2.9,2.78s-2.9-1.28-2.9-2.78c0-1.62,1.27-2.9,2.9-2.9ZM531.67,583.96c1.62,0,2.9,1.27,2.9,2.78,0,1.62-1.27,2.9-2.9,2.9s-2.9-1.28-2.9-2.9c0-1.51,1.27-2.78,2.9-2.78ZM531.67,591.03c1.62,0,2.9,1.27,2.9,2.9s-1.27,2.9-2.9,2.9-2.9-1.27-2.9-2.9,1.27-2.9,2.9-2.9ZM531.67,598.22c1.62,0,2.9,1.27,2.9,2.9,0,1.51-1.27,2.78-2.9,2.78s-2.9-1.28-2.9-2.78c0-1.62,1.27-2.9,2.9-2.9ZM531.67,605.4c1.62,0,2.9,1.28,2.9,2.78,0,1.62-1.27,2.9-2.9,2.9s-2.9-1.27-2.9-2.9c0-1.51,1.27-2.78,2.9-2.78ZM538.85,533.9c1.51,0,2.78,1.28,2.78,2.9,0,1.51-1.27,2.78-2.78,2.78-1.62,0-2.9-1.27-2.9-2.78,0-1.62,1.27-2.9,2.9-2.9ZM538.85,541.09c1.51,0,2.78,1.27,2.78,2.78,0,1.62-1.27,2.9-2.78,2.9-1.62,0-2.9-1.28-2.9-2.9,0-1.51,1.27-2.78,2.9-2.78ZM538.85,548.16c1.51,0,2.78,1.28,2.78,2.9s-1.27,2.9-2.78,2.9c-1.62,0-2.9-1.28-2.9-2.9s1.27-2.9,2.9-2.9ZM538.85,591.03c1.51,0,2.78,1.27,2.78,2.9s-1.27,2.9-2.78,2.9c-1.62,0-2.9-1.27-2.9-2.9s1.27-2.9,2.9-2.9ZM538.85,598.22c1.51,0,2.78,1.27,2.78,2.9,0,1.51-1.27,2.78-2.78,2.78-1.62,0-2.9-1.28-2.9-2.78,0-1.62,1.27-2.9,2.9-2.9ZM538.85,605.4c1.51,0,2.78,1.28,2.78,2.78,0,1.62-1.27,2.9-2.78,2.9-1.62,0-2.9-1.27-2.9-2.9,0-1.51,1.27-2.78,2.9-2.78ZM545.92,533.9c1.62,0,2.9,1.28,2.9,2.9,0,1.51-1.27,2.78-2.9,2.78-1.51,0-2.78-1.27-2.78-2.78,0-1.62,1.27-2.9,2.78-2.9ZM545.92,541.09c1.62,0,2.9,1.27,2.9,2.78,0,1.62-1.27,2.9-2.9,2.9-1.51,0-2.78-1.28-2.78-2.9,0-1.51,1.27-2.78,2.78-2.78ZM545.92,548.16c1.62,0,2.9,1.28,2.9,2.9s-1.27,2.9-2.9,2.9c-1.51,0-2.78-1.28-2.78-2.9s1.27-2.9,2.78-2.9ZM545.92,555.34c1.62,0,2.9,1.27,2.9,2.9,0,1.51-1.27,2.78-2.9,2.78-1.51,0-2.78-1.28-2.78-2.78,0-1.62,1.27-2.9,2.78-2.9ZM545.92,562.53c1.62,0,2.9,1.27,2.9,2.78,0,1.62-1.27,2.9-2.9,2.9-1.51,0-2.78-1.28-2.78-2.9,0-1.51,1.27-2.78,2.78-2.78ZM545.92,569.6c1.62,0,2.9,1.27,2.9,2.9s-1.27,2.9-2.9,2.9c-1.51,0-2.78-1.28-2.78-2.9s1.27-2.9,2.78-2.9ZM545.92,576.78c1.62,0,2.9,1.27,2.9,2.9,0,1.51-1.27,2.78-2.9,2.78-1.51,0-2.78-1.28-2.78-2.78,0-1.62,1.27-2.9,2.78-2.9ZM545.92,583.96c1.62,0,2.9,1.27,2.9,2.78,0,1.62-1.27,2.9-2.9,2.9-1.51,0-2.78-1.28-2.78-2.9,0-1.51,1.27-2.78,2.78-2.78ZM545.92,591.03c1.62,0,2.9,1.27,2.9,2.9s-1.27,2.9-2.9,2.9c-1.51,0-2.78-1.27-2.78-2.9s1.27-2.9,2.78-2.9ZM545.92,598.22c1.62,0,2.9,1.27,2.9,2.9,0,1.51-1.27,2.78-2.9,2.78-1.51,0-2.78-1.28-2.78-2.78,0-1.62,1.27-2.9,2.78-2.9ZM545.92,605.4c1.62,0,2.9,1.28,2.9,2.78,0,1.62-1.27,2.9-2.9,2.9-1.51,0-2.78-1.27-2.78-2.9,0-1.51,1.27-2.78,2.78-2.78ZM553.11,533.9c1.62,0,2.9,1.28,2.9,2.9,0,1.51-1.27,2.78-2.9,2.78s-2.9-1.27-2.9-2.78c0-1.62,1.27-2.9,2.9-2.9ZM553.11,541.09c1.62,0,2.9,1.27,2.9,2.78,0,1.62-1.27,2.9-2.9,2.9s-2.9-1.28-2.9-2.9c0-1.51,1.27-2.78,2.9-2.78ZM553.11,548.16c1.62,0,2.9,1.28,2.9,2.9s-1.27,2.9-2.9,2.9-2.9-1.28-2.9-2.9,1.27-2.9,2.9-2.9ZM553.11,555.34c1.62,0,2.9,1.27,2.9,2.9,0,1.51-1.27,2.78-2.9,2.78s-2.9-1.28-2.9-2.78c0-1.62,1.27-2.9,2.9-2.9ZM553.11,562.53c1.62,0,2.9,1.27,2.9,2.78,0,1.62-1.27,2.9-2.9,2.9s-2.9-1.28-2.9-2.9c0-1.51,1.27-2.78,2.9-2.78ZM553.11,569.6c1.62,0,2.9,1.27,2.9,2.9s-1.27,2.9-2.9,2.9-2.9-1.28-2.9-2.9,1.27-2.9,2.9-2.9ZM553.11,576.78c1.62,0,2.9,1.27,2.9,2.9,0,1.51-1.27,2.78-2.9,2.78s-2.9-1.28-2.9-2.78c0-1.62,1.27-2.9,2.9-2.9ZM553.11,583.96c1.62,0,2.9,1.27,2.9,2.78,0,1.62-1.27,2.9-2.9,2.9s-2.9-1.28-2.9-2.9c0-1.51,1.27-2.78,2.9-2.78ZM553.11,591.03c1.62,0,2.9,1.27,2.9,2.9s-1.27,2.9-2.9,2.9-2.9-1.27-2.9-2.9,1.27-2.9,2.9-2.9ZM553.11,598.22c1.62,0,2.9,1.27,2.9,2.9,0,1.51-1.27,2.78-2.9,2.78s-2.9-1.28-2.9-2.78c0-1.62,1.27-2.9,2.9-2.9ZM553.11,605.4c1.62,0,2.9,1.28,2.9,2.78,0,1.62-1.27,2.9-2.9,2.9s-2.9-1.27-2.9-2.9c0-1.51,1.27-2.78,2.9-2.78ZM560.29,541.09c1.51,0,2.78,1.27,2.78,2.78,0,1.62-1.27,2.9-2.78,2.9-1.62,0-2.9-1.28-2.9-2.9,0-1.51,1.27-2.78,2.9-2.78ZM560.29,548.16c1.51,0,2.78,1.28,2.78,2.9s-1.27,2.9-2.78,2.9c-1.62,0-2.9-1.28-2.9-2.9s1.27-2.9,2.9-2.9ZM560.29,555.34c1.51,0,2.78,1.27,2.78,2.9,0,1.51-1.27,2.78-2.78,2.78-1.62,0-2.9-1.28-2.9-2.78,0-1.62,1.27-2.9,2.9-2.9ZM560.29,562.53c1.51,0,2.78,1.27,2.78,2.78,0,1.62-1.27,2.9-2.78,2.9-1.62,0-2.9-1.28-2.9-2.9,0-1.51,1.27-2.78,2.9-2.78ZM560.29,569.6c1.51,0,2.78,1.27,2.78,2.9s-1.27,2.9-2.78,2.9c-1.62,0-2.9-1.28-2.9-2.9s1.27-2.9,2.9-2.9ZM560.29,576.78c1.51,0,2.78,1.27,2.78,2.9,0,1.51-1.27,2.78-2.78,2.78-1.62,0-2.9-1.28-2.9-2.78,0-1.62,1.27-2.9,2.9-2.9ZM560.29,583.96c1.51,0,2.78,1.27,2.78,2.78,0,1.62-1.27,2.9-2.78,2.9-1.62,0-2.9-1.28-2.9-2.9,0-1.51,1.27-2.78,2.9-2.78ZM560.29,591.03c1.51,0,2.78,1.27,2.78,2.9s-1.27,2.9-2.78,2.9c-1.62,0-2.9-1.27-2.9-2.9s1.27-2.9,2.9-2.9ZM560.29,598.22c1.51,0,2.78,1.27,2.78,2.9,0,1.51-1.27,2.78-2.78,2.78-1.62,0-2.9-1.28-2.9-2.78,0-1.62,1.27-2.9,2.9-2.9Z"/>
    <path class="cls-4" d="M575.24,541.09c1.51,0,2.78,1.27,2.78,2.78,0,1.62-1.27,2.9-2.78,2.9-1.62,0-2.9-1.28-2.9-2.9,0-1.51,1.27-2.78,2.9-2.78ZM575.24,548.16c1.51,0,2.78,1.28,2.78,2.9s-1.27,2.9-2.78,2.9c-1.62,0-2.9-1.28-2.9-2.9s1.27-2.9,2.9-2.9ZM575.24,555.34c1.51,0,2.78,1.27,2.78,2.9,0,1.51-1.27,2.78-2.78,2.78-1.62,0-2.9-1.28-2.9-2.78,0-1.62,1.27-2.9,2.9-2.9ZM575.24,562.53c1.51,0,2.78,1.27,2.78,2.78,0,1.62-1.27,2.9-2.78,2.9-1.62,0-2.9-1.28-2.9-2.9,0-1.51,1.27-2.78,2.9-2.78ZM575.24,569.6c1.51,0,2.78,1.27,2.78,2.9s-1.27,2.9-2.78,2.9c-1.62,0-2.9-1.28-2.9-2.9s1.27-2.9,2.9-2.9ZM575.24,576.78c1.51,0,2.78,1.27,2.78,2.9,0,1.51-1.27,2.78-2.78,2.78-1.62,0-2.9-1.28-2.9-2.78,0-1.62,1.27-2.9,2.9-2.9ZM575.24,583.96c1.51,0,2.78,1.27,2.78,2.78,0,1.62-1.27,2.9-2.78,2.9-1.62,0-2.9-1.28-2.9-2.9,0-1.51,1.27-2.78,2.9-2.78ZM575.24,591.03c1.51,0,2.78,1.27,2.78,2.9s-1.27,2.9-2.78,2.9c-1.62,0-2.9-1.27-2.9-2.9s1.27-2.9,2.9-2.9ZM575.24,598.22c1.51,0,2.78,1.27,2.78,2.9,0,1.51-1.27,2.78-2.78,2.78-1.62,0-2.9-1.28-2.9-2.78,0-1.62,1.27-2.9,2.9-2.9ZM582.31,533.9c1.62,0,2.9,1.28,2.9,2.9,0,1.51-1.27,2.78-2.9,2.78-1.51,0-2.78-1.27-2.78-2.78,0-1.62,1.27-2.9,2.78-2.9ZM582.31,541.09c1.62,0,2.9,1.27,2.9,2.78,0,1.62-1.27,2.9-2.9,2.9-1.51,0-2.78-1.28-2.78-2.9,0-1.51,1.27-2.78,2.78-2.78ZM582.31,548.16c1.62,0,2.9,1.28,2.9,2.9s-1.27,2.9-2.9,2.9c-1.51,0-2.78-1.28-2.78-2.9s1.27-2.9,2.78-2.9ZM582.31,555.34c1.62,0,2.9,1.27,2.9,2.9,0,1.51-1.27,2.78-2.9,2.78-1.51,0-2.78-1.28-2.78-2.78,0-1.62,1.27-2.9,2.78-2.9ZM582.31,562.53c1.62,0,2.9,1.27,2.9,2.78,0,1.62-1.27,2.9-2.9,2.9-1.51,0-2.78-1.28-2.78-2.9,0-1.51,1.27-2.78,2.78-2.78ZM582.31,569.6c1.62,0,2.9,1.27,2.9,2.9s-1.27,2.9-2.9,2.9c-1.51,0-2.78-1.28-2.78-2.9s1.27-2.9,2.78-2.9ZM582.31,576.78c1.62,0,2.9,1.27,2.9,2.9,0,1.51-1.27,2.78-2.9,2.78-1.51,0-2.78-1.28-2.78-2.78,0-1.62,1.27-2.9,2.78-2.9ZM582.31,583.96c1.62,0,2.9,1.27,2.9,2.78,0,1.62-1.27,2.9-2.9,2.9-1.51,0-2.78-1.28-2.78-2.9,0-1.51,1.27-2.78,2.78-2.78ZM582.31,591.03c1.62,0,2.9,1.27,2.9,2.9s-1.27,2.9-2.9,2.9c-1.51,0-2.78-1.27-2.78-2.9s1.27-2.9,2.78-2.9ZM582.31,598.22c1.62,0,2.9,1.27,2.9,2.9,0,1.51-1.27,2.78-2.9,2.78-1.51,0-2.78-1.28-2.78-2.78,0-1.62,1.27-2.9,2.78-2.9ZM582.31,605.4c1.62,0,2.9,1.28,2.9,2.78,0,1.62-1.27,2.9-2.9,2.9-1.51,0-2.78-1.27-2.78-2.9,0-1.51,1.27-2.78,2.78-2.78ZM589.49,533.9c1.62,0,2.9,1.28,2.9,2.9,0,1.51-1.27,2.78-2.9,2.78s-2.9-1.27-2.9-2.78c0-1.62,1.27-2.9,2.9-2.9ZM589.49,541.09c1.62,0,2.9,1.27,2.9,2.78,0,1.62-1.27,2.9-2.9,2.9s-2.9-1.28-2.9-2.9c0-1.51,1.27-2.78,2.9-2.78ZM589.49,548.16c1.62,0,2.9,1.28,2.9,2.9s-1.27,2.9-2.9,2.9-2.9-1.28-2.9-2.9,1.27-2.9,2.9-2.9ZM589.49,555.34c1.62,0,2.9,1.27,2.9,2.9,0,1.51-1.27,2.78-2.9,2.78s-2.9-1.28-2.9-2.78c0-1.62,1.27-2.9,2.9-2.9ZM589.49,562.53c1.62,0,2.9,1.27,2.9,2.78,0,1.62-1.27,2.9-2.9,2.9s-2.9-1.28-2.9-2.9c0-1.51,1.27-2.78,2.9-2.78ZM589.49,569.6c1.62,0,2.9,1.27,2.9,2.9s-1.27,2.9-2.9,2.9-2.9-1.28-2.9-2.9,1.27-2.9,2.9-2.9ZM589.49,576.78c1.62,0,2.9,1.27,2.9,2.9,0,1.51-1.27,2.78-2.9,2.78s-2.9-1.28-2.9-2.78c0-1.62,1.27-2.9,2.9-2.9ZM589.49,583.96c1.62,0,2.9,1.27,2.9,2.78,0,1.62-1.27,2.9-2.9,2.9s-2.9-1.28-2.9-2.9c0-1.51,1.27-2.78,2.9-2.78ZM589.49,591.03c1.62,0,2.9,1.27,2.9,2.9s-1.27,2.9-2.9,2.9-2.9-1.27-2.9-2.9,1.27-2.9,2.9-2.9ZM589.49,598.22c1.62,0,2.9,1.27,2.9,2.9,0,1.51-1.27,2.78-2.9,2.78s-2.9-1.28-2.9-2.78c0-1.62,1.27-2.9,2.9-2.9ZM589.49,605.4c1.62,0,2.9,1.28,2.9,2.78,0,1.62-1.27,2.9-2.9,2.9s-2.9-1.27-2.9-2.9c0-1.51,1.27-2.78,2.9-2.78ZM596.68,533.9c1.51,0,2.78,1.28,2.78,2.9,0,1.51-1.27,2.78-2.78,2.78-1.62,0-2.9-1.27-2.9-2.78,0-1.62,1.27-2.9,2.9-2.9ZM596.68,541.09c1.51,0,2.78,1.27,2.78,2.78,0,1.62-1.27,2.9-2.78,2.9-1.62,0-2.9-1.28-2.9-2.9,0-1.51,1.27-2.78,2.9-2.78ZM596.68,548.16c1.51,0,2.78,1.28,2.78,2.9s-1.27,2.9-2.78,2.9c-1.62,0-2.9-1.28-2.9-2.9s1.27-2.9,2.9-2.9ZM596.68,591.03c1.51,0,2.78,1.27,2.78,2.9s-1.27,2.9-2.78,2.9c-1.62,0-2.9-1.27-2.9-2.9s1.27-2.9,2.9-2.9ZM596.68,598.22c1.51,0,2.78,1.27,2.78,2.9,0,1.51-1.27,2.78-2.78,2.78-1.62,0-2.9-1.28-2.9-2.78,0-1.62,1.27-2.9,2.9-2.9ZM596.68,605.4c1.51,0,2.78,1.28,2.78,2.78,0,1.62-1.27,2.9-2.78,2.9-1.62,0-2.9-1.27-2.9-2.9,0-1.51,1.27-2.78,2.9-2.78ZM603.75,533.9c1.62,0,2.9,1.28,2.9,2.9,0,1.51-1.27,2.78-2.9,2.78-1.51,0-2.78-1.27-2.78-2.78,0-1.62,1.27-2.9,2.78-2.9ZM603.75,541.09c1.62,0,2.9,1.27,2.9,2.78,0,1.62-1.27,2.9-2.9,2.9-1.51,0-2.78-1.28-2.78-2.9,0-1.51,1.27-2.78,2.78-2.78ZM603.75,548.16c1.62,0,2.9,1.28,2.9,2.9s-1.27,2.9-2.9,2.9c-1.51,0-2.78-1.28-2.78-2.9s1.27-2.9,2.78-2.9ZM603.75,555.34c1.62,0,2.9,1.27,2.9,2.9,0,1.51-1.27,2.78-2.9,2.78-1.51,0-2.78-1.28-2.78-2.78,0-1.62,1.27-2.9,2.78-2.9ZM603.75,562.53c1.62,0,2.9,1.27,2.9,2.78,0,1.62-1.27,2.9-2.9,2.9-1.51,0-2.78-1.28-2.78-2.9,0-1.51,1.27-2.78,2.78-2.78ZM603.75,569.6c1.62,0,2.9,1.27,2.9,2.9s-1.27,2.9-2.9,2.9c-1.51,0-2.78-1.28-2.78-2.9s1.27-2.9,2.78-2.9ZM603.75,576.78c1.62,0,2.9,1.27,2.9,2.9,0,1.51-1.27,2.78-2.9,2.78-1.51,0-2.78-1.28-2.78-2.78,0-1.62,1.27-2.9,2.78-2.9ZM603.75,583.96c1.62,0,2.9,1.27,2.9,2.78,0,1.62-1.27,2.9-2.9,2.9-1.51,0-2.78-1.28-2.78-2.9,0-1.51,1.27-2.78,2.78-2.78ZM603.75,591.03c1.62,0,2.9,1.27,2.9,2.9s-1.27,2.9-2.9,2.9c-1.51,0-2.78-1.27-2.78-2.9s1.27-2.9,2.78-2.9ZM603.75,598.22c1.62,0,2.9,1.27,2.9,2.9,0,1.51-1.27,2.78-2.9,2.78-1.51,0-2.78-1.28-2.78-2.78,0-1.62,1.27-2.9,2.78-2.9ZM603.75,605.4c1.62,0,2.9,1.28,2.9,2.78,0,1.62-1.27,2.9-2.9,2.9-1.51,0-2.78-1.27-2.78-2.9,0-1.51,1.27-2.78,2.78-2.78ZM610.93,533.9c1.62,0,2.9,1.28,2.9,2.9,0,1.51-1.27,2.78-2.9,2.78s-2.9-1.27-2.9-2.78c0-1.62,1.27-2.9,2.9-2.9ZM610.93,541.09c1.62,0,2.9,1.27,2.9,2.78,0,1.62-1.27,2.9-2.9,2.9s-2.9-1.28-2.9-2.9c0-1.51,1.27-2.78,2.9-2.78ZM610.93,548.16c1.62,0,2.9,1.28,2.9,2.9s-1.27,2.9-2.9,2.9-2.9-1.28-2.9-2.9,1.27-2.9,2.9-2.9ZM610.93,555.34c1.62,0,2.9,1.27,2.9,2.9,0,1.51-1.27,2.78-2.9,2.78s-2.9-1.28-2.9-2.78c0-1.62,1.27-2.9,2.9-2.9ZM610.93,562.53c1.62,0,2.9,1.27,2.9,2.78,0,1.62-1.27,2.9-2.9,2.9s-2.9-1.28-2.9-2.9c0-1.51,1.27-2.78,2.9-2.78ZM610.93,569.6c1.62,0,2.9,1.27,2.9,2.9s-1.27,2.9-2.9,2.9-2.9-1.28-2.9-2.9,1.27-2.9,2.9-2.9ZM610.93,576.78c1.62,0,2.9,1.27,2.9,2.9,0,1.51-1.27,2.78-2.9,2.78s-2.9-1.28-2.9-2.78c0-1.62,1.27-2.9,2.9-2.9ZM610.93,583.96c1.62,0,2.9,1.27,2.9,2.78,0,1.62-1.27,2.9-2.9,2.9s-2.9-1.28-2.9-2.9c0-1.51,1.27-2.78,2.9-2.78ZM610.93,591.03c1.62,0,2.9,1.27,2.9,2.9s-1.27,2.9-2.9,2.9-2.9-1.27-2.9-2.9,1.27-2.9,2.9-2.9ZM610.93,598.22c1.62,0,2.9,1.27,2.9,2.9,0,1.51-1.27,2.78-2.9,2.78s-2.9-1.28-2.9-2.78c0-1.62,1.27-2.9,2.9-2.9ZM610.93,605.4c1.62,0,2.9,1.28,2.9,2.78,0,1.62-1.27,2.9-2.9,2.9s-2.9-1.27-2.9-2.9c0-1.51,1.27-2.78,2.9-2.78ZM618.12,541.09c1.51,0,2.78,1.27,2.78,2.78,0,1.62-1.27,2.9-2.78,2.9-1.62,0-2.9-1.28-2.9-2.9,0-1.51,1.27-2.78,2.9-2.78ZM618.12,548.16c1.51,0,2.78,1.28,2.78,2.9s-1.27,2.9-2.78,2.9c-1.62,0-2.9-1.28-2.9-2.9s1.27-2.9,2.9-2.9ZM618.12,555.34c1.51,0,2.78,1.27,2.78,2.9,0,1.51-1.27,2.78-2.78,2.78-1.62,0-2.9-1.28-2.9-2.78,0-1.62,1.27-2.9,2.9-2.9ZM618.12,562.53c1.51,0,2.78,1.27,2.78,2.78,0,1.62-1.27,2.9-2.78,2.9-1.62,0-2.9-1.28-2.9-2.9,0-1.51,1.27-2.78,2.9-2.78ZM618.12,569.6c1.51,0,2.78,1.27,2.78,2.9s-1.27,2.9-2.78,2.9c-1.62,0-2.9-1.28-2.9-2.9s1.27-2.9,2.9-2.9ZM618.12,576.78c1.51,0,2.78,1.27,2.78,2.9,0,1.51-1.27,2.78-2.78,2.78-1.62,0-2.9-1.28-2.9-2.78,0-1.62,1.27-2.9,2.9-2.9ZM618.12,583.96c1.51,0,2.78,1.27,2.78,2.78,0,1.62-1.27,2.9-2.78,2.9-1.62,0-2.9-1.28-2.9-2.9,0-1.51,1.27-2.78,2.9-2.78ZM618.12,591.03c1.51,0,2.78,1.27,2.78,2.9s-1.27,2.9-2.78,2.9c-1.62,0-2.9-1.27-2.9-2.9s1.27-2.9,2.9-2.9ZM618.12,598.22c1.51,0,2.78,1.27,2.78,2.9,0,1.51-1.27,2.78-2.78,2.78-1.62,0-2.9-1.28-2.9-2.78,0-1.62,1.27-2.9,2.9-2.9Z"/>
    <path class="cls-4" d="M633.07,548.16c1.51,0,2.78,1.28,2.78,2.9s-1.27,2.9-2.78,2.9c-1.62,0-2.9-1.28-2.9-2.9s1.27-2.9,2.9-2.9ZM633.07,555.34c1.51,0,2.78,1.27,2.78,2.9,0,1.51-1.27,2.78-2.78,2.78-1.62,0-2.9-1.28-2.9-2.78,0-1.62,1.27-2.9,2.9-2.9ZM633.07,598.22c1.51,0,2.78,1.27,2.78,2.9,0,1.51-1.27,2.78-2.78,2.78-1.62,0-2.9-1.28-2.9-2.78,0-1.62,1.27-2.9,2.9-2.9ZM633.07,605.4c1.51,0,2.78,1.28,2.78,2.78,0,1.62-1.27,2.9-2.78,2.9-1.62,0-2.9-1.27-2.9-2.9,0-1.51,1.27-2.78,2.9-2.78ZM640.13,548.16c1.62,0,2.9,1.28,2.9,2.9s-1.27,2.9-2.9,2.9c-1.51,0-2.78-1.28-2.78-2.9s1.27-2.9,2.78-2.9ZM640.13,555.34c1.62,0,2.9,1.27,2.9,2.9,0,1.51-1.27,2.78-2.9,2.78-1.51,0-2.78-1.28-2.78-2.78,0-1.62,1.27-2.9,2.78-2.9ZM640.13,598.22c1.62,0,2.9,1.27,2.9,2.9,0,1.51-1.27,2.78-2.9,2.78-1.51,0-2.78-1.28-2.78-2.78,0-1.62,1.27-2.9,2.78-2.9ZM640.13,605.4c1.62,0,2.9,1.28,2.9,2.78,0,1.62-1.27,2.9-2.9,2.9-1.51,0-2.78-1.27-2.78-2.9,0-1.51,1.27-2.78,2.78-2.78Z"/>
    <path class="cls-4" d="M655.2,541.09c1.51,0,2.78,1.27,2.78,2.78,0,1.62-1.27,2.9-2.78,2.9-1.62,0-2.9-1.28-2.9-2.9,0-1.51,1.27-2.78,2.9-2.78ZM655.2,548.16c1.51,0,2.78,1.28,2.78,2.9s-1.27,2.9-2.78,2.9c-1.62,0-2.9-1.28-2.9-2.9s1.27-2.9,2.9-2.9ZM655.2,555.34c1.51,0,2.78,1.27,2.78,2.9,0,1.51-1.27,2.78-2.78,2.78-1.62,0-2.9-1.28-2.9-2.78,0-1.62,1.27-2.9,2.9-2.9ZM655.2,562.53c1.51,0,2.78,1.27,2.78,2.78,0,1.62-1.27,2.9-2.78,2.9-1.62,0-2.9-1.28-2.9-2.9,0-1.51,1.27-2.78,2.9-2.78ZM655.2,569.6c1.51,0,2.78,1.27,2.78,2.9s-1.27,2.9-2.78,2.9c-1.62,0-2.9-1.28-2.9-2.9s1.27-2.9,2.9-2.9ZM655.2,576.78c1.51,0,2.78,1.27,2.78,2.9,0,1.51-1.27,2.78-2.78,2.78-1.62,0-2.9-1.28-2.9-2.78,0-1.62,1.27-2.9,2.9-2.9ZM655.2,583.96c1.51,0,2.78,1.27,2.78,2.78,0,1.62-1.27,2.9-2.78,2.9-1.62,0-2.9-1.28-2.9-2.9,0-1.51,1.27-2.78,2.9-2.78ZM655.2,591.03c1.51,0,2.78,1.27,2.78,2.9s-1.27,2.9-2.78,2.9c-1.62,0-2.9-1.27-2.9-2.9s1.27-2.9,2.9-2.9ZM655.2,598.22c1.51,0,2.78,1.27,2.78,2.9,0,1.51-1.27,2.78-2.78,2.78-1.62,0-2.9-1.28-2.9-2.78,0-1.62,1.27-2.9,2.9-2.9ZM662.27,533.9c1.62,0,2.9,1.28,2.9,2.9,0,1.51-1.27,2.78-2.9,2.78-1.51,0-2.78-1.27-2.78-2.78,0-1.62,1.27-2.9,2.78-2.9ZM662.27,541.09c1.62,0,2.9,1.27,2.9,2.78,0,1.62-1.27,2.9-2.9,2.9-1.51,0-2.78-1.28-2.78-2.9,0-1.51,1.27-2.78,2.78-2.78ZM662.27,548.16c1.62,0,2.9,1.28,2.9,2.9s-1.27,2.9-2.9,2.9c-1.51,0-2.78-1.28-2.78-2.9s1.27-2.9,2.78-2.9ZM662.27,555.34c1.62,0,2.9,1.27,2.9,2.9,0,1.51-1.27,2.78-2.9,2.78-1.51,0-2.78-1.28-2.78-2.78,0-1.62,1.27-2.9,2.78-2.9ZM662.27,562.53c1.62,0,2.9,1.27,2.9,2.78,0,1.62-1.27,2.9-2.9,2.9-1.51,0-2.78-1.28-2.78-2.9,0-1.51,1.27-2.78,2.78-2.78ZM662.27,569.6c1.62,0,2.9,1.27,2.9,2.9s-1.27,2.9-2.9,2.9c-1.51,0-2.78-1.28-2.78-2.9s1.27-2.9,2.78-2.9ZM662.27,576.78c1.62,0,2.9,1.27,2.9,2.9,0,1.51-1.27,2.78-2.9,2.78-1.51,0-2.78-1.28-2.78-2.78,0-1.62,1.27-2.9,2.78-2.9ZM662.27,583.96c1.62,0,2.9,1.27,2.9,2.78,0,1.62-1.27,2.9-2.9,2.9-1.51,0-2.78-1.28-2.78-2.9,0-1.51,1.27-2.78,2.78-2.78ZM662.27,591.03c1.62,0,2.9,1.27,2.9,2.9s-1.27,2.9-2.9,2.9c-1.51,0-2.78-1.27-2.78-2.9s1.27-2.9,2.78-2.9ZM662.27,598.22c1.62,0,2.9,1.27,2.9,2.9,0,1.51-1.27,2.78-2.9,2.78-1.51,0-2.78-1.28-2.78-2.78,0-1.62,1.27-2.9,2.78-2.9ZM662.27,605.4c1.62,0,2.9,1.28,2.9,2.78,0,1.62-1.27,2.9-2.9,2.9-1.51,0-2.78-1.27-2.78-2.9,0-1.51,1.27-2.78,2.78-2.78ZM669.45,533.9c1.62,0,2.9,1.28,2.9,2.9,0,1.51-1.27,2.78-2.9,2.78s-2.9-1.27-2.9-2.78c0-1.62,1.27-2.9,2.9-2.9ZM669.45,541.09c1.62,0,2.9,1.27,2.9,2.78,0,1.62-1.27,2.9-2.9,2.9s-2.9-1.28-2.9-2.9c0-1.51,1.27-2.78,2.9-2.78ZM669.45,548.16c1.62,0,2.9,1.28,2.9,2.9s-1.27,2.9-2.9,2.9-2.9-1.28-2.9-2.9,1.27-2.9,2.9-2.9ZM669.45,555.34c1.62,0,2.9,1.27,2.9,2.9,0,1.51-1.27,2.78-2.9,2.78s-2.9-1.28-2.9-2.78c0-1.62,1.27-2.9,2.9-2.9ZM669.45,562.53c1.62,0,2.9,1.27,2.9,2.78,0,1.62-1.27,2.9-2.9,2.9s-2.9-1.28-2.9-2.9c0-1.51,1.27-2.78,2.9-2.78ZM669.45,569.6c1.62,0,2.9,1.27,2.9,2.9s-1.27,2.9-2.9,2.9-2.9-1.28-2.9-2.9,1.27-2.9,2.9-2.9ZM669.45,576.78c1.62,0,2.9,1.27,2.9,2.9,0,1.51-1.27,2.78-2.9,2.78s-2.9-1.28-2.9-2.78c0-1.62,1.27-2.9,2.9-2.9ZM669.45,583.96c1.62,0,2.9,1.27,2.9,2.78,0,1.62-1.27,2.9-2.9,2.9s-2.9-1.28-2.9-2.9c0-1.51,1.27-2.78,2.9-2.78ZM669.45,591.03c1.62,0,2.9,1.27,2.9,2.9s-1.27,2.9-2.9,2.9-2.9-1.27-2.9-2.9,1.27-2.9,2.9-2.9ZM669.45,598.22c1.62,0,2.9,1.27,2.9,2.9,0,1.51-1.27,2.78-2.9,2.78s-2.9-1.28-2.9-2.78c0-1.62,1.27-2.9,2.9-2.9ZM669.45,605.4c1.62,0,2.9,1.28,2.9,2.78,0,1.62-1.27,2.9-2.9,2.9s-2.9-1.27-2.9-2.9c0-1.51,1.27-2.78,2.9-2.78ZM676.64,533.9c1.51,0,2.78,1.28,2.78,2.9,0,1.51-1.27,2.78-2.78,2.78-1.62,0-2.9-1.27-2.9-2.78,0-1.62,1.27-2.9,2.9-2.9ZM676.64,541.09c1.51,0,2.78,1.27,2.78,2.78,0,1.62-1.27,2.9-2.78,2.9-1.62,0-2.9-1.28-2.9-2.9,0-1.51,1.27-2.78,2.9-2.78ZM676.64,548.16c1.51,0,2.78,1.28,2.78,2.9s-1.27,2.9-2.78,2.9c-1.62,0-2.9-1.28-2.9-2.9s1.27-2.9,2.9-2.9ZM676.64,591.03c1.51,0,2.78,1.27,2.78,2.9s-1.27,2.9-2.78,2.9c-1.62,0-2.9-1.27-2.9-2.9s1.27-2.9,2.9-2.9ZM676.64,598.22c1.51,0,2.78,1.27,2.78,2.9,0,1.51-1.27,2.78-2.78,2.78-1.62,0-2.9-1.28-2.9-2.78,0-1.62,1.27-2.9,2.9-2.9ZM676.64,605.4c1.51,0,2.78,1.28,2.78,2.78,0,1.62-1.27,2.9-2.78,2.9-1.62,0-2.9-1.27-2.9-2.9,0-1.51,1.27-2.78,2.9-2.78ZM683.71,533.9c1.62,0,2.9,1.28,2.9,2.9,0,1.51-1.27,2.78-2.9,2.78-1.51,0-2.78-1.27-2.78-2.78,0-1.62,1.27-2.9,2.78-2.9ZM683.71,541.09c1.62,0,2.9,1.27,2.9,2.78,0,1.62-1.27,2.9-2.9,2.9-1.51,0-2.78-1.28-2.78-2.9,0-1.51,1.27-2.78,2.78-2.78ZM683.71,548.16c1.62,0,2.9,1.28,2.9,2.9s-1.27,2.9-2.9,2.9c-1.51,0-2.78-1.28-2.78-2.9s1.27-2.9,2.78-2.9ZM683.71,555.34c1.62,0,2.9,1.27,2.9,2.9,0,1.51-1.27,2.78-2.9,2.78-1.51,0-2.78-1.28-2.78-2.78,0-1.62,1.27-2.9,2.78-2.9ZM683.71,562.53c1.62,0,2.9,1.27,2.9,2.78,0,1.62-1.27,2.9-2.9,2.9-1.51,0-2.78-1.28-2.78-2.9,0-1.51,1.27-2.78,2.78-2.78ZM683.71,569.6c1.62,0,2.9,1.27,2.9,2.9s-1.27,2.9-2.9,2.9c-1.51,0-2.78-1.28-2.78-2.9s1.27-2.9,2.78-2.9ZM683.71,576.78c1.62,0,2.9,1.27,2.9,2.9,0,1.51-1.27,2.78-2.9,2.78-1.51,0-2.78-1.28-2.78-2.78,0-1.62,1.27-2.9,2.78-2.9ZM683.71,583.96c1.62,0,2.9,1.27,2.9,2.78,0,1.62-1.27,2.9-2.9,2.9-1.51,0-2.78-1.28-2.78-2.9,0-1.51,1.27-2.78,2.78-2.78ZM683.71,591.03c1.62,0,2.9,1.27,2.9,2.9s-1.27,2.9-2.9,2.9c-1.51,0-2.78-1.27-2.78-2.9s1.27-2.9,2.78-2.9ZM683.71,598.22c1.62,0,2.9,1.27,2.9,2.9,0,1.51-1.27,2.78-2.9,2.78-1.51,0-2.78-1.28-2.78-2.78,0-1.62,1.27-2.9,2.78-2.9ZM683.71,605.4c1.62,0,2.9,1.28,2.9,2.78,0,1.62-1.27,2.9-2.9,2.9-1.51,0-2.78-1.27-2.78-2.9,0-1.51,1.27-2.78,2.78-2.78ZM690.89,533.9c1.62,0,2.9,1.28,2.9,2.9,0,1.51-1.27,2.78-2.9,2.78s-2.9-1.27-2.9-2.78c0-1.62,1.27-2.9,2.9-2.9ZM690.89,541.09c1.62,0,2.9,1.27,2.9,2.78,0,1.62-1.27,2.9-2.9,2.9s-2.9-1.28-2.9-2.9c0-1.51,1.27-2.78,2.9-2.78ZM690.89,548.16c1.62,0,2.9,1.28,2.9,2.9s-1.27,2.9-2.9,2.9-2.9-1.28-2.9-2.9,1.27-2.9,2.9-2.9ZM690.89,555.34c1.62,0,2.9,1.27,2.9,2.9,0,1.51-1.27,2.78-2.9,2.78s-2.9-1.28-2.9-2.78c0-1.62,1.27-2.9,2.9-2.9ZM690.89,562.53c1.62,0,2.9,1.27,2.9,2.78,0,1.62-1.27,2.9-2.9,2.9s-2.9-1.28-2.9-2.9c0-1.51,1.27-2.78,2.9-2.78ZM690.89,569.6c1.62,0,2.9,1.27,2.9,2.9s-1.27,2.9-2.9,2.9-2.9-1.28-2.9-2.9,1.27-2.9,2.9-2.9ZM690.89,576.78c1.62,0,2.9,1.27,2.9,2.9,0,1.51-1.27,2.78-2.9,2.78s-2.9-1.28-2.9-2.78c0-1.62,1.27-2.9,2.9-2.9ZM690.89,583.96c1.62,0,2.9,1.27,2.9,2.78,0,1.62-1.27,2.9-2.9,2.9s-2.9-1.28-2.9-2.9c0-1.51,1.27-2.78,2.9-2.78ZM690.89,591.03c1.62,0,2.9,1.27,2.9,2.9s-1.27,2.9-2.9,2.9-2.9-1.27-2.9-2.9,1.27-2.9,2.9-2.9ZM690.89,598.22c1.62,0,2.9,1.27,2.9,2.9,0,1.51-1.27,2.78-2.9,2.78s-2.9-1.28-2.9-2.78c0-1.62,1.27-2.9,2.9-2.9ZM690.89,605.4c1.62,0,2.9,1.28,2.9,2.78,0,1.62-1.27,2.9-2.9,2.9s-2.9-1.27-2.9-2.9c0-1.51,1.27-2.78,2.9-2.78ZM698.08,541.09c1.51,0,2.78,1.27,2.78,2.78,0,1.62-1.27,2.9-2.78,2.9-1.62,0-2.9-1.28-2.9-2.9,0-1.51,1.27-2.78,2.9-2.78ZM698.08,548.16c1.51,0,2.78,1.28,2.78,2.9s-1.27,2.9-2.78,2.9c-1.62,0-2.9-1.28-2.9-2.9s1.27-2.9,2.9-2.9ZM698.08,555.34c1.51,0,2.78,1.27,2.78,2.9,0,1.51-1.27,2.78-2.78,2.78-1.62,0-2.9-1.28-2.9-2.78,0-1.62,1.27-2.9,2.9-2.9ZM698.08,562.53c1.51,0,2.78,1.27,2.78,2.78,0,1.62-1.27,2.9-2.78,2.9-1.62,0-2.9-1.28-2.9-2.9,0-1.51,1.27-2.78,2.9-2.78ZM698.08,569.6c1.51,0,2.78,1.27,2.78,2.9s-1.27,2.9-2.78,2.9c-1.62,0-2.9-1.28-2.9-2.9s1.27-2.9,2.9-2.9ZM698.08,576.78c1.51,0,2.78,1.27,2.78,2.9,0,1.51-1.27,2.78-2.78,2.78-1.62,0-2.9-1.28-2.9-2.78,0-1.62,1.27-2.9,2.9-2.9ZM698.08,583.96c1.51,0,2.78,1.27,2.78,2.78,0,1.62-1.27,2.9-2.78,2.9-1.62,0-2.9-1.28-2.9-2.9,0-1.51,1.27-2.78,2.9-2.78ZM698.08,591.03c1.51,0,2.78,1.27,2.78,2.9s-1.27,2.9-2.78,2.9c-1.62,0-2.9-1.27-2.9-2.9s1.27-2.9,2.9-2.9ZM698.08,598.22c1.51,0,2.78,1.27,2.78,2.9,0,1.51-1.27,2.78-2.78,2.78-1.62,0-2.9-1.28-2.9-2.78,0-1.62,1.27-2.9,2.9-2.9Z"/>
    <path class="cls-4" d="M713.03,541.09c1.51,0,2.78,1.27,2.78,2.78,0,1.62-1.27,2.9-2.78,2.9-1.62,0-2.9-1.28-2.9-2.9,0-1.51,1.27-2.78,2.9-2.78ZM713.03,548.16c1.51,0,2.78,1.28,2.78,2.9s-1.27,2.9-2.78,2.9c-1.62,0-2.9-1.28-2.9-2.9s1.27-2.9,2.9-2.9ZM713.03,555.34c1.51,0,2.78,1.27,2.78,2.9,0,1.51-1.27,2.78-2.78,2.78-1.62,0-2.9-1.28-2.9-2.78,0-1.62,1.27-2.9,2.9-2.9ZM713.03,562.53c1.51,0,2.78,1.27,2.78,2.78,0,1.62-1.27,2.9-2.78,2.9-1.62,0-2.9-1.28-2.9-2.9,0-1.51,1.27-2.78,2.9-2.78ZM713.03,569.6c1.51,0,2.78,1.27,2.78,2.9s-1.27,2.9-2.78,2.9c-1.62,0-2.9-1.28-2.9-2.9s1.27-2.9,2.9-2.9ZM713.03,576.78c1.51,0,2.78,1.27,2.78,2.9,0,1.51-1.27,2.78-2.78,2.78-1.62,0-2.9-1.28-2.9-2.78,0-1.62,1.27-2.9,2.9-2.9ZM713.03,583.96c1.51,0,2.78,1.27,2.78,2.78,0,1.62-1.27,2.9-2.78,2.9-1.62,0-2.9-1.28-2.9-2.9,0-1.51,1.27-2.78,2.9-2.78ZM713.03,591.03c1.51,0,2.78,1.27,2.78,2.9s-1.27,2.9-2.78,2.9c-1.62,0-2.9-1.27-2.9-2.9s1.27-2.9,2.9-2.9ZM713.03,598.22c1.51,0,2.78,1.27,2.78,2.9,0,1.51-1.27,2.78-2.78,2.78-1.62,0-2.9-1.28-2.9-2.78,0-1.62,1.27-2.9,2.9-2.9ZM720.09,533.9c1.62,0,2.9,1.28,2.9,2.9,0,1.51-1.27,2.78-2.9,2.78-1.51,0-2.78-1.27-2.78-2.78,0-1.62,1.27-2.9,2.78-2.9ZM720.09,541.09c1.62,0,2.9,1.27,2.9,2.78,0,1.62-1.27,2.9-2.9,2.9-1.51,0-2.78-1.28-2.78-2.9,0-1.51,1.27-2.78,2.78-2.78ZM720.09,548.16c1.62,0,2.9,1.28,2.9,2.9s-1.27,2.9-2.9,2.9c-1.51,0-2.78-1.28-2.78-2.9s1.27-2.9,2.78-2.9ZM720.09,555.34c1.62,0,2.9,1.27,2.9,2.9,0,1.51-1.27,2.78-2.9,2.78-1.51,0-2.78-1.28-2.78-2.78,0-1.62,1.27-2.9,2.78-2.9ZM720.09,562.53c1.62,0,2.9,1.27,2.9,2.78,0,1.62-1.27,2.9-2.9,2.9-1.51,0-2.78-1.28-2.78-2.9,0-1.51,1.27-2.78,2.78-2.78ZM720.09,569.6c1.62,0,2.9,1.27,2.9,2.9s-1.27,2.9-2.9,2.9c-1.51,0-2.78-1.28-2.78-2.9s1.27-2.9,2.78-2.9ZM720.09,576.78c1.62,0,2.9,1.27,2.9,2.9,0,1.51-1.27,2.78-2.9,2.78-1.51,0-2.78-1.28-2.78-2.78,0-1.62,1.27-2.9,2.78-2.9ZM720.09,583.96c1.62,0,2.9,1.27,2.9,2.78,0,1.62-1.27,2.9-2.9,2.9-1.51,0-2.78-1.28-2.78-2.9,0-1.51,1.27-2.78,2.78-2.78ZM720.09,591.03c1.62,0,2.9,1.27,2.9,2.9s-1.27,2.9-2.9,2.9c-1.51,0-2.78-1.27-2.78-2.9s1.27-2.9,2.78-2.9ZM720.09,598.22c1.62,0,2.9,1.27,2.9,2.9,0,1.51-1.27,2.78-2.9,2.78-1.51,0-2.78-1.28-2.78-2.78,0-1.62,1.27-2.9,2.78-2.9ZM720.09,605.4c1.62,0,2.9,1.28,2.9,2.78,0,1.62-1.27,2.9-2.9,2.9-1.51,0-2.78-1.27-2.78-2.9,0-1.51,1.27-2.78,2.78-2.78ZM727.28,533.9c1.62,0,2.9,1.28,2.9,2.9,0,1.51-1.27,2.78-2.9,2.78s-2.9-1.27-2.9-2.78c0-1.62,1.27-2.9,2.9-2.9ZM727.28,541.09c1.62,0,2.9,1.27,2.9,2.78,0,1.62-1.27,2.9-2.9,2.9s-2.9-1.28-2.9-2.9c0-1.51,1.27-2.78,2.9-2.78ZM727.28,548.16c1.62,0,2.9,1.28,2.9,2.9s-1.27,2.9-2.9,2.9-2.9-1.28-2.9-2.9,1.27-2.9,2.9-2.9ZM727.28,555.34c1.62,0,2.9,1.27,2.9,2.9,0,1.51-1.27,2.78-2.9,2.78s-2.9-1.28-2.9-2.78c0-1.62,1.27-2.9,2.9-2.9ZM727.28,562.53c1.62,0,2.9,1.27,2.9,2.78,0,1.62-1.27,2.9-2.9,2.9s-2.9-1.28-2.9-2.9c0-1.51,1.27-2.78,2.9-2.78ZM727.28,569.6c1.62,0,2.9,1.27,2.9,2.9s-1.27,2.9-2.9,2.9-2.9-1.28-2.9-2.9,1.27-2.9,2.9-2.9ZM727.28,576.78c1.62,0,2.9,1.27,2.9,2.9,0,1.51-1.27,2.78-2.9,2.78s-2.9-1.28-2.9-2.78c0-1.62,1.27-2.9,2.9-2.9ZM727.28,583.96c1.62,0,2.9,1.27,2.9,2.78,0,1.62-1.27,2.9-2.9,2.9s-2.9-1.28-2.9-2.9c0-1.51,1.27-2.78,2.9-2.78ZM727.28,591.03c1.62,0,2.9,1.27,2.9,2.9s-1.27,2.9-2.9,2.9-2.9-1.27-2.9-2.9,1.27-2.9,2.9-2.9ZM727.28,598.22c1.62,0,2.9,1.27,2.9,2.9,0,1.51-1.27,2.78-2.9,2.78s-2.9-1.28-2.9-2.78c0-1.62,1.27-2.9,2.9-2.9ZM727.28,605.4c1.62,0,2.9,1.28,2.9,2.78,0,1.62-1.27,2.9-2.9,2.9s-2.9-1.27-2.9-2.9c0-1.51,1.27-2.78,2.9-2.78ZM734.46,533.9c1.51,0,2.78,1.28,2.78,2.9,0,1.51-1.27,2.78-2.78,2.78-1.62,0-2.9-1.27-2.9-2.78,0-1.62,1.27-2.9,2.9-2.9ZM734.46,541.09c1.51,0,2.78,1.27,2.78,2.78,0,1.62-1.27,2.9-2.78,2.9-1.62,0-2.9-1.28-2.9-2.9,0-1.51,1.27-2.78,2.9-2.78ZM734.46,548.16c1.51,0,2.78,1.28,2.78,2.9s-1.27,2.9-2.78,2.9c-1.62,0-2.9-1.28-2.9-2.9s1.27-2.9,2.9-2.9ZM734.46,591.03c1.51,0,2.78,1.27,2.78,2.9s-1.27,2.9-2.78,2.9c-1.62,0-2.9-1.27-2.9-2.9s1.27-2.9,2.9-2.9ZM734.46,598.22c1.51,0,2.78,1.27,2.78,2.9,0,1.51-1.27,2.78-2.78,2.78-1.62,0-2.9-1.28-2.9-2.78,0-1.62,1.27-2.9,2.9-2.9ZM734.46,605.4c1.51,0,2.78,1.28,2.78,2.78,0,1.62-1.27,2.9-2.78,2.9-1.62,0-2.9-1.27-2.9-2.9,0-1.51,1.27-2.78,2.9-2.78ZM741.53,533.9c1.62,0,2.9,1.28,2.9,2.9,0,1.51-1.27,2.78-2.9,2.78-1.51,0-2.78-1.27-2.78-2.78,0-1.62,1.27-2.9,2.78-2.9ZM741.53,541.09c1.62,0,2.9,1.27,2.9,2.78,0,1.62-1.27,2.9-2.9,2.9-1.51,0-2.78-1.28-2.78-2.9,0-1.51,1.27-2.78,2.78-2.78ZM741.53,548.16c1.62,0,2.9,1.28,2.9,2.9s-1.27,2.9-2.9,2.9c-1.51,0-2.78-1.28-2.78-2.9s1.27-2.9,2.78-2.9ZM741.53,555.34c1.62,0,2.9,1.27,2.9,2.9,0,1.51-1.27,2.78-2.9,2.78-1.51,0-2.78-1.28-2.78-2.78,0-1.62,1.27-2.9,2.78-2.9ZM741.53,562.53c1.62,0,2.9,1.27,2.9,2.78,0,1.62-1.27,2.9-2.9,2.9-1.51,0-2.78-1.28-2.78-2.9,0-1.51,1.27-2.78,2.78-2.78ZM741.53,569.6c1.62,0,2.9,1.27,2.9,2.9s-1.27,2.9-2.9,2.9c-1.51,0-2.78-1.28-2.78-2.9s1.27-2.9,2.78-2.9ZM741.53,576.78c1.62,0,2.9,1.27,2.9,2.9,0,1.51-1.27,2.78-2.9,2.78-1.51,0-2.78-1.28-2.78-2.78,0-1.62,1.27-2.9,2.78-2.9ZM741.53,583.96c1.62,0,2.9,1.27,2.9,2.78,0,1.62-1.27,2.9-2.9,2.9-1.51,0-2.78-1.28-2.78-2.9,0-1.51,1.27-2.78,2.78-2.78ZM741.53,591.03c1.62,0,2.9,1.27,2.9,2.9s-1.27,2.9-2.9,2.9c-1.51,0-2.78-1.27-2.78-2.9s1.27-2.9,2.78-2.9ZM741.53,598.22c1.62,0,2.9,1.27,2.9,2.9,0,1.51-1.27,2.78-2.9,2.78-1.51,0-2.78-1.28-2.78-2.78,0-1.62,1.27-2.9,2.78-2.9ZM741.53,605.4c1.62,0,2.9,1.28,2.9,2.78,0,1.62-1.27,2.9-2.9,2.9-1.51,0-2.78-1.27-2.78-2.9,0-1.51,1.27-2.78,2.78-2.78ZM748.72,533.9c1.62,0,2.9,1.28,2.9,2.9,0,1.51-1.27,2.78-2.9,2.78s-2.9-1.27-2.9-2.78c0-1.62,1.27-2.9,2.9-2.9ZM748.72,541.09c1.62,0,2.9,1.27,2.9,2.78,0,1.62-1.27,2.9-2.9,2.9s-2.9-1.28-2.9-2.9c0-1.51,1.27-2.78,2.9-2.78ZM748.72,548.16c1.62,0,2.9,1.28,2.9,2.9s-1.27,2.9-2.9,2.9-2.9-1.28-2.9-2.9,1.27-2.9,2.9-2.9ZM748.72,555.34c1.62,0,2.9,1.27,2.9,2.9,0,1.51-1.27,2.78-2.9,2.78s-2.9-1.28-2.9-2.78c0-1.62,1.27-2.9,2.9-2.9ZM748.72,562.53c1.62,0,2.9,1.27,2.9,2.78,0,1.62-1.27,2.9-2.9,2.9s-2.9-1.28-2.9-2.9c0-1.51,1.27-2.78,2.9-2.78ZM748.72,569.6c1.62,0,2.9,1.27,2.9,2.9s-1.27,2.9-2.9,2.9-2.9-1.28-2.9-2.9,1.27-2.9,2.9-2.9ZM748.72,576.78c1.62,0,2.9,1.27,2.9,2.9,0,1.51-1.27,2.78-2.9,2.78s-2.9-1.28-2.9-2.78c0-1.62,1.27-2.9,2.9-2.9ZM748.72,583.96c1.62,0,2.9,1.27,2.9,2.78,0,1.62-1.27,2.9-2.9,2.9s-2.9-1.28-2.9-2.9c0-1.51,1.27-2.78,2.9-2.78ZM748.72,591.03c1.62,0,2.9,1.27,2.9,2.9s-1.27,2.9-2.9,2.9-2.9-1.27-2.9-2.9,1.27-2.9,2.9-2.9ZM748.72,598.22c1.62,0,2.9,1.27,2.9,2.9,0,1.51-1.27,2.78-2.9,2.78s-2.9-1.28-2.9-2.78c0-1.62,1.27-2.9,2.9-2.9ZM748.72,605.4c1.62,0,2.9,1.28,2.9,2.78,0,1.62-1.27,2.9-2.9,2.9s-2.9-1.27-2.9-2.9c0-1.51,1.27-2.78,2.9-2.78ZM755.9,541.09c1.51,0,2.78,1.27,2.78,2.78,0,1.62-1.27,2.9-2.78,2.9-1.62,0-2.9-1.28-2.9-2.9,0-1.51,1.27-2.78,2.9-2.78ZM755.9,548.16c1.51,0,2.78,1.28,2.78,2.9s-1.27,2.9-2.78,2.9c-1.62,0-2.9-1.28-2.9-2.9s1.27-2.9,2.9-2.9ZM755.9,555.34c1.51,0,2.78,1.27,2.78,2.9,0,1.51-1.27,2.78-2.78,2.78-1.62,0-2.9-1.28-2.9-2.78,0-1.62,1.27-2.9,2.9-2.9ZM755.9,562.53c1.51,0,2.78,1.27,2.78,2.78,0,1.62-1.27,2.9-2.78,2.9-1.62,0-2.9-1.28-2.9-2.9,0-1.51,1.27-2.78,2.9-2.78ZM755.9,569.6c1.51,0,2.78,1.27,2.78,2.9s-1.27,2.9-2.78,2.9c-1.62,0-2.9-1.28-2.9-2.9s1.27-2.9,2.9-2.9ZM755.9,576.78c1.51,0,2.78,1.27,2.78,2.9,0,1.51-1.27,2.78-2.78,2.78-1.62,0-2.9-1.28-2.9-2.78,0-1.62,1.27-2.9,2.9-2.9ZM755.9,583.96c1.51,0,2.78,1.27,2.78,2.78,0,1.62-1.27,2.9-2.78,2.9-1.62,0-2.9-1.28-2.9-2.9,0-1.51,1.27-2.78,2.9-2.78ZM755.9,591.03c1.51,0,2.78,1.27,2.78,2.9s-1.27,2.9-2.78,2.9c-1.62,0-2.9-1.27-2.9-2.9s1.27-2.9,2.9-2.9ZM755.9,598.22c1.51,0,2.78,1.27,2.78,2.9,0,1.51-1.27,2.78-2.78,2.78-1.62,0-2.9-1.28-2.9-2.78,0-1.62,1.27-2.9,2.9-2.9Z"/>
  </g>
  <line class="cls-2" x1="224.61" y1="634.58" x2="784.9" y2="634.58"/>
  <line class="cls-2" x1="224.61" y1="743.78" x2="784.9" y2="743.78"/>
  <line class="cls-2" x1="403.93" y1="743.78" x2="403.93" y2="629.94"/>
  <line class="cls-2" x1="610.15" y1="743.78" x2="610.15" y2="629.94"/>
</svg>