<?xml version="1.0" encoding="UTF-8"?><svg id="app_icon" xmlns="http://www.w3.org/2000/svg" viewBox="0 0 1000 1000"><rect id="slate-fill" x="78.69" y="471.69" width="852.75" height="475.35" fill="#fff"/><g id="clapper"><path d="M244.16,269.12c-51.31.82-102,1.61-152.69,2.43-11.16.18-22.35-.06-33.46.76-11.69.86-15.73-5.17-15.75-15.49-.09-32.26-.1-64.53-.06-96.79.02-12.57,6.93-17.58,18.99-17.38,30.38.51,60.77.92,91.16,1,6.65.02,11.69,1.04,15.74,7.17,24.7,37.35,49.76,74.46,74.6,111.71.92,1.38.82,3.46,1.48,6.58Z"/><path d="M450.53,270.24c-49.46-.16-95.27-.33-141.09-.43-7.53-.02-12.89-3.36-17-9.52-25.52-38.21-51.13-76.36-78.6-117.35,36.32-.29,70.38,1.86,103.88-1.5,35.6-3.58,57.65,9.15,74.55,40.17,16.28,29.88,37.3,57.17,58.26,88.63Z" fill="#00a651"/><path d="M610.91,142.68c49.81.02,96.18.02,142.54.06,5.34,0,9.31,2.3,12.38,6.88,25.91,38.62,51.94,77.16,80.11,118.95-44.52.14-85.2-.6-125.81.78-17.83.61-27.94-5.74-37.35-20.66-22.1-35.01-46.34-68.67-71.87-106.02Z" fill="#356aa5"/><path d="M646.32,269.07c-47.3.26-89.38.25-131.46.91-10.44.16-16.73-3.53-22.48-12.32-24.74-37.84-50.27-75.17-77.6-115.81,20-.02,36.95-.07,53.91-.05,26.63.04,53.26.25,79.9.13,5.79-.03,10.73,0,14.56,5.64,26.75,39.37,53.74,78.57,83.17,121.5Z" fill="#db1f26"/><path d="M811.12,142.12c40.88,0,77.69-.31,114.48.06,47.71.48,47.62.71,47.06,48.81-.23,19.81-.2,39.63.11,59.44.22,13.97-5.77,20.98-20.13,19.83-1.24-.1-2.51-.33-3.71-.13-36.97,6-61.16-8.84-79.12-41.86-15.82-29.09-37.23-55.14-58.69-86.16Z"/></g><g id="slate"><path d="M925.96,481.8c-.37,92.37-.33,226.36-.3,335.55.01,40.79.02,79.32.01,111.15,0,6.87-.57,10.95-1.05,13.19-2.16.45-6.06.97-12.52.97h-.05c-148.36-.06-296.72-.14-445.08-.21-109.42-.06-218.85-.11-328.27-.16h-5.53c-10.92,0-23.65.02-36.4.28-.67.01-1.33.02-1.98.02-4.4,0-7.31-.33-9.1-.65-.41-1.99-.86-5.38-.9-10.7-.44-66.56-.58-183.66-.69-277.76-.04-34.45-.08-66.98-.13-91.86-.02-11.31.06-22.91.15-34.13.11-14.77.22-29.87.1-45.07,82.18.21,161.62.25,229.42.25,32.04,0,64.07,0,96.1-.02,32.02,0,64.05-.02,96.08-.02h40v-.55c19.75,0,39.49.01,59.24.02,33.09.01,66.18.03,99.27.03,61.49,0,140.9-.04,221.62-.34M947.02,441.71c-.11,0-.23,0-.34,0-80.78.35-161.55.42-242.34.42-66.16,0-132.34-.05-198.51-.05v.55c-64.07,0-128.11.03-192.17.03-83.5,0-167.03-.05-250.53-.3-.08,0-.17,0-.25,0-13.96,0-19.41,3.56-19.01,18.47.91,33.6.06,67.24.12,100.86.18,91.53.21,278.27.81,369.8.24,36.75,14.79,51.09,50,51.09.92,0,1.85,0,2.8-.03,11.86-.24,23.72-.27,35.58-.27,1.84,0,3.67,0,5.51,0,257.78.12,515.57.27,773.35.37h.06c39.33,0,53.56-14.39,53.57-54.15.04-123.91-.25-343.04.37-466.95.08-15.15-3.44-19.85-19.04-19.85h0Z"/><path d="M593.37,410.12c33.12-41.3,62.95-78.46,92.75-115.65,4.16-5.2,9.27-7.49,16.11-7.46,42.26.17,84.52,0,126.78.09,3.4,0,8.03-1.83,9.85,2.67,1.6,3.97-1.75,6.89-3.98,9.76-25.95,33.32-51.89,66.66-77.95,99.89-4.57,5.83-9.22,10.96-18.17,10.88-46.56-.39-93.13-.18-145.39-.18Z" fill="#356aa5"/><path d="M440.51,286.85c-32.18,40.85-61.44,77.93-90.6,115.08-4.05,5.16-8.5,8.33-15.59,8.29-45.38-.23-90.77-.12-136.46-.12-.83-8.81,5.7-12.74,9.57-17.78,24.25-31.58,48.78-62.95,73.32-94.3,4.1-5.24,7.39-11.32,15.83-11.28,46.49.22,92.98.1,143.92.1Z" fill="#00a651"/><path d="M639.36,287.15c-31.5,42.68-60.78,81.62-92.6,118.64-3.22,3.74-7.3,4.3-11.74,4.3-45.27,0-90.54,0-135.46,0-2.79-7.34,2.55-10.12,5.33-13.7,25.53-32.86,51.39-65.47,76.79-98.43,5.8-7.53,12.24-11.06,21.98-10.97,43.49.4,86.99.17,135.7.17Z" fill="#db1f26"/><path d="M240.06,285.63c-33.1,42.22-62.64,79.75-91.96,117.46-4.34,5.58-9.54,6.99-16.17,6.92-24.88-.23-49.78-.45-74.66.07-9.77.21-13.02-3.28-12.9-12.88.43-32.35.1-64.7.37-97.05.05-6.36-1.69-14.57,9.32-14.56,60.19.07,120.37.04,186,.04Z"/><path d="M799.48,409.97c31.67-40.54,60.94-77.46,89.49-114.93,7.02-9.22,15.77-8.21,24.97-8.24q51.9-.15,51.81,51.6c-.03,19.89-.36,39.78.05,59.65.18,8.65-2.58,12.11-11.62,12.06-50.19-.29-100.39-.14-154.7-.14Z"/><line x1="94.95" y1="667.97" x2="912.06" y2="667.97" fill="none" stroke="#000" stroke-miterlimit="10" stroke-width="12"/><line x1="94.95" y1="827.21" x2="912.06" y2="827.21" fill="none" stroke="#000" stroke-miterlimit="10" stroke-width="12"/><line x1="356.47" y1="827.21" x2="356.47" y2="661.2" fill="none" stroke="#000" stroke-miterlimit="10" stroke-width="12"/><line x1="657.22" y1="827.21" x2="657.22" y2="661.2" fill="none" stroke="#000" stroke-miterlimit="10" stroke-width="12"/></g></svg>